<svg width="188" height="188" viewBox="0 0 188 188" fill="none" xmlns="http://www.w3.org/2000/svg">
<circle cx="94.0001" cy="93.555" r="92.555" fill="#001040" stroke="#DB3600" stroke-width="2"/>
<path fill-rule="evenodd" clip-rule="evenodd" d="M92.9405 43.061C92.0774 43.061 91.1061 43.4586 90.2653 43.8697C89.3373 44.3234 88.2355 44.9678 87.0044 45.7548C84.5371 47.3322 81.4217 49.5664 77.9126 52.2218C70.8875 57.5379 62.1816 64.621 53.7267 71.7138C45.2688 78.8092 37.0447 85.929 30.9784 91.3252C27.9468 94.0219 25.4453 96.296 23.7203 97.9248C22.8613 98.7358 22.1767 99.4038 21.7117 99.8906C21.4856 100.127 21.2767 100.357 21.1215 100.556C21.0532 100.643 20.9364 100.799 20.8403 100.986C20.7974 101.07 20.6987 101.273 20.6543 101.546C20.6134 101.797 20.5653 102.497 21.1449 103.077C21.3852 103.317 21.6458 103.444 21.7534 103.495C21.8956 103.561 22.0388 103.613 22.1629 103.654C22.4132 103.736 22.708 103.81 23.0207 103.878C23.4274 103.967 23.9185 104.057 24.4784 104.145L25.8898 123.855C25.9582 124.81 26.7873 125.528 27.7417 125.46C28.6961 125.391 29.4143 124.562 29.346 123.608L27.9836 104.582C28.2775 104.611 28.5793 104.64 28.8883 104.667V116.481C28.8883 117.437 29.664 118.213 30.6208 118.213H55.4937L56.7018 124.081C56.8947 125.018 57.8108 125.621 58.748 125.429C59.6852 125.236 60.2885 124.319 60.0956 123.382L59.0314 118.213H124.151L123.496 123.519C123.379 124.469 124.053 125.334 125.003 125.451C125.953 125.568 126.818 124.894 126.935 123.944L127.643 118.213H158.248C159.205 118.213 159.981 117.437 159.981 116.481V108.506C160.275 108.506 160.57 108.508 160.865 108.513L159.525 124.592C159.445 125.545 160.154 126.383 161.108 126.462C162.061 126.542 162.898 125.833 162.978 124.88L164.328 108.683C164.74 108.722 165.138 108.768 165.518 108.822C165.727 108.852 166.156 108.889 166.623 108.694C167.218 108.445 167.62 107.925 167.736 107.326C167.828 106.856 167.722 106.461 167.659 106.269C167.587 106.045 167.487 105.845 167.398 105.685C167.062 105.085 166.448 104.323 165.718 103.498C164.208 101.789 161.784 99.3461 158.751 96.4371C152.671 90.6044 144.015 82.7718 134.993 74.9247C125.972 67.0777 116.562 59.1965 108.975 53.2702C105.185 50.3098 101.825 47.8185 99.1854 46.06C97.8684 45.1827 96.6987 44.4665 95.7257 43.9629C95.2395 43.7113 94.7736 43.4977 94.3432 43.3435C93.9387 43.1985 93.445 43.061 92.9405 43.061ZM67.9279 114.748H58.318L55.7518 102.284C62.9088 99.2746 68.6619 93.3871 73.4519 87.1591L68.0771 99.2582C67.9787 99.4796 67.9279 99.7192 67.9279 99.9615V114.748ZM71.3929 114.748H109.97V100.235L101.045 72.7177C100.977 72.5079 100.951 72.2946 100.963 72.087C100.363 71.1008 99.7785 70.1681 99.2077 69.2987C97.8398 67.2151 96.605 65.5856 95.4694 64.4911C94.304 63.3679 93.4852 63.0429 92.9405 63.0429C92.2534 63.0429 91.4037 63.3494 90.326 64.1868C89.2507 65.0224 88.09 66.277 86.815 67.9101C85.8176 69.1877 84.7976 70.6326 83.7332 72.2029C83.7307 72.4319 83.6825 72.664 83.5837 72.8865L71.3929 100.329V114.748ZM108.678 85.0214L113.35 99.4271C113.406 99.5997 113.435 99.7801 113.435 99.9615V114.748H124.579L125.748 105.286C125.777 105.057 125.848 104.844 125.954 104.654C124.252 103.552 122.641 102.274 121.116 100.872C116.284 96.4333 112.206 90.6634 108.678 85.0214ZM54.7803 114.748L52.4503 103.431C52.3292 103.464 52.2078 103.497 52.0859 103.528C46.2998 105.035 38.9609 105.214 33.0628 104.945C32.8242 104.934 32.5876 104.922 32.3533 104.91V114.748H54.7803ZM128.071 114.748L129.098 106.429C132.035 107.847 135.22 108.724 138.679 108.839C141.37 108.928 144.776 108.928 147.494 108.906C148.856 108.895 150.052 108.878 150.907 108.864C151.335 108.857 151.678 108.851 151.914 108.847L152.185 108.841L152.256 108.84L152.274 108.839L152.279 108.839L152.28 108.839L152.28 108.839C152.307 108.839 152.333 108.837 152.359 108.836C152.373 108.835 152.386 108.834 152.4 108.833L152.4 108.833L152.401 108.832L152.404 108.832L152.42 108.831L152.486 108.825C152.545 108.82 152.633 108.812 152.748 108.803C152.978 108.785 153.314 108.759 153.735 108.73C154.454 108.681 155.417 108.623 156.516 108.579V114.748H128.071ZM162.187 105.079C162.263 105.053 162.34 105.032 162.42 105.017C160.989 103.47 158.917 101.397 156.353 98.9376C150.327 93.1569 141.716 85.3642 132.719 77.5391C123.723 69.7138 114.363 61.8758 106.842 56.001C103.078 53.0609 99.7975 50.6311 97.2644 48.9438C95.9949 48.0981 94.9446 47.4602 94.1332 47.0403C93.7271 46.8301 93.4097 46.6897 93.1743 46.6054C93.0398 46.5572 92.9601 46.5376 92.9255 46.5299C92.8512 46.5468 92.5086 46.6298 91.7874 46.9825C91.0277 47.3539 90.0504 47.92 88.8709 48.6741C86.5171 50.179 83.4858 52.3497 80.0035 54.9848C73.046 60.2498 64.3908 67.2905 55.9537 74.3684C47.5196 81.4437 39.321 88.5416 33.2813 93.9141C30.2599 96.6018 27.7876 98.8499 26.0991 100.444C25.9598 100.576 25.8264 100.702 25.6988 100.824C25.7773 100.835 25.8574 100.846 25.9389 100.857C27.7984 101.11 30.3457 101.352 33.2206 101.483C39.0082 101.747 45.9335 101.55 51.2126 100.175C61.4371 97.5121 68.9982 87.9493 75.4028 78.4749C76.3482 77.0764 77.2723 75.6741 78.1754 74.3037L78.1758 74.3031L78.1762 74.3025L78.1765 74.3019C80.2561 71.1464 82.2241 68.1599 84.0837 65.7779C85.4285 64.0553 86.7942 62.5431 88.1999 61.4507C89.6033 60.3603 91.1893 59.5779 92.9405 59.5779C94.8341 59.5779 96.4852 60.6578 97.874 61.9963C99.2927 63.3637 100.696 65.2528 102.104 67.397C103.52 69.5538 104.998 72.0601 106.546 74.7034L106.938 75.3717L106.938 75.372C108.376 77.8283 109.881 80.4004 111.487 82.9769C114.999 88.6118 118.92 94.1494 123.46 98.3206C127.986 102.479 133.022 105.183 138.794 105.376C141.41 105.463 144.757 105.463 147.466 105.441C148.817 105.43 150.003 105.413 150.851 105.4C151.275 105.393 151.614 105.387 151.847 105.382L152.115 105.377L152.149 105.376L152.189 105.373C152.254 105.367 152.348 105.359 152.469 105.349C152.712 105.33 153.062 105.303 153.498 105.273C154.37 105.213 155.587 105.142 156.973 105.094C158.552 105.04 160.385 105.015 162.187 105.079ZM23.8424 102.702C23.8423 102.702 23.8443 102.699 23.8489 102.693C23.8448 102.699 23.8425 102.702 23.8424 102.702Z" fill="white"/>
<path d="M114.589 42.6558C114.85 42.559 115.113 42.7941 115.046 43.0643L113.246 50.3001C113.22 50.4061 113.245 50.5184 113.314 50.603L118.121 56.4873C118.301 56.708 118.153 57.0398 117.869 57.0527L110.393 57.3917C110.28 57.3968 110.178 57.4559 110.117 57.5504L106.116 63.7694C105.964 64.0057 105.609 63.9723 105.503 63.7118L102.661 56.6827C102.621 56.5831 102.537 56.5078 102.433 56.4789L95.1315 54.4363C94.8609 54.3606 94.7882 54.0112 95.0061 53.8339L100.741 49.1657C100.828 49.0948 100.876 48.9861 100.868 48.8741L100.373 41.4067C100.355 41.1224 100.668 40.9382 100.907 41.0928L107.29 45.2156C107.382 45.2749 107.496 45.2874 107.598 45.2494L114.589 42.6558Z" fill="#FF5000"/>
<path d="M107.29 45.2156L106.663 46.1858L107.29 45.2156ZM107.598 45.2494L108 46.3323L107.598 45.2494ZM100.373 41.4067L99.221 41.4831L100.373 41.4067ZM100.907 41.0928L101.534 40.1226L100.907 41.0928ZM100.741 49.1657L100.012 48.2699L100.741 49.1657ZM100.868 48.8741L102.021 48.7977L100.868 48.8741ZM95.1315 54.4363L94.8203 55.5486L95.1315 54.4363ZM95.0061 53.8339L95.7352 54.7297L95.0061 53.8339ZM102.661 56.6827L101.59 57.1156L102.661 56.6827ZM102.433 56.4789L102.744 55.3666L102.433 56.4789ZM106.116 63.7694L107.087 64.3943L106.116 63.7694ZM105.503 63.7118L106.574 63.2788L105.503 63.7118ZM110.393 57.3917L110.34 56.2379L110.393 57.3917ZM110.117 57.5504L109.146 56.9254L110.117 57.5504ZM118.121 56.4873L119.016 55.7566L118.121 56.4873ZM117.869 57.0527L117.921 58.2065L117.869 57.0527ZM113.246 50.3001L112.125 50.0213L113.246 50.3001ZM113.314 50.603L112.419 51.3337L113.314 50.603ZM115.046 43.0643L116.167 43.3431L115.046 43.0643ZM114.589 42.6558L114.187 41.573L114.589 42.6558ZM113.925 42.7856L112.125 50.0213L114.367 50.5789L116.167 43.3431L113.925 42.7856ZM112.419 51.3337L117.227 57.2181L119.016 55.7566L114.208 49.8722L112.419 51.3337ZM117.816 55.8989L110.34 56.2379L110.445 58.5455L117.921 58.2065L117.816 55.8989ZM109.146 56.9254L105.145 63.1444L107.087 64.3943L111.088 58.1753L109.146 56.9254ZM106.574 63.2788L103.732 56.2497L101.59 57.1156L104.432 64.1447L106.574 63.2788ZM102.744 55.3666L95.4426 53.324L94.8203 55.5486L102.122 57.5912L102.744 55.3666ZM95.7352 54.7297L101.47 50.0615L100.012 48.2699L94.277 52.9381L95.7352 54.7297ZM102.021 48.7977L101.526 41.3304L99.221 41.4831L99.7159 48.9504L102.021 48.7977ZM100.281 42.063L106.663 46.1858L107.917 44.2454L101.534 40.1226L100.281 42.063ZM108 46.3323L114.991 43.7387L114.187 41.573L107.197 44.1665L108 46.3323ZM106.663 46.1858C107.061 46.4426 107.556 46.4969 108 46.3323L107.197 44.1665C107.436 44.0779 107.702 44.1071 107.917 44.2454L106.663 46.1858ZM101.526 41.3304C101.57 41.9937 100.839 42.4237 100.281 42.063L101.534 40.1226C100.497 39.4526 99.1394 40.2512 99.221 41.4831L101.526 41.3304ZM101.47 50.0615C101.848 49.7543 102.053 49.2833 102.021 48.7977L99.7159 48.9504C99.6985 48.689 99.809 48.4354 100.012 48.2699L101.47 50.0615ZM95.4426 53.324C96.074 53.5006 96.2437 54.3158 95.7352 54.7297L94.277 52.9381C93.3327 53.7067 93.6478 55.2206 94.8203 55.5486L95.4426 53.324ZM103.732 56.2497C103.557 55.8182 103.193 55.492 102.744 55.3666L102.122 57.5912C101.881 57.5236 101.684 57.348 101.59 57.1156L103.732 56.2497ZM105.145 63.1444C105.499 62.5931 106.328 62.671 106.574 63.2788L104.432 64.1447C104.889 65.2735 106.428 65.4183 107.087 64.3943L105.145 63.1444ZM110.34 56.2379C109.854 56.2599 109.409 56.5162 109.146 56.9254L111.088 58.1753C110.946 58.3956 110.707 58.5336 110.445 58.5455L110.34 56.2379ZM117.227 57.2181C116.806 56.7032 117.152 55.929 117.816 55.8989L117.921 58.2065C119.154 58.1506 119.797 56.7127 119.016 55.7566L117.227 57.2181ZM112.125 50.0213C112.011 50.4807 112.12 50.9671 112.419 51.3337L114.208 49.8722C114.37 50.0696 114.428 50.3315 114.367 50.5789L112.125 50.0213ZM116.167 43.3431C116.458 42.1721 115.319 41.1532 114.187 41.573L114.991 43.7387C114.381 43.9647 113.768 43.4161 113.925 42.7856L116.167 43.3431Z" fill="#001040"/>
</svg>
