<svg width="192" height="192" viewBox="0 0 192 192" fill="none" xmlns="http://www.w3.org/2000/svg">
<circle cx="95.9998" cy="95.555" r="94.555" fill="#001040" stroke="#DB3600" stroke-width="2"/>
<path fill-rule="evenodd" clip-rule="evenodd" d="M94.5691 54.8875C94.5691 53.2928 93.2763 52 91.6816 52C90.0868 52 88.7941 53.2928 88.7941 54.8875V63.527C88.7941 65.1218 90.0868 66.4145 91.6816 66.4145C93.2763 66.4145 94.5691 65.1218 94.5691 63.527V54.8875ZM108.544 60.4576C109.458 59.1509 109.14 57.3505 107.833 56.4365C106.526 55.5224 104.726 55.8408 103.812 57.1475L98.7298 64.413C97.8157 65.7198 98.1341 67.5201 99.4408 68.4342C100.748 69.3482 102.548 69.0299 103.462 67.7231L108.544 60.4576ZM77.974 57.0418C77.0015 55.7779 75.1886 55.5416 73.9247 56.5141C72.6608 57.4866 72.4246 59.2995 73.397 60.5634L78.9873 67.8289C79.9598 69.0928 81.7727 69.329 83.0366 68.3565C84.3005 67.3841 84.5368 65.5711 83.5643 64.3072L77.974 57.0418ZM116.965 74.5338C115.103 77.2314 114.478 80.7512 114.839 84.1805C115.145 87.0878 115.938 90.0211 117.769 92.2057C119.06 93.7463 120.727 94.7504 122.696 95.1864L122.333 95.2233L121.749 95.2826C119.375 95.5225 117.164 95.7287 115.17 95.7287C114.577 95.7287 114.033 95.7326 113.527 95.7362H113.527C112.061 95.7466 110.923 95.7547 109.874 95.6592C108.571 95.5406 107.731 95.2783 107.019 94.8054C105.445 93.7602 103.631 91.1379 101.045 83.4398C99.6368 79.2479 97.4778 76.1235 94.9252 74.4332C92.3061 72.6989 88.8703 72.3706 86.3775 74.8544C84.1793 77.0446 83.6154 80.6238 84.192 84.5398C84.3464 85.5879 84.5868 86.7028 84.9206 87.8828C84.2678 90.7326 83.1012 92.9637 81.4313 94.5159C79.6239 96.196 76.9971 97.2955 73.1465 97.2955C71.1787 97.2955 69.2203 97.0361 67.2653 96.7114C66.7321 96.6228 66.1863 96.5268 65.6372 96.4301L65.637 96.4301C64.2505 96.1861 62.8428 95.9384 61.5622 95.7977C59.7593 95.5995 57.8263 95.5579 56.0508 96.1494C54.1519 96.7821 52.6246 98.0726 51.5993 100.123C51.0492 101.223 50.722 102.663 50.5044 104.143C50.2794 105.673 50.1437 107.454 50.0705 109.357C49.924 113.167 50.0223 117.624 50.2142 121.843C50.4064 126.071 50.6944 130.102 50.934 133.073C51.0539 134.559 51.1618 135.783 51.2399 136.635C51.279 137.062 51.3106 137.396 51.3324 137.624C51.3434 137.738 51.3519 137.825 51.3578 137.885L51.3644 137.953L51.3662 137.97L51.3666 137.975L51.3668 137.976C51.3668 137.977 51.3668 137.977 53.6654 137.747L51.3668 137.977C51.4938 139.246 52.6258 140.172 53.8953 140.046C55.1647 139.919 56.0909 138.787 55.9639 137.517L53.6654 137.747L55.9639 137.517L55.9638 137.516L55.9635 137.513L55.9619 137.497L55.9557 137.434C55.9502 137.377 55.9419 137.293 55.9313 137.182C55.91 136.961 55.8791 136.633 55.8407 136.214C55.7639 135.376 55.6574 134.169 55.5391 132.702C55.3022 129.765 55.0184 125.791 54.8294 121.634C54.64 117.468 54.5478 113.158 54.6871 109.535C54.7569 107.722 54.8833 106.121 55.0752 104.815C55.2745 103.46 55.5192 102.614 55.7315 102.189C56.231 101.19 56.8213 100.762 57.5111 100.533C58.3244 100.262 59.4513 100.214 61.0575 100.39C62.1817 100.514 63.3548 100.72 64.6707 100.952C65.2526 101.054 65.8624 101.162 66.5082 101.269C68.5394 101.606 70.7948 101.915 73.1465 101.915C77.935 101.916 81.7604 100.518 84.5767 97.8998C85.7081 96.8482 86.6384 95.6352 87.3926 94.3023C87.9611 95.4944 88.6068 96.7322 89.3342 98.0146C88.4043 98.9547 87.4181 99.8522 86.4095 100.744C86.0868 101.03 85.7583 101.317 85.428 101.607L85.4277 101.607L85.4275 101.607C84.4137 102.495 83.3828 103.398 82.4517 104.292C80.02 106.625 77.634 109.457 77.4461 113.212C77.3075 115.98 76.8539 122.522 76.4486 128.17C76.2465 130.987 76.0572 133.572 75.9265 135.335C75.8612 136.216 75.8106 136.891 75.7805 137.287L75.7666 137.469C75.7619 137.508 75.7582 137.547 75.7554 137.587C75.7516 137.64 75.7481 137.692 75.7462 137.725L75.7449 137.749L75.7441 137.768C75.7436 137.779 75.7431 137.795 75.7427 137.812C75.7423 137.833 75.7423 137.896 75.7432 137.938C75.7512 138.071 76.9403 139.89 78.9936 139.975C79.8164 139.357 80.3112 138.348 80.3295 138.253C80.3351 138.218 80.3427 138.165 80.345 138.147L80.3481 138.12L80.35 138.103L80.3514 138.089L80.3536 138.065L80.3563 138.035C80.3614 137.973 80.3722 137.834 80.3872 137.638C80.4176 137.238 80.4685 136.559 80.5339 135.676C80.6648 133.91 80.8544 131.322 81.0568 128.501C81.4607 122.872 81.9186 116.272 82.0603 113.443C82.1526 111.599 83.3241 109.857 85.6503 107.625C86.4992 106.811 87.4167 106.007 88.408 105.139C88.753 104.836 89.107 104.526 89.4701 104.205C90.32 103.453 91.2007 102.658 92.0696 101.809C94.2426 104.395 96.5278 106.969 99.3951 109.013C102.536 111.252 106.281 112.809 111.266 113.447V137.747C111.266 139.342 112.559 140.634 114.154 140.634C115.748 140.634 117.041 139.342 117.041 137.747V110.812C117.041 109.281 115.846 108.016 114.318 107.929C108.887 107.62 105.445 106.233 102.747 104.31C100.124 102.44 98.0851 100 95.5278 96.9403L95.5278 96.9402C95.3794 96.7627 95.2293 96.583 95.0772 96.4013C91.8334 90.9712 90.3509 86.7233 89.9054 83.6984C89.4356 80.5076 90.1704 79.2276 90.4536 78.9454C90.5471 78.8523 90.6016 78.8377 90.6913 78.8364C90.8265 78.8343 91.1833 78.8818 91.7367 79.2483C92.869 79.9981 94.4153 81.8397 95.5706 85.2788C98.1115 92.8428 100.409 97.3489 103.825 99.6166C105.608 100.8 107.482 101.24 109.35 101.41C110.708 101.534 112.243 101.522 113.795 101.511H113.795L113.797 101.511C114.255 101.507 114.714 101.504 115.17 101.504C117.497 101.504 119.986 101.265 122.329 101.028L122.878 100.973C125.073 100.75 127.133 100.541 129.039 100.486C131.122 100.425 132.756 100.562 133.954 100.94C135.07 101.292 135.637 101.791 135.965 102.448C136.135 102.788 136.37 103.56 136.567 104.899C136.755 106.177 136.88 107.756 136.949 109.557C137.088 113.157 136.996 117.448 136.807 121.607C136.618 125.756 136.335 129.722 136.099 132.655C135.981 134.12 135.874 135.325 135.798 136.162C135.759 136.58 135.728 136.906 135.707 137.127C135.697 137.237 135.688 137.321 135.683 137.377L135.677 137.44L135.675 137.455L135.675 137.459L135.675 137.46C135.516 139.046 136.674 140.461 138.261 140.62C139.847 140.779 141.262 139.621 141.421 138.034L138.548 137.747C141.421 138.034 141.421 138.034 141.421 138.034L141.421 138.032L141.422 138.027L141.424 138.01L141.43 137.941C141.436 137.881 141.445 137.794 141.456 137.679C141.478 137.45 141.509 137.115 141.549 136.688C141.627 135.834 141.735 134.608 141.855 133.119C142.095 130.144 142.384 126.107 142.576 121.87C142.768 117.643 142.867 113.168 142.72 109.335C142.646 107.42 142.509 105.617 142.28 104.059C142.06 102.564 141.723 101.049 141.131 99.8646C139.934 97.4723 137.897 96.1287 135.693 95.4329C133.76 94.8228 131.597 94.6713 129.488 94.6997C133.999 93.16 137.318 89.3219 137.862 84.1818C138.621 76.9982 133.05 70.8641 126.064 70.3269C122.089 70.0212 118.918 71.7065 116.965 74.5338ZM121.718 77.8151C122.516 76.6587 123.719 75.9386 125.621 76.0849C129.581 76.3894 132.513 79.8404 132.119 83.5746C131.759 86.9766 129.234 89.3626 125.622 89.6386C123.745 89.7821 122.81 89.2301 122.195 88.4962C121.437 87.5921 120.838 86.0013 120.583 83.5759C120.327 81.1435 120.83 79.1013 121.718 77.8151ZM74.7727 74.8619C76.538 77.4184 77.1502 80.7905 76.7997 84.12C76.4987 86.9792 75.7252 89.7782 74.0016 91.8348C72.1638 94.0276 69.5047 95.074 66.195 94.821C60.265 94.3677 55.5683 90.1953 54.9261 84.1211C54.2031 77.2824 59.5102 71.4166 66.194 70.9027C69.9616 70.6129 72.9359 72.2017 74.7727 74.8619ZM70.971 77.487C70.0571 76.1635 68.6572 75.3469 66.5482 75.5091C62.2856 75.8369 59.0893 79.5562 59.5205 83.6353C59.9116 87.3342 62.6781 89.9187 66.5471 90.2144C68.5839 90.3701 69.7098 89.7631 70.4607 88.8672C71.3258 87.835 71.9447 86.1099 72.2051 83.6364C72.4716 81.1043 71.9565 78.9143 70.971 77.487Z" fill="white"/>
</svg>
