<svg width="192" height="192" viewBox="0 0 192 192" fill="none" xmlns="http://www.w3.org/2000/svg">
<circle cx="95.9998" cy="95.555" r="92.055" stroke="#DB3600" stroke-width="3"/>
<circle cx="95.9998" cy="95.555" r="94.555" fill="#001040" stroke="#DB3600" stroke-width="2"/>
<path d="M78.9972 49.0117C78.0732 42.0817 85.9272 41.8892 89.9697 42.6592C92.8573 38.2318 99.3254 30.763 102.097 36.307C105.562 43.237 107.295 42.6592 115.957 38.0393C124.62 33.4193 113.07 44.3918 114.225 53.0543C120.577 61.1393 120 63.4493 118.267 66.9143C116.535 70.3793 122.887 66.3368 127.507 75.5768C120 84.8168 122.31 87.1268 129.817 91.1693C133.282 103.874 127.507 106.762 118.267 110.227C102.675 130.439 104.985 110.804 103.83 127.552C102.675 144.299 99.7874 133.327 98.6324 148.919C97.4774 164.512 99.7874 153.539 89.9697 153.539C80.152 153.539 66.8698 123.273 75.5324 116.92C84.195 110.568 78.9972 111.145 78.9972 100.173C78.9972 89.2004 73.7999 106.762 75.5324 87.1268C77.2649 67.4918 72.0673 77.3093 63.4048 70.3793C54.7423 63.4493 66.2923 70.3793 66.8698 57.6743C67.4473 44.9693 80.1522 57.6742 78.9972 49.0117Z" stroke="white" stroke-width="5.775"/>
<path d="M86.5657 119.073C86.8268 118.976 87.0897 119.211 87.0224 119.482L86.2093 122.751C86.183 122.857 86.2081 122.969 86.2773 123.053L88.4436 125.705C88.6239 125.926 88.4756 126.258 88.191 126.271L84.8311 126.423C84.7189 126.428 84.6162 126.487 84.5554 126.582L82.7544 129.381C82.6024 129.617 82.2471 129.584 82.1418 129.323L80.8568 126.146C80.8166 126.046 80.7324 125.971 80.6289 125.942L77.3279 125.018C77.0574 124.943 76.9846 124.593 77.2026 124.416L79.7841 122.315C79.8712 122.244 79.9186 122.135 79.9112 122.023L79.6888 118.667C79.6699 118.383 79.9832 118.198 80.2225 118.353L83.0988 120.211C83.1906 120.27 83.3049 120.283 83.4073 120.245L86.5657 119.073Z" fill="#FF5000"/>
</svg>
