<svg width="351" height="331" viewBox="0 0 351 331" fill="none" xmlns="http://www.w3.org/2000/svg">
<rect y="0.5" width="351" height="330" rx="6" fill="white"/>
<path d="M175.034 65.3182V75.5H173.493V66.8594H173.433L170.997 68.4503V66.9787L173.537 65.3182H175.034Z" fill="#E2251A"/>
<path d="M216.186 75.5V74.3864L219.632 70.8168C220 70.429 220.303 70.0893 220.542 69.7976C220.783 69.5026 220.964 69.2225 221.083 68.9574C221.203 68.6922 221.262 68.4105 221.262 68.1122C221.262 67.7741 221.183 67.4825 221.024 67.2372C220.865 66.9886 220.648 66.7981 220.373 66.6655C220.097 66.5296 219.788 66.4616 219.443 66.4616C219.078 66.4616 218.76 66.5362 218.488 66.6854C218.217 66.8345 218.008 67.045 217.862 67.3168C217.716 67.5885 217.643 67.9067 217.643 68.2713H216.176C216.176 67.6515 216.319 67.1096 216.604 66.6456C216.889 66.1816 217.28 65.822 217.777 65.5668C218.275 65.3082 218.84 65.179 219.473 65.179C220.112 65.179 220.676 65.3066 221.163 65.5618C221.654 65.8137 222.036 66.1584 222.311 66.5959C222.587 67.0301 222.724 67.5206 222.724 68.0675C222.724 68.4453 222.653 68.8149 222.51 69.1761C222.371 69.5374 222.127 69.9401 221.779 70.3842C221.431 70.825 220.948 71.3603 220.328 71.9901L218.304 74.108V74.1825H222.888V75.5H216.186Z" fill="#E2251A"/>
<path d="M265.512 75.6392C264.83 75.6392 264.22 75.5215 263.683 75.2862C263.149 75.0509 262.727 74.7244 262.415 74.3068C262.107 73.8859 261.941 73.3987 261.918 72.8452H263.479C263.499 73.1468 263.6 73.4086 263.782 73.6307C263.968 73.8494 264.21 74.0185 264.508 74.1378C264.806 74.2571 265.138 74.3168 265.502 74.3168C265.904 74.3168 266.258 74.2472 266.566 74.108C266.878 73.9687 267.122 73.7749 267.297 73.5263C267.473 73.2744 267.561 72.9844 267.561 72.6562C267.561 72.3149 267.473 72.0149 267.297 71.7564C267.125 71.4946 266.871 71.2891 266.537 71.1399C266.205 70.9908 265.804 70.9162 265.333 70.9162H264.473V69.6634H265.333C265.711 69.6634 266.043 69.5954 266.328 69.4595C266.616 69.3236 266.842 69.1347 267.004 68.8928C267.166 68.6475 267.248 68.3608 267.248 68.0327C267.248 67.7178 267.176 67.4444 267.034 67.2124C266.895 66.977 266.696 66.7931 266.437 66.6605C266.182 66.5279 265.88 66.4616 265.532 66.4616C265.201 66.4616 264.891 66.523 264.603 66.6456C264.318 66.7649 264.086 66.9373 263.907 67.1626C263.728 67.3847 263.632 67.6515 263.618 67.9631H262.132C262.148 67.4129 262.311 66.929 262.619 66.5114C262.931 66.0937 263.342 65.7673 263.852 65.532C264.362 65.2966 264.929 65.179 265.552 65.179C266.205 65.179 266.769 65.3066 267.243 65.5618C267.72 65.8137 268.088 66.1501 268.346 66.571C268.608 66.992 268.737 67.4527 268.734 67.9531C268.737 68.5232 268.578 69.0071 268.257 69.4048C267.939 69.8026 267.514 70.0694 266.984 70.2053V70.2848C267.66 70.3875 268.184 70.656 268.555 71.0902C268.93 71.5244 269.115 72.063 269.112 72.706C269.115 73.2661 268.959 73.7682 268.645 74.2124C268.333 74.6565 267.907 75.0062 267.367 75.2614C266.827 75.5133 266.208 75.6392 265.512 75.6392Z" fill="#E2251A"/>
<rect x="296" y="52.5" width="35" height="35" rx="5" fill="#E42121"/>
<path d="M309.686 73.5114V72.2685L314.085 65.3182H315.065V67.1477H314.443L311.296 72.1293V72.2088H317.327V73.5114H309.686ZM314.513 75.5V73.1335L314.523 72.5668V65.3182H315.98V75.5H314.513Z" fill="white"/>
<path opacity="0.2" d="M156 55.5C156 52.7386 158.239 50.5 161 50.5H329C331.761 50.5 334 52.7386 334 55.5V84.5C334 87.2614 331.761 89.5 329 89.5H161C158.239 89.5 156 87.2614 156 84.5V55.5Z" fill="#DB3600"/>
<rect x="16" y="99.5" width="35" height="35" rx="5" fill="#E42121"/>
<rect x="296" y="99.5" width="35" height="35" rx="5" fill="#E42121"/>
<path d="M33.4994 122.639C32.8763 122.639 32.3161 122.52 31.819 122.281C31.3251 122.039 30.9307 121.708 30.6357 121.287C30.3408 120.866 30.1833 120.385 30.1634 119.845H31.6549C31.6914 120.283 31.8853 120.642 32.2366 120.924C32.5879 121.206 33.0088 121.347 33.4994 121.347C33.8905 121.347 34.2368 121.257 34.5384 121.078C34.8434 120.896 35.082 120.646 35.2544 120.327C35.43 120.009 35.5178 119.646 35.5178 119.239C35.5178 118.824 35.4284 118.455 35.2494 118.13C35.0704 117.805 34.8235 117.55 34.5086 117.364C34.1971 117.179 33.8391 117.084 33.4347 117.081C33.1265 117.081 32.8166 117.134 32.5051 117.24C32.1935 117.346 31.9416 117.485 31.7494 117.658L30.3424 117.449L30.9142 112.318H36.5122V113.636H32.1919L31.8687 116.484H31.9284C32.1272 116.292 32.3907 116.131 32.7188 116.002C33.0503 115.873 33.4049 115.808 33.7828 115.808C34.4026 115.808 34.9544 115.956 35.4383 116.251C35.9255 116.546 36.3083 116.948 36.5867 117.459C36.8685 117.966 37.0077 118.549 37.0044 119.209C37.0077 119.868 36.8585 120.457 36.5569 120.974C36.2586 121.491 35.8443 121.898 35.314 122.197C34.787 122.492 34.1821 122.639 33.4994 122.639Z" fill="white"/>
<path d="M79.5839 122.639C79.1298 122.633 78.6824 122.55 78.2416 122.391C77.8041 122.232 77.4063 121.966 77.0484 121.595C76.6904 121.224 76.4037 120.725 76.1883 120.099C75.9762 119.472 75.8701 118.69 75.8701 117.752C75.8701 116.864 75.9579 116.075 76.1336 115.386C76.3126 114.696 76.5695 114.115 76.9042 113.641C77.239 113.163 77.6433 112.8 78.1173 112.552C78.5912 112.303 79.1232 112.179 79.7132 112.179C80.3197 112.179 80.8583 112.298 81.3289 112.537C81.7996 112.776 82.1807 113.105 82.4724 113.526C82.7674 113.947 82.9546 114.426 83.0342 114.963H81.5178C81.4151 114.539 81.2113 114.192 80.9063 113.924C80.6014 113.656 80.2037 113.521 79.7132 113.521C78.9674 113.521 78.3857 113.846 77.9681 114.496C77.5538 115.145 77.345 116.049 77.3417 117.205H77.4163C77.5919 116.917 77.8074 116.672 78.0626 116.469C78.3211 116.264 78.6095 116.107 78.9276 115.997C79.2491 115.884 79.5872 115.828 79.9419 115.828C80.5318 115.828 81.0654 115.972 81.5427 116.261C82.0233 116.546 82.4061 116.94 82.6911 117.444C82.9762 117.948 83.1187 118.524 83.1187 119.174C83.1187 119.824 82.9712 120.412 82.6762 120.939C82.3846 121.466 81.9736 121.884 81.4433 122.192C80.913 122.497 80.2932 122.646 79.5839 122.639ZM79.5789 121.347C79.97 121.347 80.3197 121.25 80.6279 121.058C80.9362 120.866 81.1798 120.607 81.3588 120.283C81.5377 119.958 81.6272 119.595 81.6272 119.194C81.6272 118.803 81.5394 118.446 81.3637 118.125C81.1914 117.804 80.9527 117.548 80.6478 117.359C80.3462 117.17 80.0015 117.076 79.6137 117.076C79.3187 117.076 79.0453 117.132 78.7934 117.245C78.5448 117.358 78.3261 117.513 78.1372 117.712C77.9482 117.911 77.7991 118.14 77.6897 118.398C77.5837 118.654 77.5306 118.924 77.5306 119.209C77.5306 119.59 77.6185 119.943 77.7941 120.268C77.9731 120.593 78.2167 120.854 78.5249 121.053C78.8365 121.249 79.1878 121.347 79.5789 121.347Z" fill="#E2251A"/>
<path d="M123.769 122.5L128.213 113.71V113.636H123.073V112.318H129.804V113.68L125.375 122.5H123.769Z" fill="#E2251A"/>
<path d="M173.497 122.639C172.784 122.639 172.155 122.517 171.608 122.271C171.064 122.026 170.638 121.688 170.33 121.257C170.022 120.826 169.869 120.336 169.873 119.786C169.869 119.355 169.957 118.959 170.136 118.597C170.318 118.233 170.565 117.929 170.877 117.688C171.188 117.442 171.536 117.286 171.921 117.22V117.161C171.414 117.038 171.008 116.766 170.703 116.345C170.398 115.924 170.247 115.44 170.25 114.893C170.247 114.373 170.385 113.909 170.663 113.501C170.945 113.09 171.331 112.767 171.821 112.532C172.312 112.297 172.87 112.179 173.497 112.179C174.117 112.179 174.67 112.298 175.157 112.537C175.648 112.772 176.034 113.095 176.316 113.506C176.598 113.914 176.74 114.376 176.743 114.893C176.74 115.44 176.584 115.924 176.276 116.345C175.968 116.766 175.567 117.038 175.073 117.161V117.22C175.454 117.286 175.797 117.442 176.102 117.688C176.41 117.929 176.656 118.233 176.838 118.597C177.023 118.959 177.118 119.355 177.121 119.786C177.118 120.336 176.962 120.826 176.654 121.257C176.346 121.688 175.918 122.026 175.371 122.271C174.828 122.517 174.203 122.639 173.497 122.639ZM173.497 121.381C173.918 121.381 174.282 121.312 174.591 121.173C174.899 121.03 175.138 120.833 175.307 120.581C175.476 120.326 175.562 120.027 175.565 119.686C175.562 119.331 175.469 119.018 175.287 118.746C175.108 118.475 174.864 118.261 174.556 118.105C174.248 117.949 173.895 117.871 173.497 117.871C173.096 117.871 172.74 117.949 172.428 118.105C172.116 118.261 171.871 118.475 171.692 118.746C171.513 119.018 171.425 119.331 171.429 119.686C171.425 120.027 171.507 120.326 171.672 120.581C171.841 120.833 172.082 121.03 172.393 121.173C172.705 121.312 173.073 121.381 173.497 121.381ZM173.497 116.643C173.835 116.643 174.135 116.576 174.397 116.44C174.659 116.304 174.864 116.115 175.013 115.873C175.166 115.631 175.244 115.348 175.247 115.023C175.244 114.705 175.167 114.426 175.018 114.188C174.872 113.949 174.669 113.765 174.407 113.636C174.145 113.503 173.842 113.437 173.497 113.437C173.146 113.437 172.837 113.503 172.572 113.636C172.31 113.765 172.107 113.949 171.961 114.188C171.815 114.426 171.744 114.705 171.747 115.023C171.744 115.348 171.816 115.631 171.966 115.873C172.115 116.115 172.32 116.304 172.582 116.44C172.847 116.576 173.152 116.643 173.497 116.643Z" fill="#E2251A"/>
<path d="M219.415 112.179C219.869 112.182 220.316 112.265 220.757 112.428C221.198 112.59 221.596 112.855 221.95 113.223C222.308 113.591 222.593 114.088 222.805 114.714C223.021 115.338 223.13 116.113 223.134 117.041C223.134 117.933 223.044 118.727 222.865 119.423C222.686 120.115 222.429 120.7 222.095 121.178C221.763 121.655 221.36 122.018 220.886 122.266C220.412 122.515 219.879 122.639 219.286 122.639C218.679 122.639 218.14 122.52 217.67 122.281C217.199 122.043 216.816 121.713 216.521 121.292C216.226 120.868 216.042 120.38 215.97 119.83H217.486C217.585 120.268 217.787 120.622 218.092 120.894C218.401 121.163 218.798 121.297 219.286 121.297C220.031 121.297 220.613 120.972 221.031 120.322C221.448 119.67 221.659 118.758 221.662 117.588H221.582C221.41 117.873 221.195 118.118 220.936 118.324C220.681 118.529 220.394 118.688 220.076 118.801C219.758 118.914 219.418 118.97 219.057 118.97C218.47 118.97 217.937 118.826 217.456 118.538C216.975 118.249 216.593 117.853 216.308 117.349C216.023 116.846 215.88 116.271 215.88 115.624C215.88 114.981 216.026 114.398 216.318 113.874C216.613 113.351 217.024 112.936 217.551 112.631C218.081 112.323 218.702 112.172 219.415 112.179ZM219.42 113.472C219.032 113.472 218.682 113.568 218.371 113.76C218.063 113.949 217.819 114.206 217.64 114.531C217.461 114.852 217.372 115.21 217.372 115.604C217.372 115.999 217.458 116.357 217.63 116.678C217.806 116.996 218.044 117.25 218.346 117.439C218.651 117.625 218.999 117.717 219.39 117.717C219.682 117.717 219.953 117.661 220.205 117.548C220.457 117.436 220.678 117.28 220.867 117.081C221.055 116.879 221.203 116.65 221.309 116.395C221.415 116.14 221.468 115.871 221.468 115.589C221.468 115.215 221.379 114.867 221.2 114.545C221.024 114.224 220.782 113.965 220.474 113.77C220.166 113.571 219.814 113.472 219.42 113.472Z" fill="#E2251A"/>
<path d="M262.515 112.318V122.5H260.974V113.859H260.914L258.478 115.45V113.979L261.019 112.318H262.515ZM268.814 122.669C268.029 122.666 267.358 122.459 266.801 122.048C266.244 121.637 265.818 121.038 265.523 120.253C265.228 119.467 265.081 118.521 265.081 117.414C265.081 116.31 265.228 115.367 265.523 114.585C265.821 113.803 266.249 113.206 266.806 112.795C267.366 112.384 268.035 112.179 268.814 112.179C269.593 112.179 270.261 112.386 270.818 112.8C271.375 113.211 271.8 113.808 272.095 114.59C272.394 115.369 272.543 116.31 272.543 117.414C272.543 118.524 272.395 119.472 272.1 120.258C271.805 121.04 271.38 121.638 270.823 122.053C270.266 122.464 269.596 122.669 268.814 122.669ZM268.814 121.342C269.504 121.342 270.042 121.005 270.43 120.332C270.821 119.66 271.017 118.687 271.017 117.414C271.017 116.569 270.927 115.855 270.748 115.271C270.572 114.685 270.319 114.241 269.987 113.939C269.659 113.634 269.268 113.482 268.814 113.482C268.128 113.482 267.59 113.82 267.198 114.496C266.807 115.172 266.61 116.145 266.607 117.414C266.607 118.263 266.695 118.98 266.87 119.567C267.049 120.15 267.303 120.593 267.631 120.894C267.959 121.192 268.353 121.342 268.814 121.342Z" fill="#E2251A"/>
<path d="M311.725 112.318V122.5H310.184V113.859H310.124L307.688 115.45V113.979L310.229 112.318H311.725ZM318.342 112.318V122.5H316.801V113.859H316.741L314.305 115.45V113.979L316.846 112.318H318.342Z" fill="white"/>
<path opacity="0.2" d="M13 102.5C13 99.7386 15.2386 97.5 18 97.5H329C331.761 97.5 334 99.7386 334 102.5V131.5C334 134.261 331.761 136.5 329 136.5H18C15.2386 136.5 13 134.261 13 131.5V102.5Z" fill="#DB3600"/>
<path opacity="0.2" d="M13 149.5C13 146.739 15.2386 144.5 18 144.5H329C331.761 144.5 334 146.739 334 149.5V178.5C334 181.261 331.761 183.5 329 183.5H18C15.2386 183.5 13 181.261 13 178.5V149.5Z" fill="#DB3600"/>
<rect x="16" y="146.5" width="35" height="35" rx="5" fill="#E42121"/>
<rect x="296" y="146.5" width="35" height="35" rx="5" fill="#E42121"/>
<path d="M30.7408 159.318V169.5H29.1996V160.859H29.1399L26.7038 162.45V160.979L29.2443 159.318H30.7408ZM33.495 169.5V168.386L36.9403 164.817C37.3082 164.429 37.6115 164.089 37.8501 163.798C38.0921 163.503 38.2727 163.223 38.392 162.957C38.5114 162.692 38.571 162.411 38.571 162.112C38.571 161.774 38.4915 161.482 38.3324 161.237C38.1733 160.989 37.9562 160.798 37.6811 160.665C37.406 160.53 37.0961 160.462 36.7514 160.462C36.3868 160.462 36.0687 160.536 35.7969 160.685C35.5251 160.835 35.3163 161.045 35.1705 161.317C35.0246 161.589 34.9517 161.907 34.9517 162.271H33.4851C33.4851 161.652 33.6276 161.11 33.9126 160.646C34.1977 160.182 34.5888 159.822 35.0859 159.567C35.5831 159.308 36.1482 159.179 36.7812 159.179C37.4209 159.179 37.9844 159.307 38.4716 159.562C38.9621 159.814 39.3449 160.158 39.62 160.596C39.8951 161.03 40.0327 161.521 40.0327 162.067C40.0327 162.445 39.9614 162.815 39.8189 163.176C39.6797 163.537 39.4361 163.94 39.0881 164.384C38.7401 164.825 38.2562 165.36 37.6364 165.99L35.6129 168.108V168.183H40.1967V169.5H33.495Z" fill="white"/>
<path d="M76.522 159.318V169.5H74.9808V160.859H74.9212L72.4851 162.45V160.979L75.0256 159.318H76.522ZM82.821 169.639C82.1383 169.639 81.5284 169.522 80.9915 169.286C80.4579 169.051 80.0353 168.724 79.7237 168.307C79.4155 167.886 79.2498 167.399 79.2266 166.845H80.7876C80.8075 167.147 80.9086 167.409 81.0909 167.631C81.2765 167.849 81.5185 168.018 81.8168 168.138C82.1151 168.257 82.4465 168.317 82.8111 168.317C83.2121 168.317 83.5668 168.247 83.875 168.108C84.1866 167.969 84.4302 167.775 84.6058 167.526C84.7815 167.274 84.8693 166.984 84.8693 166.656C84.8693 166.315 84.7815 166.015 84.6058 165.756C84.4335 165.495 84.1799 165.289 83.8452 165.14C83.5137 164.991 83.1127 164.916 82.642 164.916H81.782V163.663H82.642C83.0199 163.663 83.3513 163.595 83.6364 163.46C83.9247 163.324 84.1501 163.135 84.3125 162.893C84.4749 162.647 84.5561 162.361 84.5561 162.033C84.5561 161.718 84.4848 161.444 84.3423 161.212C84.2031 160.977 84.0043 160.793 83.7457 160.661C83.4905 160.528 83.1889 160.462 82.8409 160.462C82.5095 160.462 82.1996 160.523 81.9112 160.646C81.6262 160.765 81.3942 160.937 81.2152 161.163C81.0362 161.385 80.9401 161.652 80.9268 161.963H79.4403C79.4569 161.413 79.6193 160.929 79.9276 160.511C80.2391 160.094 80.6501 159.767 81.1605 159.532C81.6709 159.297 82.2377 159.179 82.8608 159.179C83.5137 159.179 84.0772 159.307 84.5511 159.562C85.0284 159.814 85.3963 160.15 85.6548 160.571C85.9167 160.992 86.0459 161.453 86.0426 161.953C86.0459 162.523 85.8868 163.007 85.5653 163.405C85.2472 163.803 84.8229 164.069 84.2926 164.205V164.285C84.9688 164.388 85.4924 164.656 85.8636 165.09C86.2382 165.524 86.4238 166.063 86.4205 166.706C86.4238 167.266 86.268 167.768 85.9531 168.212C85.6416 168.656 85.2157 169.006 84.6754 169.261C84.1352 169.513 83.517 169.639 82.821 169.639Z" fill="#E2251A"/>
<path d="M123.454 159.318V169.5H121.912V160.859H121.853L119.417 162.45V160.979L121.957 159.318H123.454ZM125.994 167.511V166.268L130.394 159.318H131.373V161.148H130.752L127.605 166.129V166.209H133.635V167.511H125.994ZM130.822 169.5V167.134L130.831 166.567V159.318H132.288V169.5H130.822Z" fill="#E2251A"/>
<path d="M170.693 159.318V169.5H169.152V160.859H169.092L166.656 162.45V160.979L169.196 159.318H170.693ZM176.808 169.639C176.185 169.639 175.625 169.52 175.128 169.281C174.634 169.039 174.239 168.708 173.944 168.287C173.649 167.866 173.492 167.385 173.472 166.845H174.964C175 167.283 175.194 167.642 175.545 167.924C175.897 168.206 176.317 168.347 176.808 168.347C177.199 168.347 177.545 168.257 177.847 168.078C178.152 167.896 178.391 167.646 178.563 167.327C178.739 167.009 178.826 166.646 178.826 166.239C178.826 165.824 178.737 165.455 178.558 165.13C178.379 164.805 178.132 164.55 177.817 164.364C177.506 164.179 177.148 164.084 176.743 164.081C176.435 164.081 176.125 164.134 175.814 164.24C175.502 164.346 175.25 164.485 175.058 164.658L173.651 164.449L174.223 159.318H179.821V160.636H175.5L175.177 163.484H175.237C175.436 163.292 175.699 163.131 176.027 163.002C176.359 162.873 176.714 162.808 177.091 162.808C177.711 162.808 178.263 162.956 178.747 163.251C179.234 163.546 179.617 163.948 179.895 164.459C180.177 164.966 180.316 165.549 180.313 166.209C180.316 166.868 180.167 167.457 179.866 167.974C179.567 168.491 179.153 168.898 178.623 169.197C178.096 169.492 177.491 169.639 176.808 169.639Z" fill="#E2251A"/>
<path d="M216.584 159.318V169.5H215.042V160.859H214.983L212.547 162.45V160.979L215.087 159.318H216.584ZM222.892 169.639C222.438 169.633 221.991 169.55 221.55 169.391C221.113 169.232 220.715 168.966 220.357 168.595C219.999 168.224 219.712 167.725 219.497 167.099C219.285 166.472 219.179 165.69 219.179 164.752C219.179 163.864 219.267 163.075 219.442 162.386C219.621 161.696 219.878 161.115 220.213 160.641C220.548 160.163 220.952 159.8 221.426 159.552C221.9 159.303 222.432 159.179 223.022 159.179C223.628 159.179 224.167 159.298 224.638 159.537C225.108 159.776 225.489 160.105 225.781 160.526C226.076 160.947 226.263 161.426 226.343 161.963H224.826C224.724 161.539 224.52 161.192 224.215 160.924C223.91 160.656 223.512 160.521 223.022 160.521C222.276 160.521 221.694 160.846 221.277 161.496C220.862 162.145 220.654 163.049 220.65 164.205H220.725C220.901 163.917 221.116 163.672 221.371 163.469C221.63 163.264 221.918 163.107 222.236 162.997C222.558 162.884 222.896 162.828 223.25 162.828C223.84 162.828 224.374 162.972 224.851 163.261C225.332 163.546 225.715 163.94 226 164.444C226.285 164.948 226.427 165.524 226.427 166.174C226.427 166.824 226.28 167.412 225.985 167.939C225.693 168.466 225.282 168.884 224.752 169.192C224.222 169.497 223.602 169.646 222.892 169.639ZM222.888 168.347C223.279 168.347 223.628 168.25 223.937 168.058C224.245 167.866 224.488 167.607 224.667 167.283C224.846 166.958 224.936 166.595 224.936 166.194C224.936 165.803 224.848 165.446 224.672 165.125C224.5 164.804 224.261 164.548 223.956 164.359C223.655 164.17 223.31 164.076 222.922 164.076C222.627 164.076 222.354 164.132 222.102 164.245C221.853 164.358 221.635 164.513 221.446 164.712C221.257 164.911 221.108 165.14 220.998 165.398C220.892 165.654 220.839 165.924 220.839 166.209C220.839 166.59 220.927 166.943 221.103 167.268C221.282 167.593 221.525 167.854 221.834 168.053C222.145 168.249 222.496 168.347 222.888 168.347Z" fill="#E2251A"/>
<path d="M262.98 159.318V169.5H261.439V160.859H261.379L258.943 162.45V160.979L261.484 159.318H262.98ZM266.077 169.5L270.522 160.71V160.636H265.381V159.318H272.113V160.68L267.683 169.5H266.077Z" fill="#E2251A"/>
<path d="M310.611 159.318V169.5H309.07V160.859H309.01L306.574 162.45V160.979L309.114 159.318H310.611ZM316.805 169.639C316.093 169.639 315.463 169.517 314.916 169.271C314.373 169.026 313.947 168.688 313.639 168.257C313.33 167.826 313.178 167.336 313.181 166.786C313.178 166.355 313.266 165.959 313.445 165.597C313.627 165.233 313.874 164.929 314.185 164.688C314.497 164.442 314.845 164.286 315.229 164.22V164.161C314.722 164.038 314.316 163.766 314.011 163.345C313.707 162.924 313.556 162.44 313.559 161.893C313.556 161.373 313.693 160.909 313.972 160.501C314.253 160.09 314.64 159.767 315.13 159.532C315.621 159.297 316.179 159.179 316.805 159.179C317.425 159.179 317.979 159.298 318.466 159.537C318.957 159.772 319.343 160.095 319.624 160.506C319.906 160.914 320.049 161.376 320.052 161.893C320.049 162.44 319.893 162.924 319.585 163.345C319.276 163.766 318.875 164.038 318.381 164.161V164.22C318.763 164.286 319.106 164.442 319.411 164.688C319.719 164.929 319.964 165.233 320.146 165.597C320.332 165.959 320.426 166.355 320.43 166.786C320.426 167.336 320.271 167.826 319.962 168.257C319.654 168.688 319.227 169.026 318.68 169.271C318.136 169.517 317.511 169.639 316.805 169.639ZM316.805 168.381C317.226 168.381 317.591 168.312 317.899 168.173C318.207 168.03 318.446 167.833 318.615 167.581C318.784 167.326 318.87 167.027 318.874 166.686C318.87 166.331 318.778 166.018 318.595 165.746C318.416 165.475 318.173 165.261 317.864 165.105C317.556 164.949 317.203 164.871 316.805 164.871C316.404 164.871 316.048 164.949 315.737 165.105C315.425 165.261 315.18 165.475 315.001 165.746C314.822 166.018 314.734 166.331 314.737 166.686C314.734 167.027 314.815 167.326 314.981 167.581C315.15 167.833 315.39 168.03 315.702 168.173C316.013 168.312 316.381 168.381 316.805 168.381ZM316.805 163.643C317.144 163.643 317.444 163.576 317.705 163.44C317.967 163.304 318.173 163.115 318.322 162.873C318.474 162.631 318.552 162.348 318.555 162.023C318.552 161.705 318.476 161.426 318.327 161.188C318.181 160.949 317.977 160.765 317.715 160.636C317.453 160.503 317.15 160.437 316.805 160.437C316.454 160.437 316.146 160.503 315.881 160.636C315.619 160.765 315.415 160.949 315.269 161.188C315.123 161.426 315.052 161.705 315.055 162.023C315.052 162.348 315.125 162.631 315.274 162.873C315.423 163.115 315.629 163.304 315.891 163.44C316.156 163.576 316.461 163.643 316.805 163.643Z" fill="white"/>
<path d="M310.611 159.318V169.5H309.07V160.859H309.01L306.574 162.45V160.979L309.114 159.318H310.611ZM316.805 169.639C316.093 169.639 315.463 169.517 314.916 169.271C314.373 169.026 313.947 168.688 313.639 168.257C313.33 167.826 313.178 167.336 313.181 166.786C313.178 166.355 313.266 165.959 313.445 165.597C313.627 165.233 313.874 164.929 314.185 164.688C314.497 164.442 314.845 164.286 315.229 164.22V164.161C314.722 164.038 314.316 163.766 314.011 163.345C313.707 162.924 313.556 162.44 313.559 161.893C313.556 161.373 313.693 160.909 313.972 160.501C314.253 160.09 314.64 159.767 315.13 159.532C315.621 159.297 316.179 159.179 316.805 159.179C317.425 159.179 317.979 159.298 318.466 159.537C318.957 159.772 319.343 160.095 319.624 160.506C319.906 160.914 320.049 161.376 320.052 161.893C320.049 162.44 319.893 162.924 319.585 163.345C319.276 163.766 318.875 164.038 318.381 164.161V164.22C318.763 164.286 319.106 164.442 319.411 164.688C319.719 164.929 319.964 165.233 320.146 165.597C320.332 165.959 320.426 166.355 320.43 166.786C320.426 167.336 320.271 167.826 319.962 168.257C319.654 168.688 319.227 169.026 318.68 169.271C318.136 169.517 317.511 169.639 316.805 169.639ZM316.805 168.381C317.226 168.381 317.591 168.312 317.899 168.173C318.207 168.03 318.446 167.833 318.615 167.581C318.784 167.326 318.87 167.027 318.874 166.686C318.87 166.331 318.778 166.018 318.595 165.746C318.416 165.475 318.173 165.261 317.864 165.105C317.556 164.949 317.203 164.871 316.805 164.871C316.404 164.871 316.048 164.949 315.737 165.105C315.425 165.261 315.18 165.475 315.001 165.746C314.822 166.018 314.734 166.331 314.737 166.686C314.734 167.027 314.815 167.326 314.981 167.581C315.15 167.833 315.39 168.03 315.702 168.173C316.013 168.312 316.381 168.381 316.805 168.381ZM316.805 163.643C317.144 163.643 317.444 163.576 317.705 163.44C317.967 163.304 318.173 163.115 318.322 162.873C318.474 162.631 318.552 162.348 318.555 162.023C318.552 161.705 318.476 161.426 318.327 161.188C318.181 160.949 317.977 160.765 317.715 160.636C317.453 160.503 317.15 160.437 316.805 160.437C316.454 160.437 316.146 160.503 315.881 160.636C315.619 160.765 315.415 160.949 315.269 161.188C315.123 161.426 315.052 161.705 315.055 162.023C315.052 162.348 315.125 162.631 315.274 162.873C315.423 163.115 315.629 163.304 315.891 163.44C316.156 163.576 316.461 163.643 316.805 163.643Z" fill="white"/>
<path opacity="0.2" d="M13 196.5C13 193.739 15.2386 191.5 18 191.5H329C331.761 191.5 334 193.739 334 196.5V225.5C334 228.261 331.761 230.5 329 230.5H18C15.2386 230.5 13 228.261 13 225.5V196.5Z" fill="#FFC226"/>
<rect x="296" y="193.5" width="35" height="35" rx="5" fill="#FFB800"/>
<rect x="16" y="193.5" width="35" height="35" rx="5" fill="#FFB800"/>
<path d="M30.5835 206.318V216.5H29.0423V207.859H28.9827L26.5466 209.45V207.979L29.0871 206.318H30.5835ZM36.7235 206.179C37.1775 206.182 37.625 206.265 38.0658 206.428C38.5066 206.59 38.9043 206.855 39.259 207.223C39.6169 207.591 39.902 208.088 40.1141 208.714C40.3295 209.338 40.4389 210.113 40.4422 211.041C40.4422 211.933 40.3527 212.727 40.1737 213.423C39.9948 214.115 39.7379 214.7 39.4031 215.178C39.0717 215.655 38.669 216.018 38.195 216.266C37.7211 216.515 37.1875 216.639 36.5942 216.639C35.9877 216.639 35.4491 216.52 34.9784 216.281C34.5078 216.043 34.125 215.713 33.83 215.292C33.535 214.868 33.3511 214.38 33.2781 213.83H34.7945C34.8939 214.268 35.0961 214.622 35.401 214.894C35.7093 215.163 36.107 215.297 36.5942 215.297C37.3399 215.297 37.9216 214.972 38.3392 214.322C38.7568 213.67 38.9673 212.758 38.9706 211.588H38.8911C38.7187 211.873 38.5033 212.118 38.2448 212.324C37.9896 212.529 37.7029 212.688 37.3847 212.801C37.0665 212.914 36.7268 212.97 36.3655 212.97C35.7789 212.97 35.2452 212.826 34.7646 212.538C34.2841 212.249 33.9012 211.853 33.6162 211.349C33.3312 210.846 33.1887 210.271 33.1887 209.624C33.1887 208.981 33.3345 208.398 33.6262 207.874C33.9211 207.351 34.3321 206.936 34.8591 206.631C35.3894 206.323 36.0109 206.172 36.7235 206.179ZM36.7284 207.472C36.3406 207.472 35.991 207.568 35.6794 207.76C35.3712 207.949 35.1276 208.206 34.9486 208.531C34.7696 208.852 34.6801 209.21 34.6801 209.604C34.6801 209.999 34.7663 210.357 34.9387 210.678C35.1143 210.996 35.353 211.25 35.6546 211.439C35.9595 211.625 36.3075 211.717 36.6986 211.717C36.9903 211.717 37.262 211.661 37.5139 211.548C37.7658 211.436 37.9862 211.28 38.1752 211.081C38.3641 210.879 38.5116 210.65 38.6176 210.395C38.7237 210.14 38.7767 209.871 38.7767 209.589C38.7767 209.215 38.6872 208.867 38.5083 208.545C38.3326 208.224 38.0906 207.965 37.7824 207.77C37.4742 207.571 37.1228 207.472 36.7284 207.472Z" fill="white"/>
<path d="M71.6679 216.5V215.386L75.1132 211.817C75.4811 211.429 75.7844 211.089 76.023 210.798C76.2649 210.503 76.4456 210.223 76.5649 209.957C76.6842 209.692 76.7439 209.411 76.7439 209.112C76.7439 208.774 76.6643 208.482 76.5052 208.237C76.3461 207.989 76.1291 207.798 75.854 207.665C75.5789 207.53 75.269 207.462 74.9243 207.462C74.5597 207.462 74.2415 207.536 73.9697 207.685C73.6979 207.835 73.4891 208.045 73.3433 208.317C73.1975 208.589 73.1246 208.907 73.1246 209.271H71.6579C71.6579 208.652 71.8005 208.11 72.0855 207.646C72.3705 207.182 72.7616 206.822 73.2588 206.567C73.7559 206.308 74.3211 206.179 74.9541 206.179C75.5938 206.179 76.1572 206.307 76.6444 206.562C77.135 206.814 77.5178 207.158 77.7929 207.596C78.068 208.03 78.2055 208.521 78.2055 209.067C78.2055 209.445 78.1343 209.815 77.9917 210.176C77.8525 210.537 77.6089 210.94 77.2609 211.384C76.9129 211.825 76.429 212.36 75.8092 212.99L73.7858 215.108V215.183H78.3696V216.5H71.6679ZM83.7986 216.669C83.0131 216.666 82.3419 216.459 81.7851 216.048C81.2282 215.637 80.8023 215.038 80.5074 214.253C80.2124 213.467 80.0649 212.521 80.0649 211.414C80.0649 210.31 80.2124 209.367 80.5074 208.585C80.8057 207.803 81.2332 207.206 81.79 206.795C82.3502 206.384 83.0197 206.179 83.7986 206.179C84.5774 206.179 85.2453 206.386 85.8021 206.8C86.3589 207.211 86.7848 207.808 87.0798 208.59C87.3781 209.369 87.5273 210.31 87.5273 211.414C87.5273 212.524 87.3798 213.472 87.0848 214.258C86.7898 215.04 86.3639 215.638 85.8071 216.053C85.2503 216.464 84.5808 216.669 83.7986 216.669ZM83.7986 215.342C84.488 215.342 85.0265 215.005 85.4143 214.332C85.8054 213.66 86.001 212.687 86.001 211.414C86.001 210.569 85.9115 209.855 85.7325 209.271C85.5568 208.685 85.3033 208.241 84.9719 207.939C84.6437 207.634 84.2526 207.482 83.7986 207.482C83.1125 207.482 82.5739 207.82 82.1828 208.496C81.7917 209.172 81.5945 210.145 81.5912 211.414C81.5912 212.263 81.679 212.98 81.8547 213.567C82.0336 214.15 82.2872 214.593 82.6153 214.894C82.9434 215.192 83.3379 215.342 83.7986 215.342Z" fill="#FFBA08"/>
<path d="M119.878 216.5V215.386L123.323 211.817C123.691 211.429 123.994 211.089 124.233 210.798C124.475 210.503 124.656 210.223 124.775 209.957C124.894 209.692 124.954 209.411 124.954 209.112C124.954 208.774 124.874 208.482 124.715 208.237C124.556 207.989 124.339 207.798 124.064 207.665C123.789 207.53 123.479 207.462 123.134 207.462C122.77 207.462 122.451 207.536 122.18 207.685C121.908 207.835 121.699 208.045 121.553 208.317C121.407 208.589 121.335 208.907 121.335 209.271H119.868C119.868 208.652 120.01 208.11 120.295 207.646C120.58 207.182 120.972 206.822 121.469 206.567C121.966 206.308 122.531 206.179 123.164 206.179C123.804 206.179 124.367 206.307 124.854 206.562C125.345 206.814 125.728 207.158 126.003 207.596C126.278 208.03 126.415 208.521 126.415 209.067C126.415 209.445 126.344 209.815 126.202 210.176C126.063 210.537 125.819 210.94 125.471 211.384C125.123 211.825 124.639 212.36 124.019 212.99L121.996 215.108V215.183H126.58V216.5H119.878ZM132.327 206.318V216.5H130.786V207.859H130.726L128.29 209.45V207.979L130.83 206.318H132.327Z" fill="#FFBA08"/>
<path d="M165.893 216.5V215.386L169.339 211.817C169.707 211.429 170.01 211.089 170.249 210.798C170.491 210.503 170.671 210.223 170.79 209.957C170.91 209.692 170.969 209.411 170.969 209.112C170.969 208.774 170.89 208.482 170.731 208.237C170.572 207.989 170.355 207.798 170.08 207.665C169.804 207.53 169.495 207.462 169.15 207.462C168.785 207.462 168.467 207.536 168.195 207.685C167.924 207.835 167.715 208.045 167.569 208.317C167.423 208.589 167.35 208.907 167.35 209.271H165.884C165.884 208.652 166.026 208.11 166.311 207.646C166.596 207.182 166.987 206.822 167.484 206.567C167.982 206.308 168.547 206.179 169.18 206.179C169.819 206.179 170.383 206.307 170.87 206.562C171.361 206.814 171.743 207.158 172.018 207.596C172.294 208.03 172.431 208.521 172.431 209.067C172.431 209.445 172.36 209.815 172.217 210.176C172.078 210.537 171.835 210.94 171.487 211.384C171.138 211.825 170.655 212.36 170.035 212.99L168.011 215.108V215.183H172.595V216.5H165.893ZM174.479 216.5V215.386L177.925 211.817C178.293 211.429 178.596 211.089 178.835 210.798C179.076 210.503 179.257 210.223 179.376 209.957C179.496 209.692 179.555 209.411 179.555 209.112C179.555 208.774 179.476 208.482 179.317 208.237C179.158 207.989 178.941 207.798 178.665 207.665C178.39 207.53 178.08 207.462 177.736 207.462C177.371 207.462 177.053 207.536 176.781 207.685C176.509 207.835 176.301 208.045 176.155 208.317C176.009 208.589 175.936 208.907 175.936 209.271H174.469C174.469 208.652 174.612 208.11 174.897 207.646C175.182 207.182 175.573 206.822 176.07 206.567C176.567 206.308 177.133 206.179 177.766 206.179C178.405 206.179 178.969 206.307 179.456 206.562C179.946 206.814 180.329 207.158 180.604 207.596C180.879 208.03 181.017 208.521 181.017 209.067C181.017 209.445 180.946 209.815 180.803 210.176C180.664 210.537 180.42 210.94 180.072 211.384C179.724 211.825 179.241 212.36 178.621 212.99L176.597 215.108V215.183H181.181V216.5H174.479Z" fill="#FFBA08"/>
<path d="M211.675 216.5V215.386L215.12 211.817C215.488 211.429 215.791 211.089 216.03 210.798C216.272 210.503 216.452 210.223 216.572 209.957C216.691 209.692 216.751 209.411 216.751 209.112C216.751 208.774 216.671 208.482 216.512 208.237C216.353 207.989 216.136 207.798 215.861 207.665C215.586 207.53 215.276 207.462 214.931 207.462C214.567 207.462 214.248 207.536 213.977 207.685C213.705 207.835 213.496 208.045 213.35 208.317C213.204 208.589 213.131 208.907 213.131 209.271H211.665C211.665 208.652 211.807 208.11 212.092 207.646C212.377 207.182 212.768 206.822 213.266 206.567C213.763 206.308 214.328 206.179 214.961 206.179C215.601 206.179 216.164 206.307 216.651 206.562C217.142 206.814 217.525 207.158 217.8 207.596C218.075 208.03 218.212 208.521 218.212 209.067C218.212 209.445 218.141 209.815 217.999 210.176C217.859 210.537 217.616 210.94 217.268 211.384C216.92 211.825 216.436 212.36 215.816 212.99L213.793 215.108V215.183H218.376V216.5H211.675ZM223.805 216.639C223.123 216.639 222.513 216.522 221.976 216.286C221.442 216.051 221.02 215.724 220.708 215.307C220.4 214.886 220.234 214.399 220.211 213.845H221.772C221.792 214.147 221.893 214.409 222.075 214.631C222.261 214.849 222.503 215.018 222.801 215.138C223.099 215.257 223.431 215.317 223.795 215.317C224.196 215.317 224.551 215.247 224.859 215.108C225.171 214.969 225.415 214.775 225.59 214.526C225.766 214.274 225.854 213.984 225.854 213.656C225.854 213.315 225.766 213.015 225.59 212.756C225.418 212.495 225.164 212.289 224.83 212.14C224.498 211.991 224.097 211.916 223.626 211.916H222.766V210.663H223.626C224.004 210.663 224.336 210.595 224.621 210.46C224.909 210.324 225.134 210.135 225.297 209.893C225.459 209.647 225.54 209.361 225.54 209.033C225.54 208.718 225.469 208.444 225.327 208.212C225.188 207.977 224.989 207.793 224.73 207.661C224.475 207.528 224.173 207.462 223.825 207.462C223.494 207.462 223.184 207.523 222.896 207.646C222.611 207.765 222.379 207.937 222.2 208.163C222.021 208.385 221.924 208.652 221.911 208.963H220.425C220.441 208.413 220.604 207.929 220.912 207.511C221.223 207.094 221.634 206.767 222.145 206.532C222.655 206.297 223.222 206.179 223.845 206.179C224.498 206.179 225.062 206.307 225.536 206.562C226.013 206.814 226.381 207.15 226.639 207.571C226.901 207.992 227.03 208.453 227.027 208.953C227.03 209.523 226.871 210.007 226.55 210.405C226.232 210.803 225.807 211.069 225.277 211.205V211.285C225.953 211.388 226.477 211.656 226.848 212.09C227.223 212.524 227.408 213.063 227.405 213.706C227.408 214.266 227.252 214.768 226.938 215.212C226.626 215.656 226.2 216.006 225.66 216.261C225.12 216.513 224.501 216.639 223.805 216.639Z" fill="#FFBA08"/>
<path d="M257.716 216.5V215.386L261.161 211.817C261.529 211.429 261.832 211.089 262.071 210.798C262.313 210.503 262.493 210.223 262.613 209.957C262.732 209.692 262.792 209.411 262.792 209.112C262.792 208.774 262.712 208.482 262.553 208.237C262.394 207.989 262.177 207.798 261.902 207.665C261.627 207.53 261.317 207.462 260.972 207.462C260.608 207.462 260.289 207.536 260.018 207.685C259.746 207.835 259.537 208.045 259.391 208.317C259.245 208.589 259.172 208.907 259.172 209.271H257.706C257.706 208.652 257.848 208.11 258.133 207.646C258.418 207.182 258.809 206.822 259.307 206.567C259.804 206.308 260.369 206.179 261.002 206.179C261.642 206.179 262.205 206.307 262.692 206.562C263.183 206.814 263.566 207.158 263.841 207.596C264.116 208.03 264.253 208.521 264.253 209.067C264.253 209.445 264.182 209.815 264.04 210.176C263.9 210.537 263.657 210.94 263.309 211.384C262.961 211.825 262.477 212.36 261.857 212.99L259.834 215.108V215.183H264.417V216.5H257.716ZM265.869 214.511V213.268L270.269 206.318H271.248V208.148H270.627L267.48 213.129V213.209H273.51V214.511H265.869ZM270.697 216.5V214.134L270.706 213.567V206.318H272.163V216.5H270.697Z" fill="#FFBA08"/>
<path d="M305.846 216.5V215.386L309.291 211.817C309.659 211.429 309.962 211.089 310.201 210.798C310.443 210.503 310.623 210.223 310.743 209.957C310.862 209.692 310.922 209.411 310.922 209.112C310.922 208.774 310.842 208.482 310.683 208.237C310.524 207.989 310.307 207.798 310.032 207.665C309.757 207.53 309.447 207.462 309.102 207.462C308.737 207.462 308.419 207.536 308.147 207.685C307.876 207.835 307.667 208.045 307.521 208.317C307.375 208.589 307.302 208.907 307.302 209.271H305.836C305.836 208.652 305.978 208.11 306.263 207.646C306.548 207.182 306.939 206.822 307.437 206.567C307.934 206.308 308.499 206.179 309.132 206.179C309.772 206.179 310.335 206.307 310.822 206.562C311.313 206.814 311.696 207.158 311.971 207.596C312.246 208.03 312.383 208.521 312.383 209.067C312.383 209.445 312.312 209.815 312.169 210.176C312.03 210.537 311.787 210.94 311.439 211.384C311.091 211.825 310.607 212.36 309.987 212.99L307.964 215.108V215.183H312.547V216.5H305.846ZM317.792 216.639C317.169 216.639 316.609 216.52 316.112 216.281C315.618 216.039 315.224 215.708 314.929 215.287C314.634 214.866 314.476 214.385 314.456 213.845H315.948C315.984 214.283 316.178 214.642 316.53 214.924C316.881 215.206 317.302 215.347 317.792 215.347C318.183 215.347 318.53 215.257 318.831 215.078C319.136 214.896 319.375 214.646 319.547 214.327C319.723 214.009 319.811 213.646 319.811 213.239C319.811 212.824 319.721 212.455 319.542 212.13C319.363 211.805 319.116 211.55 318.802 211.364C318.49 211.179 318.132 211.084 317.728 211.081C317.419 211.081 317.11 211.134 316.798 211.24C316.486 211.346 316.235 211.485 316.042 211.658L314.635 211.449L315.207 206.318H320.805V207.636H316.485L316.162 210.484H316.221C316.42 210.292 316.684 210.131 317.012 210.002C317.343 209.873 317.698 209.808 318.076 209.808C318.696 209.808 319.247 209.956 319.731 210.251C320.218 210.546 320.601 210.948 320.88 211.459C321.161 211.966 321.301 212.549 321.297 213.209C321.301 213.868 321.151 214.457 320.85 214.974C320.552 215.491 320.137 215.898 319.607 216.197C319.08 216.492 318.475 216.639 317.792 216.639Z" fill="white"/>
<path d="M72.1327 263.5V262.386L75.578 258.817C75.9459 258.429 76.2492 258.089 76.4878 257.798C76.7298 257.503 76.9104 257.223 77.0297 256.957C77.1491 256.692 77.2087 256.411 77.2087 256.112C77.2087 255.774 77.1292 255.482 76.9701 255.237C76.811 254.989 76.5939 254.798 76.3188 254.665C76.0437 254.53 75.7338 254.462 75.3891 254.462C75.0245 254.462 74.7064 254.536 74.4346 254.685C74.1628 254.835 73.954 255.045 73.8081 255.317C73.6623 255.589 73.5894 255.907 73.5894 256.271H72.1228C72.1228 255.652 72.2653 255.11 72.5503 254.646C72.8354 254.182 73.2265 253.822 73.7236 253.567C74.2208 253.308 74.7859 253.179 75.4189 253.179C76.0586 253.179 76.6221 253.307 77.1093 253.562C77.5998 253.814 77.9826 254.158 78.2577 254.596C78.5328 255.03 78.6704 255.521 78.6704 256.067C78.6704 256.445 78.5991 256.815 78.4566 257.176C78.3174 257.537 78.0738 257.94 77.7258 258.384C77.3778 258.825 76.8939 259.36 76.2741 259.99L74.2506 262.108V262.183H78.8344V263.5H72.1327ZM81.0617 263.5L85.5063 254.71V254.636H80.3657V253.318H87.0972V254.68L82.6675 263.5H81.0617Z" fill="#3C8E20"/>
<path d="M118.764 263.5V262.386L122.209 258.817C122.577 258.429 122.88 258.089 123.119 257.798C123.361 257.503 123.541 257.223 123.661 256.957C123.78 256.692 123.84 256.411 123.84 256.112C123.84 255.774 123.76 255.482 123.601 255.237C123.442 254.989 123.225 254.798 122.95 254.665C122.675 254.53 122.365 254.462 122.02 254.462C121.655 254.462 121.337 254.536 121.065 254.685C120.794 254.835 120.585 255.045 120.439 255.317C120.293 255.589 120.22 255.907 120.22 256.271H118.754C118.754 255.652 118.896 255.11 119.181 254.646C119.466 254.182 119.857 253.822 120.354 253.567C120.852 253.308 121.417 253.179 122.05 253.179C122.689 253.179 123.253 253.307 123.74 253.562C124.231 253.814 124.613 254.158 124.889 254.596C125.164 255.03 125.301 255.521 125.301 256.067C125.301 256.445 125.23 256.815 125.087 257.176C124.948 257.537 124.705 257.94 124.357 258.384C124.009 258.825 123.525 259.36 122.905 259.99L120.881 262.108V262.183H125.465V263.5H118.764ZM130.79 263.639C130.077 263.639 129.448 263.517 128.901 263.271C128.357 263.026 127.931 262.688 127.623 262.257C127.315 261.826 127.162 261.336 127.166 260.786C127.162 260.355 127.25 259.959 127.429 259.597C127.611 259.233 127.858 258.929 128.17 258.688C128.481 258.442 128.829 258.286 129.214 258.22V258.161C128.707 258.038 128.301 257.766 127.996 257.345C127.691 256.924 127.54 256.44 127.543 255.893C127.54 255.373 127.678 254.909 127.956 254.501C128.238 254.09 128.624 253.767 129.114 253.532C129.605 253.297 130.163 253.179 130.79 253.179C131.41 253.179 131.963 253.298 132.45 253.537C132.941 253.772 133.327 254.095 133.609 254.506C133.89 254.914 134.033 255.376 134.036 255.893C134.033 256.44 133.877 256.924 133.569 257.345C133.261 257.766 132.86 258.038 132.366 258.161V258.22C132.747 258.286 133.09 258.442 133.395 258.688C133.703 258.929 133.948 259.233 134.131 259.597C134.316 259.959 134.411 260.355 134.414 260.786C134.411 261.336 134.255 261.826 133.947 262.257C133.639 262.688 133.211 263.026 132.664 263.271C132.121 263.517 131.496 263.639 130.79 263.639ZM130.79 262.381C131.211 262.381 131.575 262.312 131.884 262.173C132.192 262.03 132.43 261.833 132.6 261.581C132.769 261.326 132.855 261.027 132.858 260.686C132.855 260.331 132.762 260.018 132.58 259.746C132.401 259.475 132.157 259.261 131.849 259.105C131.541 258.949 131.188 258.871 130.79 258.871C130.389 258.871 130.033 258.949 129.721 259.105C129.409 259.261 129.164 259.475 128.985 259.746C128.806 260.018 128.718 260.331 128.722 260.686C128.718 261.027 128.8 261.326 128.965 261.581C129.134 261.833 129.375 262.03 129.686 262.173C129.998 262.312 130.366 262.381 130.79 262.381ZM130.79 257.643C131.128 257.643 131.428 257.576 131.69 257.44C131.952 257.304 132.157 257.115 132.306 256.873C132.459 256.631 132.537 256.348 132.54 256.023C132.537 255.705 132.46 255.426 132.311 255.188C132.165 254.949 131.962 254.765 131.7 254.636C131.438 254.503 131.135 254.437 130.79 254.437C130.439 254.437 130.13 254.503 129.865 254.636C129.603 254.765 129.399 254.949 129.254 255.188C129.108 255.426 129.037 255.705 129.04 256.023C129.037 256.348 129.109 256.631 129.259 256.873C129.408 257.115 129.613 257.304 129.875 257.44C130.14 257.576 130.445 257.643 130.79 257.643Z" fill="#3C8E20"/>
<path d="M165.736 263.5V262.386L169.182 258.817C169.549 258.429 169.853 258.089 170.091 257.798C170.333 257.503 170.514 257.223 170.633 256.957C170.753 256.692 170.812 256.411 170.812 256.112C170.812 255.774 170.733 255.482 170.574 255.237C170.415 254.989 170.197 254.798 169.922 254.665C169.647 254.53 169.337 254.462 168.993 254.462C168.628 254.462 168.31 254.536 168.038 254.685C167.766 254.835 167.557 255.045 167.412 255.317C167.266 255.589 167.193 255.907 167.193 256.271H165.726C165.726 255.652 165.869 255.11 166.154 254.646C166.439 254.182 166.83 253.822 167.327 253.567C167.824 253.308 168.389 253.179 169.022 253.179C169.662 253.179 170.226 253.307 170.713 253.562C171.203 253.814 171.586 254.158 171.861 254.596C172.136 255.03 172.274 255.521 172.274 256.067C172.274 256.445 172.203 256.815 172.06 257.176C171.921 257.537 171.677 257.94 171.329 258.384C170.981 258.825 170.497 259.36 169.878 259.99L167.854 262.108V262.183H172.438V263.5H165.736ZM177.708 253.179C178.162 253.182 178.609 253.265 179.05 253.428C179.491 253.59 179.889 253.855 180.243 254.223C180.601 254.591 180.886 255.088 181.098 255.714C181.314 256.338 181.423 257.113 181.427 258.041C181.427 258.933 181.337 259.727 181.158 260.423C180.979 261.115 180.722 261.7 180.388 262.178C180.056 262.655 179.653 263.018 179.179 263.266C178.705 263.515 178.172 263.639 177.579 263.639C176.972 263.639 176.433 263.52 175.963 263.281C175.492 263.043 175.109 262.713 174.814 262.292C174.519 261.868 174.335 261.38 174.263 260.83H175.779C175.878 261.268 176.08 261.622 176.385 261.894C176.694 262.163 177.091 262.297 177.579 262.297C178.324 262.297 178.906 261.972 179.324 261.322C179.741 260.67 179.952 259.758 179.955 258.588H179.875C179.703 258.873 179.488 259.118 179.229 259.324C178.974 259.529 178.687 259.688 178.369 259.801C178.051 259.914 177.711 259.97 177.35 259.97C176.763 259.97 176.23 259.826 175.749 259.538C175.268 259.249 174.886 258.853 174.601 258.349C174.316 257.846 174.173 257.271 174.173 256.624C174.173 255.981 174.319 255.398 174.611 254.874C174.906 254.351 175.316 253.936 175.843 253.631C176.374 253.323 176.995 253.172 177.708 253.179ZM177.713 254.472C177.325 254.472 176.975 254.568 176.664 254.76C176.356 254.949 176.112 255.206 175.933 255.531C175.754 255.852 175.665 256.21 175.665 256.604C175.665 256.999 175.751 257.357 175.923 257.678C176.099 257.996 176.337 258.25 176.639 258.439C176.944 258.625 177.292 258.717 177.683 258.717C177.975 258.717 178.246 258.661 178.498 258.548C178.75 258.436 178.971 258.28 179.16 258.081C179.348 257.879 179.496 257.65 179.602 257.395C179.708 257.14 179.761 256.871 179.761 256.589C179.761 256.215 179.672 255.867 179.493 255.545C179.317 255.224 179.075 254.965 178.767 254.77C178.459 254.571 178.107 254.472 177.713 254.472Z" fill="#3C8E20"/>
<path d="M214.994 263.639C214.311 263.639 213.701 263.522 213.164 263.286C212.631 263.051 212.208 262.724 211.897 262.307C211.588 261.886 211.423 261.399 211.399 260.845H212.96C212.98 261.147 213.081 261.409 213.264 261.631C213.449 261.849 213.691 262.018 213.99 262.138C214.288 262.257 214.619 262.317 214.984 262.317C215.385 262.317 215.74 262.247 216.048 262.108C216.359 261.969 216.603 261.775 216.779 261.526C216.954 261.274 217.042 260.984 217.042 260.656C217.042 260.315 216.954 260.015 216.779 259.756C216.606 259.495 216.353 259.289 216.018 259.14C215.687 258.991 215.286 258.916 214.815 258.916H213.955V257.663H214.815C215.193 257.663 215.524 257.595 215.809 257.46C216.098 257.324 216.323 257.135 216.485 256.893C216.648 256.647 216.729 256.361 216.729 256.033C216.729 255.718 216.658 255.444 216.515 255.212C216.376 254.977 216.177 254.793 215.919 254.661C215.663 254.528 215.362 254.462 215.014 254.462C214.682 254.462 214.372 254.523 214.084 254.646C213.799 254.765 213.567 254.937 213.388 255.163C213.209 255.385 213.113 255.652 213.1 255.963H211.613C211.63 255.413 211.792 254.929 212.1 254.511C212.412 254.094 212.823 253.767 213.333 253.532C213.844 253.297 214.411 253.179 215.034 253.179C215.687 253.179 216.25 253.307 216.724 253.562C217.201 253.814 217.569 254.15 217.828 254.571C218.09 254.992 218.219 255.453 218.215 255.953C218.219 256.523 218.06 257.007 217.738 257.405C217.42 257.803 216.996 258.069 216.465 258.205V258.285C217.142 258.388 217.665 258.656 218.036 259.09C218.411 259.524 218.597 260.063 218.593 260.706C218.597 261.266 218.441 261.768 218.126 262.212C217.814 262.656 217.389 263.006 216.848 263.261C216.308 263.513 215.69 263.639 214.994 263.639ZM224.017 263.669C223.232 263.666 222.561 263.459 222.004 263.048C221.447 262.637 221.021 262.038 220.726 261.253C220.431 260.467 220.284 259.521 220.284 258.414C220.284 257.31 220.431 256.367 220.726 255.585C221.024 254.803 221.452 254.206 222.009 253.795C222.569 253.384 223.238 253.179 224.017 253.179C224.796 253.179 225.464 253.386 226.021 253.8C226.578 254.211 227.004 254.808 227.299 255.59C227.597 256.369 227.746 257.31 227.746 258.414C227.746 259.524 227.599 260.472 227.304 261.258C227.009 262.04 226.583 262.638 226.026 263.053C225.469 263.464 224.8 263.669 224.017 263.669ZM224.017 262.342C224.707 262.342 225.245 262.005 225.633 261.332C226.024 260.66 226.22 259.687 226.22 258.414C226.22 257.569 226.13 256.855 225.951 256.271C225.776 255.685 225.522 255.241 225.191 254.939C224.862 254.634 224.471 254.482 224.017 254.482C223.331 254.482 222.793 254.82 222.402 255.496C222.01 256.172 221.813 257.145 221.81 258.414C221.81 259.263 221.898 259.98 222.073 260.567C222.252 261.15 222.506 261.593 222.834 261.894C223.162 262.192 223.557 262.342 224.017 262.342Z" fill="#3C8E20"/>
<path d="M262.204 263.639C261.521 263.639 260.911 263.522 260.374 263.286C259.841 263.051 259.418 262.724 259.107 262.307C258.798 261.886 258.633 261.399 258.609 260.845H260.17C260.19 261.147 260.291 261.409 260.474 261.631C260.659 261.849 260.901 262.018 261.2 262.138C261.498 262.257 261.829 262.317 262.194 262.317C262.595 262.317 262.95 262.247 263.258 262.108C263.569 261.969 263.813 261.775 263.989 261.526C264.164 261.274 264.252 260.984 264.252 260.656C264.252 260.315 264.164 260.015 263.989 259.756C263.816 259.495 263.563 259.289 263.228 259.14C262.897 258.991 262.496 258.916 262.025 258.916H261.165V257.663H262.025C262.403 257.663 262.734 257.595 263.019 257.46C263.308 257.324 263.533 257.135 263.695 256.893C263.858 256.647 263.939 256.361 263.939 256.033C263.939 255.718 263.868 255.444 263.725 255.212C263.586 254.977 263.387 254.793 263.129 254.661C262.873 254.528 262.572 254.462 262.224 254.462C261.892 254.462 261.582 254.523 261.294 254.646C261.009 254.765 260.777 254.937 260.598 255.163C260.419 255.385 260.323 255.652 260.31 255.963H258.823C258.84 255.413 259.002 254.929 259.31 254.511C259.622 254.094 260.033 253.767 260.543 253.532C261.054 253.297 261.621 253.179 262.244 253.179C262.897 253.179 263.46 253.307 263.934 253.562C264.411 253.814 264.779 254.15 265.038 254.571C265.299 254.992 265.429 255.453 265.425 255.953C265.429 256.523 265.27 257.007 264.948 257.405C264.63 257.803 264.206 258.069 263.675 258.205V258.285C264.352 258.388 264.875 258.656 265.246 259.09C265.621 259.524 265.807 260.063 265.803 260.706C265.807 261.266 265.651 261.768 265.336 262.212C265.024 262.656 264.598 263.006 264.058 263.261C263.518 263.513 262.9 263.639 262.204 263.639ZM271.545 253.318V263.5H270.004V254.859H269.945L267.509 256.45V254.979L270.049 253.318H271.545Z" fill="#3C8E20"/>
<rect x="16" y="240.5" width="35" height="35" rx="5" fill="#65C145"/>
<path opacity="0.2" d="M13 243.5C13 240.739 15.2386 238.5 18 238.5H329C331.761 238.5 334 240.739 334 243.5V272.5C334 275.261 331.761 277.5 329 277.5H18C15.2386 277.5 13 275.261 13 272.5V243.5Z" fill="#39BB0B"/>
<path d="M25.7362 263.5V262.386L29.1816 258.817C29.5494 258.429 29.8527 258.089 30.0914 257.798C30.3333 257.503 30.5139 257.223 30.6333 256.957C30.7526 256.692 30.8122 256.411 30.8122 256.112C30.8122 255.774 30.7327 255.482 30.5736 255.237C30.4145 254.989 30.1974 254.798 29.9223 254.665C29.6472 254.53 29.3373 254.462 28.9926 254.462C28.628 254.462 28.3099 254.536 28.0381 254.685C27.7663 254.835 27.5575 255.045 27.4117 255.317C27.2658 255.589 27.1929 255.907 27.1929 256.271H25.7263C25.7263 255.652 25.8688 255.11 26.1539 254.646C26.4389 254.182 26.83 253.822 27.3271 253.567C27.8243 253.308 28.3894 253.179 29.0225 253.179C29.6621 253.179 30.2256 253.307 30.7128 253.562C31.2033 253.814 31.5861 254.158 31.8612 254.596C32.1363 255.03 32.2739 255.521 32.2739 256.067C32.2739 256.445 32.2026 256.815 32.0601 257.176C31.9209 257.537 31.6773 257.94 31.3293 258.384C30.9813 258.825 30.4974 259.36 29.8776 259.99L27.8541 262.108V262.183H32.4379V263.5H25.7362ZM37.8769 263.639C37.4228 263.633 36.9753 263.55 36.5345 263.391C36.097 263.232 35.6993 262.966 35.3414 262.595C34.9834 262.224 34.6967 261.725 34.4813 261.099C34.2691 260.472 34.1631 259.69 34.1631 258.752C34.1631 257.864 34.2509 257.075 34.4266 256.386C34.6056 255.696 34.8624 255.115 35.1972 254.641C35.5319 254.163 35.9363 253.8 36.4102 253.552C36.8842 253.303 37.4162 253.179 38.0061 253.179C38.6127 253.179 39.1512 253.298 39.6219 253.537C40.0925 253.776 40.4737 254.105 40.7654 254.526C41.0603 254.947 41.2476 255.426 41.3271 255.963H39.8108C39.7081 255.539 39.5042 255.192 39.1993 254.924C38.8944 254.656 38.4967 254.521 38.0061 254.521C37.2604 254.521 36.6787 254.846 36.2611 255.496C35.8468 256.145 35.638 257.049 35.6347 258.205H35.7093C35.8849 257.917 36.1003 257.672 36.3556 257.469C36.6141 257.264 36.9024 257.107 37.2206 256.997C37.5421 256.884 37.8802 256.828 38.2348 256.828C38.8248 256.828 39.3584 256.972 39.8357 257.261C40.3163 257.546 40.6991 257.94 40.9841 258.444C41.2691 258.948 41.4117 259.524 41.4117 260.174C41.4117 260.824 41.2642 261.412 40.9692 261.939C40.6775 262.466 40.2665 262.884 39.7362 263.192C39.2059 263.497 38.5861 263.646 37.8769 263.639ZM37.8719 262.347C38.263 262.347 38.6127 262.25 38.9209 262.058C39.2291 261.866 39.4727 261.607 39.6517 261.283C39.8307 260.958 39.9202 260.595 39.9202 260.194C39.9202 259.803 39.8324 259.446 39.6567 259.125C39.4843 258.804 39.2457 258.548 38.9408 258.359C38.6392 258.17 38.2945 258.076 37.9067 258.076C37.6117 258.076 37.3383 258.132 37.0864 258.245C36.8378 258.358 36.6191 258.513 36.4301 258.712C36.2412 258.911 36.0921 259.14 35.9827 259.398C35.8766 259.654 35.8236 259.924 35.8236 260.209C35.8236 260.59 35.9114 260.943 36.0871 261.268C36.2661 261.593 36.5097 261.854 36.8179 262.053C37.1295 262.249 37.4808 262.347 37.8719 262.347Z" fill="white"/>
<rect x="37" y="298.5" width="16" height="16" rx="2" fill="#E2251A" fill-opacity="0.8"/>
<path d="M66.6523 302.934V308.477C66.6523 309.082 66.5293 309.621 66.2832 310.094C66.041 310.566 65.6738 310.939 65.1816 311.213C64.6895 311.482 64.0723 311.617 63.3301 311.617C62.2715 311.617 61.4648 311.33 60.9102 310.756C60.3594 310.182 60.084 309.414 60.084 308.453V302.934H61.0859V308.482C61.0859 309.209 61.2773 309.77 61.6602 310.164C62.0469 310.559 62.623 310.756 63.3887 310.756C63.9121 310.756 64.3398 310.662 64.6719 310.475C65.0078 310.283 65.2559 310.018 65.416 309.678C65.5801 309.334 65.6621 308.938 65.6621 308.488V302.934H66.6523ZM71.0645 311.617C70.252 311.617 69.6074 311.34 69.1309 310.785C68.6582 310.23 68.4219 309.406 68.4219 308.312C68.4219 307.207 68.6641 306.373 69.1484 305.811C69.6328 305.244 70.2773 304.961 71.082 304.961C71.4219 304.961 71.7188 305.006 71.9727 305.096C72.2266 305.186 72.4453 305.307 72.6289 305.459C72.8125 305.607 72.9668 305.777 73.0918 305.969H73.1621C73.1465 305.848 73.1309 305.682 73.1152 305.471C73.0996 305.26 73.0918 305.088 73.0918 304.955V302.383H74.0645V311.5H73.2793L73.1328 310.586H73.0918C72.9707 310.777 72.8164 310.951 72.6289 311.107C72.4453 311.264 72.2246 311.389 71.9668 311.482C71.7129 311.572 71.4121 311.617 71.0645 311.617ZM71.2168 310.809C71.9043 310.809 72.3906 310.613 72.6758 310.223C72.9609 309.832 73.1035 309.252 73.1035 308.482V308.307C73.1035 307.49 72.9668 306.863 72.6934 306.426C72.4238 305.988 71.9316 305.77 71.2168 305.77C70.6191 305.77 70.1719 306 69.875 306.461C69.5781 306.918 69.4297 307.543 69.4297 308.336C69.4297 309.125 69.5762 309.734 69.8691 310.164C70.166 310.594 70.6152 310.809 71.2168 310.809ZM80.2812 309.742C80.2812 310.152 80.1777 310.498 79.9707 310.779C79.7676 311.057 79.4746 311.266 79.0918 311.406C78.7129 311.547 78.2598 311.617 77.7324 311.617C77.2832 311.617 76.8945 311.582 76.5664 311.512C76.2383 311.441 75.9512 311.342 75.7051 311.213V310.316C75.9668 310.445 76.2793 310.562 76.6426 310.668C77.0059 310.773 77.377 310.826 77.7559 310.826C78.3105 310.826 78.7129 310.736 78.9629 310.557C79.2129 310.377 79.3379 310.133 79.3379 309.824C79.3379 309.648 79.2871 309.494 79.1855 309.361C79.0879 309.225 78.9219 309.094 78.6875 308.969C78.4531 308.84 78.1289 308.699 77.7148 308.547C77.3047 308.391 76.9492 308.236 76.6484 308.084C76.3516 307.928 76.1211 307.738 75.957 307.516C75.7969 307.293 75.7168 307.004 75.7168 306.648C75.7168 306.105 75.9355 305.689 76.373 305.4C76.8145 305.107 77.3926 304.961 78.1074 304.961C78.4941 304.961 78.8555 305 79.1914 305.078C79.5312 305.152 79.8477 305.254 80.1406 305.383L79.8125 306.162C79.5469 306.049 79.2637 305.953 78.9629 305.875C78.6621 305.797 78.3555 305.758 78.043 305.758C77.5938 305.758 77.248 305.832 77.0059 305.98C76.7676 306.129 76.6484 306.332 76.6484 306.59C76.6484 306.789 76.7031 306.953 76.8125 307.082C76.9258 307.211 77.1055 307.332 77.3516 307.445C77.5977 307.559 77.9219 307.691 78.3242 307.844C78.7266 307.992 79.0742 308.146 79.3672 308.307C79.6602 308.463 79.8848 308.654 80.041 308.881C80.2012 309.104 80.2812 309.391 80.2812 309.742ZM87.3828 308.277C87.3828 308.805 87.3145 309.275 87.1777 309.689C87.041 310.104 86.8438 310.453 86.5859 310.738C86.3281 311.023 86.0156 311.242 85.6484 311.395C85.2852 311.543 84.873 311.617 84.4121 311.617C83.9824 311.617 83.5879 311.543 83.2285 311.395C82.873 311.242 82.5645 311.023 82.3027 310.738C82.0449 310.453 81.8438 310.104 81.6992 309.689C81.5586 309.275 81.4883 308.805 81.4883 308.277C81.4883 307.574 81.6074 306.977 81.8457 306.484C82.084 305.988 82.4238 305.611 82.8652 305.354C83.3105 305.092 83.8398 304.961 84.4531 304.961C85.0391 304.961 85.5508 305.092 85.9883 305.354C86.4297 305.615 86.7715 305.994 87.0137 306.49C87.2598 306.982 87.3828 307.578 87.3828 308.277ZM82.4961 308.277C82.4961 308.793 82.5645 309.24 82.7012 309.619C82.8379 309.998 83.0488 310.291 83.334 310.498C83.6191 310.705 83.9863 310.809 84.4355 310.809C84.8809 310.809 85.2461 310.705 85.5312 310.498C85.8203 310.291 86.0332 309.998 86.1699 309.619C86.3066 309.24 86.375 308.793 86.375 308.277C86.375 307.766 86.3066 307.324 86.1699 306.953C86.0332 306.578 85.8223 306.289 85.5371 306.086C85.252 305.883 84.8828 305.781 84.4297 305.781C83.7617 305.781 83.2715 306.002 82.959 306.443C82.6504 306.885 82.4961 307.496 82.4961 308.277ZM90.043 311.5H89.0645V302.383H90.043V311.5ZM93.8926 314.383C93.0488 314.383 92.3984 314.225 91.9414 313.908C91.4844 313.596 91.2559 313.156 91.2559 312.59C91.2559 312.188 91.3828 311.844 91.6367 311.559C91.8945 311.273 92.25 311.084 92.7031 310.99C92.5352 310.912 92.3906 310.795 92.2695 310.639C92.1523 310.482 92.0938 310.303 92.0938 310.1C92.0938 309.865 92.1582 309.66 92.2871 309.484C92.4199 309.305 92.6211 309.133 92.8906 308.969C92.5547 308.832 92.2812 308.602 92.0703 308.277C91.8633 307.949 91.7598 307.568 91.7598 307.135C91.7598 306.674 91.8555 306.281 92.0469 305.957C92.2383 305.629 92.5156 305.379 92.8789 305.207C93.2422 305.035 93.6816 304.949 94.1973 304.949C94.3105 304.949 94.4238 304.955 94.5371 304.967C94.6543 304.975 94.7656 304.988 94.8711 305.008C94.9766 305.023 95.0684 305.043 95.1465 305.066H97.3496V305.693L96.166 305.84C96.2832 305.992 96.3809 306.176 96.459 306.391C96.5371 306.605 96.5762 306.844 96.5762 307.105C96.5762 307.746 96.3594 308.256 95.9258 308.635C95.4922 309.01 94.8965 309.197 94.1387 309.197C93.959 309.197 93.7754 309.182 93.5879 309.15C93.3965 309.256 93.25 309.373 93.1484 309.502C93.0508 309.631 93.002 309.779 93.002 309.947C93.002 310.072 93.0391 310.172 93.1133 310.246C93.1914 310.32 93.3027 310.375 93.4473 310.41C93.5918 310.441 93.7656 310.457 93.9688 310.457H95.0996C95.7988 310.457 96.334 310.604 96.7051 310.896C97.0801 311.189 97.2676 311.617 97.2676 312.18C97.2676 312.891 96.9785 313.436 96.4004 313.814C95.8223 314.193 94.9863 314.383 93.8926 314.383ZM93.9219 313.621C94.4531 313.621 94.8926 313.566 95.2402 313.457C95.5918 313.352 95.8535 313.197 96.0254 312.994C96.2012 312.795 96.2891 312.557 96.2891 312.279C96.2891 312.021 96.2305 311.826 96.1133 311.693C95.9961 311.564 95.8242 311.479 95.5977 311.436C95.3711 311.389 95.0938 311.365 94.7656 311.365H93.6523C93.3633 311.365 93.1113 311.41 92.8965 311.5C92.6816 311.59 92.5156 311.723 92.3984 311.898C92.2852 312.074 92.2285 312.293 92.2285 312.555C92.2285 312.902 92.375 313.166 92.668 313.346C92.9609 313.529 93.3789 313.621 93.9219 313.621ZM94.1738 308.488C94.6387 308.488 94.9883 308.371 95.2227 308.137C95.457 307.902 95.5742 307.561 95.5742 307.111C95.5742 306.631 95.4551 306.271 95.2168 306.033C94.9785 305.791 94.627 305.67 94.1621 305.67C93.7168 305.67 93.373 305.795 93.1309 306.045C92.8926 306.291 92.7734 306.652 92.7734 307.129C92.7734 307.566 92.8945 307.902 93.1367 308.137C93.3789 308.371 93.7246 308.488 94.1738 308.488ZM100.689 310.82C100.85 310.82 101.014 310.807 101.182 310.779C101.35 310.752 101.486 310.719 101.592 310.68V311.436C101.479 311.486 101.32 311.529 101.117 311.564C100.918 311.6 100.723 311.617 100.531 311.617C100.191 311.617 99.8828 311.559 99.6055 311.441C99.3281 311.32 99.1055 311.117 98.9375 310.832C98.7734 310.547 98.6914 310.152 98.6914 309.648V305.84H97.7773V305.365L98.6973 304.984L99.084 303.59H99.6699V305.078H101.551V305.84H99.6699V309.619C99.6699 310.021 99.7617 310.322 99.9453 310.521C100.133 310.721 100.381 310.82 100.689 310.82Z" fill="black"/>
<rect x="134" y="298.5" width="16" height="16" rx="2" fill="#FFBA08" fill-opacity="0.8"/>
<path d="M160.213 311.5H159.264V305.43C159.264 305.199 159.264 305.002 159.264 304.838C159.268 304.67 159.271 304.518 159.275 304.381C159.283 304.24 159.293 304.098 159.305 303.953C159.184 304.078 159.07 304.186 158.965 304.275C158.859 304.361 158.729 304.469 158.572 304.598L157.594 305.383L157.084 304.721L159.404 302.934H160.213V311.5ZM170.027 304.961C170.828 304.961 171.467 305.236 171.943 305.787C172.42 306.338 172.658 307.166 172.658 308.271C172.658 309.002 172.549 309.615 172.33 310.111C172.111 310.607 171.803 310.982 171.404 311.236C171.01 311.49 170.543 311.617 170.004 311.617C169.664 311.617 169.365 311.572 169.107 311.482C168.85 311.393 168.629 311.271 168.445 311.119C168.262 310.967 168.109 310.801 167.988 310.621H167.918C167.93 310.773 167.943 310.957 167.959 311.172C167.979 311.387 167.988 311.574 167.988 311.734V314.371H167.01V305.078H167.812L167.941 306.027H167.988C168.113 305.832 168.266 305.654 168.445 305.494C168.625 305.33 168.844 305.201 169.102 305.107C169.363 305.01 169.672 304.961 170.027 304.961ZM169.857 305.781C169.412 305.781 169.053 305.867 168.779 306.039C168.51 306.211 168.312 306.469 168.188 306.812C168.062 307.152 167.996 307.58 167.988 308.096V308.283C167.988 308.826 168.047 309.285 168.164 309.66C168.285 310.035 168.482 310.32 168.756 310.516C169.033 310.711 169.404 310.809 169.869 310.809C170.268 310.809 170.6 310.701 170.865 310.486C171.131 310.271 171.328 309.973 171.457 309.59C171.59 309.203 171.656 308.76 171.656 308.26C171.656 307.502 171.508 306.9 171.211 306.455C170.918 306.006 170.467 305.781 169.857 305.781ZM175.336 311.5H174.357V302.383H175.336V311.5ZM179.795 304.973C180.561 304.973 181.129 305.145 181.5 305.488C181.871 305.832 182.057 306.381 182.057 307.135V311.5H181.348L181.16 310.551H181.113C180.934 310.785 180.746 310.982 180.551 311.143C180.355 311.299 180.129 311.418 179.871 311.5C179.617 311.578 179.305 311.617 178.934 311.617C178.543 311.617 178.195 311.549 177.891 311.412C177.59 311.275 177.352 311.068 177.176 310.791C177.004 310.514 176.918 310.162 176.918 309.736C176.918 309.096 177.172 308.604 177.68 308.26C178.188 307.916 178.961 307.729 180 307.697L181.107 307.65V307.258C181.107 306.703 180.988 306.314 180.75 306.092C180.512 305.869 180.176 305.758 179.742 305.758C179.406 305.758 179.086 305.807 178.781 305.904C178.477 306.002 178.188 306.117 177.914 306.25L177.615 305.512C177.904 305.363 178.236 305.236 178.611 305.131C178.986 305.025 179.381 304.973 179.795 304.973ZM181.096 308.336L180.117 308.377C179.316 308.408 178.752 308.539 178.424 308.77C178.096 309 177.932 309.326 177.932 309.748C177.932 310.115 178.043 310.387 178.266 310.562C178.488 310.738 178.783 310.826 179.15 310.826C179.721 310.826 180.188 310.668 180.551 310.352C180.914 310.035 181.096 309.561 181.096 308.928V308.336ZM186.346 311.617C185.533 311.617 184.889 311.34 184.412 310.785C183.939 310.23 183.703 309.406 183.703 308.312C183.703 307.207 183.945 306.373 184.43 305.811C184.914 305.244 185.559 304.961 186.363 304.961C186.703 304.961 187 305.006 187.254 305.096C187.508 305.186 187.727 305.307 187.91 305.459C188.094 305.607 188.248 305.777 188.373 305.969H188.443C188.428 305.848 188.412 305.682 188.396 305.471C188.381 305.26 188.373 305.088 188.373 304.955V302.383H189.346V311.5H188.561L188.414 310.586H188.373C188.252 310.777 188.098 310.951 187.91 311.107C187.727 311.264 187.506 311.389 187.248 311.482C186.994 311.572 186.693 311.617 186.346 311.617ZM186.498 310.809C187.186 310.809 187.672 310.613 187.957 310.223C188.242 309.832 188.385 309.252 188.385 308.482V308.307C188.385 307.49 188.248 306.863 187.975 306.426C187.705 305.988 187.213 305.77 186.498 305.77C185.9 305.77 185.453 306 185.156 306.461C184.859 306.918 184.711 307.543 184.711 308.336C184.711 309.125 184.857 309.734 185.15 310.164C185.447 310.594 185.896 310.809 186.498 310.809ZM195.562 309.742C195.562 310.152 195.459 310.498 195.252 310.779C195.049 311.057 194.756 311.266 194.373 311.406C193.994 311.547 193.541 311.617 193.014 311.617C192.564 311.617 192.176 311.582 191.848 311.512C191.52 311.441 191.232 311.342 190.986 311.213V310.316C191.248 310.445 191.561 310.562 191.924 310.668C192.287 310.773 192.658 310.826 193.037 310.826C193.592 310.826 193.994 310.736 194.244 310.557C194.494 310.377 194.619 310.133 194.619 309.824C194.619 309.648 194.568 309.494 194.467 309.361C194.369 309.225 194.203 309.094 193.969 308.969C193.734 308.84 193.41 308.699 192.996 308.547C192.586 308.391 192.23 308.236 191.93 308.084C191.633 307.928 191.402 307.738 191.238 307.516C191.078 307.293 190.998 307.004 190.998 306.648C190.998 306.105 191.217 305.689 191.654 305.4C192.096 305.107 192.674 304.961 193.389 304.961C193.775 304.961 194.137 305 194.473 305.078C194.812 305.152 195.129 305.254 195.422 305.383L195.094 306.162C194.828 306.049 194.545 305.953 194.244 305.875C193.943 305.797 193.637 305.758 193.324 305.758C192.875 305.758 192.529 305.832 192.287 305.98C192.049 306.129 191.93 306.332 191.93 306.59C191.93 306.789 191.984 306.953 192.094 307.082C192.207 307.211 192.387 307.332 192.633 307.445C192.879 307.559 193.203 307.691 193.605 307.844C194.008 307.992 194.355 308.146 194.648 308.307C194.941 308.463 195.166 308.654 195.322 308.881C195.482 309.104 195.562 309.391 195.562 309.742ZM202.318 310.82C202.479 310.82 202.643 310.807 202.811 310.779C202.979 310.752 203.115 310.719 203.221 310.68V311.436C203.107 311.486 202.949 311.529 202.746 311.564C202.547 311.6 202.352 311.617 202.16 311.617C201.82 311.617 201.512 311.559 201.234 311.441C200.957 311.32 200.734 311.117 200.566 310.832C200.402 310.547 200.32 310.152 200.32 309.648V305.84H199.406V305.365L200.326 304.984L200.713 303.59H201.299V305.078H203.18V305.84H201.299V309.619C201.299 310.021 201.391 310.322 201.574 310.521C201.762 310.721 202.01 310.82 202.318 310.82ZM205.494 305.078V311.5H204.521V305.078H205.494ZM205.02 302.676C205.18 302.676 205.316 302.729 205.43 302.834C205.547 302.936 205.605 303.096 205.605 303.314C205.605 303.529 205.547 303.689 205.43 303.795C205.316 303.9 205.18 303.953 205.02 303.953C204.852 303.953 204.711 303.9 204.598 303.795C204.488 303.689 204.434 303.529 204.434 303.314C204.434 303.096 204.488 302.936 204.598 302.834C204.711 302.729 204.852 302.676 205.02 302.676ZM208.535 311.5H207.557V302.383H208.535V311.5ZM211.564 302.383V304.662C211.564 304.924 211.557 305.178 211.541 305.424C211.529 305.67 211.52 305.861 211.512 305.998H211.564C211.74 305.709 211.994 305.465 212.326 305.266C212.658 305.066 213.082 304.967 213.598 304.967C214.402 304.967 215.043 305.246 215.52 305.805C216 306.359 216.24 307.186 216.24 308.283C216.24 309.006 216.131 309.615 215.912 310.111C215.693 310.607 215.385 310.982 214.986 311.236C214.588 311.49 214.117 311.617 213.574 311.617C213.066 311.617 212.648 311.523 212.32 311.336C211.996 311.145 211.746 310.912 211.57 310.639H211.494L211.295 311.5H210.592V302.383H211.564ZM213.439 305.781C212.975 305.781 212.605 305.873 212.332 306.057C212.059 306.236 211.861 306.51 211.74 306.877C211.623 307.24 211.564 307.701 211.564 308.26V308.312C211.564 309.121 211.699 309.74 211.969 310.17C212.238 310.596 212.729 310.809 213.439 310.809C214.037 310.809 214.484 310.59 214.781 310.152C215.082 309.715 215.232 309.09 215.232 308.277C215.232 307.449 215.084 306.826 214.787 306.408C214.494 305.99 214.045 305.781 213.439 305.781ZM220.342 304.973C221.107 304.973 221.676 305.145 222.047 305.488C222.418 305.832 222.604 306.381 222.604 307.135V311.5H221.895L221.707 310.551H221.66C221.48 310.785 221.293 310.982 221.098 311.143C220.902 311.299 220.676 311.418 220.418 311.5C220.164 311.578 219.852 311.617 219.48 311.617C219.09 311.617 218.742 311.549 218.438 311.412C218.137 311.275 217.898 311.068 217.723 310.791C217.551 310.514 217.465 310.162 217.465 309.736C217.465 309.096 217.719 308.604 218.227 308.26C218.734 307.916 219.508 307.729 220.547 307.697L221.654 307.65V307.258C221.654 306.703 221.535 306.314 221.297 306.092C221.059 305.869 220.723 305.758 220.289 305.758C219.953 305.758 219.633 305.807 219.328 305.904C219.023 306.002 218.734 306.117 218.461 306.25L218.162 305.512C218.451 305.363 218.783 305.236 219.158 305.131C219.533 305.025 219.928 304.973 220.342 304.973ZM221.643 308.336L220.664 308.377C219.863 308.408 219.299 308.539 218.971 308.77C218.643 309 218.479 309.326 218.479 309.748C218.479 310.115 218.59 310.387 218.812 310.562C219.035 310.738 219.33 310.826 219.697 310.826C220.268 310.826 220.734 310.668 221.098 310.352C221.461 310.035 221.643 309.561 221.643 308.928V308.336ZM226.4 314.383C225.557 314.383 224.906 314.225 224.449 313.908C223.992 313.596 223.764 313.156 223.764 312.59C223.764 312.188 223.891 311.844 224.145 311.559C224.402 311.273 224.758 311.084 225.211 310.99C225.043 310.912 224.898 310.795 224.777 310.639C224.66 310.482 224.602 310.303 224.602 310.1C224.602 309.865 224.666 309.66 224.795 309.484C224.928 309.305 225.129 309.133 225.398 308.969C225.062 308.832 224.789 308.602 224.578 308.277C224.371 307.949 224.268 307.568 224.268 307.135C224.268 306.674 224.363 306.281 224.555 305.957C224.746 305.629 225.023 305.379 225.387 305.207C225.75 305.035 226.189 304.949 226.705 304.949C226.818 304.949 226.932 304.955 227.045 304.967C227.162 304.975 227.273 304.988 227.379 305.008C227.484 305.023 227.576 305.043 227.654 305.066H229.857V305.693L228.674 305.84C228.791 305.992 228.889 306.176 228.967 306.391C229.045 306.605 229.084 306.844 229.084 307.105C229.084 307.746 228.867 308.256 228.434 308.635C228 309.01 227.404 309.197 226.646 309.197C226.467 309.197 226.283 309.182 226.096 309.15C225.904 309.256 225.758 309.373 225.656 309.502C225.559 309.631 225.51 309.779 225.51 309.947C225.51 310.072 225.547 310.172 225.621 310.246C225.699 310.32 225.811 310.375 225.955 310.41C226.1 310.441 226.273 310.457 226.477 310.457H227.607C228.307 310.457 228.842 310.604 229.213 310.896C229.588 311.189 229.775 311.617 229.775 312.18C229.775 312.891 229.486 313.436 228.908 313.814C228.33 314.193 227.494 314.383 226.4 314.383ZM226.43 313.621C226.961 313.621 227.4 313.566 227.748 313.457C228.1 313.352 228.361 313.197 228.533 312.994C228.709 312.795 228.797 312.557 228.797 312.279C228.797 312.021 228.738 311.826 228.621 311.693C228.504 311.564 228.332 311.479 228.105 311.436C227.879 311.389 227.602 311.365 227.273 311.365H226.16C225.871 311.365 225.619 311.41 225.404 311.5C225.189 311.59 225.023 311.723 224.906 311.898C224.793 312.074 224.736 312.293 224.736 312.555C224.736 312.902 224.883 313.166 225.176 313.346C225.469 313.529 225.887 313.621 226.43 313.621ZM226.682 308.488C227.146 308.488 227.496 308.371 227.73 308.137C227.965 307.902 228.082 307.561 228.082 307.111C228.082 306.631 227.963 306.271 227.725 306.033C227.486 305.791 227.135 305.67 226.67 305.67C226.225 305.67 225.881 305.795 225.639 306.045C225.4 306.291 225.281 306.652 225.281 307.129C225.281 307.566 225.402 307.902 225.645 308.137C225.887 308.371 226.232 308.488 226.682 308.488ZM233.596 304.961C234.143 304.961 234.611 305.082 235.002 305.324C235.393 305.566 235.691 305.906 235.898 306.344C236.105 306.777 236.209 307.285 236.209 307.867V308.471H231.773C231.785 309.225 231.973 309.799 232.336 310.193C232.699 310.588 233.211 310.785 233.871 310.785C234.277 310.785 234.637 310.748 234.949 310.674C235.262 310.6 235.586 310.49 235.922 310.346V311.201C235.598 311.346 235.275 311.451 234.955 311.518C234.639 311.584 234.264 311.617 233.83 311.617C233.213 311.617 232.674 311.492 232.213 311.242C231.756 310.988 231.4 310.617 231.146 310.129C230.893 309.641 230.766 309.043 230.766 308.336C230.766 307.645 230.881 307.047 231.111 306.543C231.346 306.035 231.674 305.645 232.096 305.371C232.521 305.098 233.021 304.961 233.596 304.961ZM233.584 305.758C233.064 305.758 232.65 305.928 232.342 306.268C232.033 306.607 231.85 307.082 231.791 307.691H235.189C235.186 307.309 235.125 306.973 235.008 306.684C234.895 306.391 234.721 306.164 234.486 306.004C234.252 305.84 233.951 305.758 233.584 305.758Z" fill="black"/>
<rect x="269" y="298.5" width="16" height="16" rx="2" fill="#5CC039" fill-opacity="0.8"/>
<path d="M292.172 311.5V302.934H293.168V310.609H296.971V311.5H292.172ZM300.768 304.961C301.314 304.961 301.783 305.082 302.174 305.324C302.564 305.566 302.863 305.906 303.07 306.344C303.277 306.777 303.381 307.285 303.381 307.867V308.471H298.945C298.957 309.225 299.145 309.799 299.508 310.193C299.871 310.588 300.383 310.785 301.043 310.785C301.449 310.785 301.809 310.748 302.121 310.674C302.434 310.6 302.758 310.49 303.094 310.346V311.201C302.77 311.346 302.447 311.451 302.127 311.518C301.811 311.584 301.436 311.617 301.002 311.617C300.385 311.617 299.846 311.492 299.385 311.242C298.928 310.988 298.572 310.617 298.318 310.129C298.064 309.641 297.938 309.043 297.938 308.336C297.938 307.645 298.053 307.047 298.283 306.543C298.518 306.035 298.846 305.645 299.268 305.371C299.693 305.098 300.193 304.961 300.768 304.961ZM300.756 305.758C300.236 305.758 299.822 305.928 299.514 306.268C299.205 306.607 299.021 307.082 298.963 307.691H302.361C302.357 307.309 302.297 306.973 302.18 306.684C302.066 306.391 301.893 306.164 301.658 306.004C301.424 305.84 301.123 305.758 300.756 305.758ZM307.318 311.617C306.506 311.617 305.861 311.34 305.385 310.785C304.912 310.23 304.676 309.406 304.676 308.312C304.676 307.207 304.918 306.373 305.402 305.811C305.887 305.244 306.531 304.961 307.336 304.961C307.676 304.961 307.973 305.006 308.227 305.096C308.48 305.186 308.699 305.307 308.883 305.459C309.066 305.607 309.221 305.777 309.346 305.969H309.416C309.4 305.848 309.385 305.682 309.369 305.471C309.354 305.26 309.346 305.088 309.346 304.955V302.383H310.318V311.5H309.533L309.387 310.586H309.346C309.225 310.777 309.07 310.951 308.883 311.107C308.699 311.264 308.479 311.389 308.221 311.482C307.967 311.572 307.666 311.617 307.318 311.617ZM307.471 310.809C308.158 310.809 308.645 310.613 308.93 310.223C309.215 309.832 309.357 309.252 309.357 308.482V308.307C309.357 307.49 309.221 306.863 308.947 306.426C308.678 305.988 308.186 305.77 307.471 305.77C306.873 305.77 306.426 306 306.129 306.461C305.832 306.918 305.684 307.543 305.684 308.336C305.684 309.125 305.83 309.734 306.123 310.164C306.42 310.594 306.869 310.809 307.471 310.809ZM313.354 305.078V311.5H312.381V305.078H313.354ZM312.879 302.676C313.039 302.676 313.176 302.729 313.289 302.834C313.406 302.936 313.465 303.096 313.465 303.314C313.465 303.529 313.406 303.689 313.289 303.795C313.176 303.9 313.039 303.953 312.879 303.953C312.711 303.953 312.57 303.9 312.457 303.795C312.348 303.689 312.293 303.529 312.293 303.314C312.293 303.096 312.348 302.936 312.457 302.834C312.57 302.729 312.711 302.676 312.879 302.676ZM317.209 314.383C316.365 314.383 315.715 314.225 315.258 313.908C314.801 313.596 314.572 313.156 314.572 312.59C314.572 312.188 314.699 311.844 314.953 311.559C315.211 311.273 315.566 311.084 316.02 310.99C315.852 310.912 315.707 310.795 315.586 310.639C315.469 310.482 315.41 310.303 315.41 310.1C315.41 309.865 315.475 309.66 315.604 309.484C315.736 309.305 315.938 309.133 316.207 308.969C315.871 308.832 315.598 308.602 315.387 308.277C315.18 307.949 315.076 307.568 315.076 307.135C315.076 306.674 315.172 306.281 315.363 305.957C315.555 305.629 315.832 305.379 316.195 305.207C316.559 305.035 316.998 304.949 317.514 304.949C317.627 304.949 317.74 304.955 317.854 304.967C317.971 304.975 318.082 304.988 318.188 305.008C318.293 305.023 318.385 305.043 318.463 305.066H320.666V305.693L319.482 305.84C319.6 305.992 319.697 306.176 319.775 306.391C319.854 306.605 319.893 306.844 319.893 307.105C319.893 307.746 319.676 308.256 319.242 308.635C318.809 309.01 318.213 309.197 317.455 309.197C317.275 309.197 317.092 309.182 316.904 309.15C316.713 309.256 316.566 309.373 316.465 309.502C316.367 309.631 316.318 309.779 316.318 309.947C316.318 310.072 316.355 310.172 316.43 310.246C316.508 310.32 316.619 310.375 316.764 310.41C316.908 310.441 317.082 310.457 317.285 310.457H318.416C319.115 310.457 319.65 310.604 320.021 310.896C320.396 311.189 320.584 311.617 320.584 312.18C320.584 312.891 320.295 313.436 319.717 313.814C319.139 314.193 318.303 314.383 317.209 314.383ZM317.238 313.621C317.77 313.621 318.209 313.566 318.557 313.457C318.908 313.352 319.17 313.197 319.342 312.994C319.518 312.795 319.605 312.557 319.605 312.279C319.605 312.021 319.547 311.826 319.43 311.693C319.312 311.564 319.141 311.479 318.914 311.436C318.688 311.389 318.41 311.365 318.082 311.365H316.969C316.68 311.365 316.428 311.41 316.213 311.5C315.998 311.59 315.832 311.723 315.715 311.898C315.602 312.074 315.545 312.293 315.545 312.555C315.545 312.902 315.691 313.166 315.984 313.346C316.277 313.529 316.695 313.621 317.238 313.621ZM317.49 308.488C317.955 308.488 318.305 308.371 318.539 308.137C318.773 307.902 318.891 307.561 318.891 307.111C318.891 306.631 318.771 306.271 318.533 306.033C318.295 305.791 317.943 305.67 317.479 305.67C317.033 305.67 316.689 305.795 316.447 306.045C316.209 306.291 316.09 306.652 316.09 307.129C316.09 307.566 316.211 307.902 316.453 308.137C316.695 308.371 317.041 308.488 317.49 308.488ZM324.006 310.82C324.166 310.82 324.33 310.807 324.498 310.779C324.666 310.752 324.803 310.719 324.908 310.68V311.436C324.795 311.486 324.637 311.529 324.434 311.564C324.234 311.6 324.039 311.617 323.848 311.617C323.508 311.617 323.199 311.559 322.922 311.441C322.645 311.32 322.422 311.117 322.254 310.832C322.09 310.547 322.008 310.152 322.008 309.648V305.84H321.094V305.365L322.014 304.984L322.4 303.59H322.986V305.078H324.867V305.84H322.986V309.619C322.986 310.021 323.078 310.322 323.262 310.521C323.449 310.721 323.697 310.82 324.006 310.82Z" fill="black"/>
<path fill-rule="evenodd" clip-rule="evenodd" d="M16.4902 22.8721C16.4536 22.9169 16.4336 22.9729 16.4336 23.0308C16.4336 23.0886 16.4536 23.1447 16.4902 23.1895L19.2439 26.5556C19.4457 26.8023 19.5221 27.1337 19.3772 27.4172C19.2765 27.614 19.13 27.8434 18.925 28.0445C18.7174 28.248 18.4795 28.3929 18.2767 28.4914C17.9911 28.6306 17.6607 28.5529 17.4218 28.3435C15.7391 26.8722 14.0234 24.8849 13.189 23.6061C12.9564 23.2494 12.9318 22.8009 13.1524 22.4364C13.9271 21.1568 15.7326 19.1818 17.421 17.717C17.661 17.5089 17.9911 17.431 18.2767 17.5701C18.4795 17.6689 18.7171 17.8135 18.925 18.0174C19.1298 18.2182 19.2765 18.4476 19.3772 18.6444C19.5221 18.9279 19.4457 19.2593 19.2439 19.506L16.4902 22.8721Z" fill="#2C88F4"/>
<path d="M24.594 24.88H27.542C27.63 25.6573 27.8427 26.266 28.18 26.706C28.5173 27.146 29.0233 27.366 29.698 27.366C30.3873 27.366 30.9227 27.1167 31.304 26.618C31.6853 26.1047 31.876 25.3933 31.876 24.484V14.54H34.824V24.264C34.824 25.98 34.362 27.3367 33.438 28.334C32.5287 29.3313 31.282 29.83 29.698 29.83C28.1727 29.83 26.9627 29.3827 26.068 28.488C25.188 27.5933 24.6967 26.3907 24.594 24.88ZM47.9502 17.708V29.5H45.1342V17.708H47.9502ZM45.1342 24.55H46.0362C45.9775 25.738 45.7502 26.728 45.3542 27.52C44.9728 28.2973 44.4668 28.8767 43.8362 29.258C43.2202 29.6393 42.5088 29.83 41.7022 29.83C40.9395 29.83 40.2575 29.676 39.6562 29.368C39.0695 29.0453 38.6148 28.5687 38.2922 27.938C37.9695 27.3073 37.8082 26.5227 37.8082 25.584V17.708H40.6242V25.012C40.6242 25.54 40.6975 25.9947 40.8442 26.376C40.9908 26.7427 41.2108 27.0213 41.5042 27.212C41.8122 27.4027 42.2008 27.498 42.6702 27.498C43.0515 27.498 43.3888 27.4247 43.6822 27.278C43.9902 27.1167 44.2468 26.8967 44.4522 26.618C44.6722 26.3393 44.8408 26.024 44.9582 25.672C45.0755 25.32 45.1342 24.946 45.1342 24.55ZM50.8984 29.5V13.66H53.7144V29.5H50.8984ZM56.641 29.5V17.708H59.457V29.5H56.641ZM56.641 16.388V13.66H59.457V16.388H56.641Z" fill="black"/>
<path fill-rule="evenodd" clip-rule="evenodd" d="M72.9622 23.1894C72.9988 23.1446 73.0188 23.0886 73.0188 23.0307C73.0188 22.9729 72.9988 22.9168 72.9622 22.872L70.2085 19.506C70.0067 19.2593 69.9303 18.9278 70.0752 18.6443C70.1759 18.4475 70.3223 18.2181 70.5274 18.0171C70.735 17.8135 70.9729 17.6686 71.1757 17.5701C71.4613 17.4309 71.7917 17.5087 72.0306 17.718C73.7133 19.1893 75.429 21.1766 76.2633 22.4554C76.496 22.8121 76.5206 23.2606 76.2999 23.6251C75.5253 24.9047 73.7198 26.8797 72.0313 28.3445C71.7914 28.5526 71.4613 28.6305 71.1757 28.4914C70.9729 28.3926 70.7352 28.248 70.5274 28.0442C70.3226 27.8434 70.1759 27.614 70.0752 27.4172C69.9303 27.1336 70.0067 26.8022 70.2085 26.5555L72.9622 23.1894Z" fill="#2C88F4"/>
</svg>
