<svg width="351" height="330" viewBox="0 0 351 330" fill="none" xmlns="http://www.w3.org/2000/svg">
<rect width="351" height="330" rx="6" fill="white"/>
<path d="M175.034 64.8182V75H173.493V66.3594H173.433L170.997 67.9503V66.4787L173.537 64.8182H175.034Z" fill="#E2251A"/>
<path d="M216.186 75V73.8864L219.632 70.3168C220 69.929 220.303 69.5893 220.542 69.2976C220.783 69.0026 220.964 68.7225 221.083 68.4574C221.203 68.1922 221.262 67.9105 221.262 67.6122C221.262 67.2741 221.183 66.9825 221.024 66.7372C220.865 66.4886 220.648 66.2981 220.373 66.1655C220.097 66.0296 219.788 65.9616 219.443 65.9616C219.078 65.9616 218.76 66.0362 218.488 66.1854C218.217 66.3345 218.008 66.545 217.862 66.8168C217.716 67.0885 217.643 67.4067 217.643 67.7713H216.176C216.176 67.1515 216.319 66.6096 216.604 66.1456C216.889 65.6816 217.28 65.322 217.777 65.0668C218.275 64.8082 218.84 64.679 219.473 64.679C220.112 64.679 220.676 64.8066 221.163 65.0618C221.654 65.3137 222.036 65.6584 222.311 66.0959C222.587 66.5301 222.724 67.0206 222.724 67.5675C222.724 67.9453 222.653 68.3149 222.51 68.6761C222.371 69.0374 222.127 69.4401 221.779 69.8842C221.431 70.325 220.948 70.8603 220.328 71.4901L218.304 73.608V73.6825H222.888V75H216.186Z" fill="#E2251A"/>
<path d="M265.512 75.1392C264.83 75.1392 264.22 75.0215 263.683 74.7862C263.149 74.5509 262.727 74.2244 262.415 73.8068C262.107 73.3859 261.941 72.8987 261.918 72.3452H263.479C263.499 72.6468 263.6 72.9086 263.782 73.1307C263.968 73.3494 264.21 73.5185 264.508 73.6378C264.806 73.7571 265.138 73.8168 265.502 73.8168C265.904 73.8168 266.258 73.7472 266.566 73.608C266.878 73.4687 267.122 73.2749 267.297 73.0263C267.473 72.7744 267.561 72.4844 267.561 72.1562C267.561 71.8149 267.473 71.5149 267.297 71.2564C267.125 70.9946 266.871 70.7891 266.537 70.6399C266.205 70.4908 265.804 70.4162 265.333 70.4162H264.473V69.1634H265.333C265.711 69.1634 266.043 69.0954 266.328 68.9595C266.616 68.8236 266.842 68.6347 267.004 68.3928C267.166 68.1475 267.248 67.8608 267.248 67.5327C267.248 67.2178 267.176 66.9444 267.034 66.7124C266.895 66.477 266.696 66.2931 266.437 66.1605C266.182 66.0279 265.88 65.9616 265.532 65.9616C265.201 65.9616 264.891 66.023 264.603 66.1456C264.318 66.2649 264.086 66.4373 263.907 66.6626C263.728 66.8847 263.632 67.1515 263.618 67.4631H262.132C262.148 66.9129 262.311 66.429 262.619 66.0114C262.931 65.5937 263.342 65.2673 263.852 65.032C264.362 64.7966 264.929 64.679 265.552 64.679C266.205 64.679 266.769 64.8066 267.243 65.0618C267.72 65.3137 268.088 65.6501 268.346 66.071C268.608 66.492 268.737 66.9527 268.734 67.4531C268.737 68.0232 268.578 68.5071 268.257 68.9048C267.939 69.3026 267.514 69.5694 266.984 69.7053V69.7848C267.66 69.8875 268.184 70.156 268.555 70.5902C268.93 71.0244 269.115 71.563 269.112 72.206C269.115 72.7661 268.959 73.2682 268.645 73.7124C268.333 74.1565 267.907 74.5062 267.367 74.7614C266.827 75.0133 266.208 75.1392 265.512 75.1392Z" fill="#E2251A"/>
<rect x="296" y="52" width="35" height="35" rx="5" fill="#E42121"/>
<path d="M309.686 73.0114V71.7685L314.085 64.8182H315.065V66.6477H314.443L311.296 71.6293V71.7088H317.327V73.0114H309.686ZM314.513 75V72.6335L314.523 72.0668V64.8182H315.98V75H314.513Z" fill="white"/>
<path opacity="0.2" d="M156 55C156 52.2386 158.239 50 161 50H329C331.761 50 334 52.2386 334 55V84C334 86.7614 331.761 89 329 89H161C158.239 89 156 86.7614 156 84V55Z" fill="#DB3600"/>
<rect x="16" y="99" width="35" height="35" rx="5" fill="#39BB0B"/>
<rect x="296" y="99" width="35" height="35" rx="5" fill="#39BB0B"/>
<path d="M79.5839 122.139C79.1298 122.133 78.6824 122.05 78.2416 121.891C77.8041 121.732 77.4063 121.466 77.0484 121.095C76.6904 120.724 76.4037 120.225 76.1883 119.599C75.9762 118.972 75.8701 118.19 75.8701 117.252C75.8701 116.364 75.9579 115.575 76.1336 114.886C76.3126 114.196 76.5695 113.615 76.9042 113.141C77.239 112.663 77.6433 112.3 78.1173 112.052C78.5912 111.803 79.1232 111.679 79.7132 111.679C80.3197 111.679 80.8583 111.798 81.3289 112.037C81.7996 112.276 82.1807 112.605 82.4724 113.026C82.7674 113.447 82.9546 113.926 83.0342 114.463H81.5178C81.4151 114.039 81.2113 113.692 80.9063 113.424C80.6014 113.156 80.2037 113.021 79.7132 113.021C78.9674 113.021 78.3857 113.346 77.9681 113.996C77.5538 114.645 77.345 115.549 77.3417 116.705H77.4163C77.5919 116.417 77.8074 116.172 78.0626 115.969C78.3211 115.764 78.6095 115.607 78.9276 115.497C79.2491 115.384 79.5872 115.328 79.9419 115.328C80.5318 115.328 81.0654 115.472 81.5427 115.761C82.0233 116.046 82.4061 116.44 82.6911 116.944C82.9762 117.448 83.1187 118.024 83.1187 118.674C83.1187 119.324 82.9712 119.912 82.6762 120.439C82.3846 120.966 81.9736 121.384 81.4433 121.692C80.913 121.997 80.2932 122.146 79.5839 122.139ZM79.5789 120.847C79.97 120.847 80.3197 120.75 80.6279 120.558C80.9362 120.366 81.1798 120.107 81.3588 119.783C81.5377 119.458 81.6272 119.095 81.6272 118.694C81.6272 118.303 81.5394 117.946 81.3637 117.625C81.1914 117.304 80.9527 117.048 80.6478 116.859C80.3462 116.67 80.0015 116.576 79.6137 116.576C79.3187 116.576 79.0453 116.632 78.7934 116.745C78.5448 116.858 78.3261 117.013 78.1372 117.212C77.9482 117.411 77.7991 117.64 77.6897 117.898C77.5837 118.154 77.5306 118.424 77.5306 118.709C77.5306 119.09 77.6185 119.443 77.7941 119.768C77.9731 120.093 78.2167 120.354 78.5249 120.553C78.8365 120.749 79.1878 120.847 79.5789 120.847Z" fill="#39BB0B"/>
<path opacity="0.2" d="M13 102C13 99.2386 15.2386 97 18 97H329C331.761 97 334 99.2386 334 102V131C334 133.761 331.761 136 329 136H18C15.2386 136 13 133.761 13 131V102Z" fill="#39BB0B"/>
<path d="M33.4994 122.139C32.8763 122.139 32.3161 122.02 31.819 121.781C31.3251 121.539 30.9307 121.208 30.6357 120.787C30.3408 120.366 30.1833 119.885 30.1634 119.345H31.6549C31.6914 119.783 31.8853 120.142 32.2366 120.424C32.5879 120.706 33.0088 120.847 33.4994 120.847C33.8905 120.847 34.2368 120.757 34.5384 120.578C34.8434 120.396 35.082 120.146 35.2544 119.827C35.43 119.509 35.5178 119.146 35.5178 118.739C35.5178 118.324 35.4284 117.955 35.2494 117.63C35.0704 117.305 34.8235 117.05 34.5086 116.864C34.1971 116.679 33.8391 116.584 33.4347 116.581C33.1265 116.581 32.8166 116.634 32.5051 116.74C32.1935 116.846 31.9416 116.985 31.7494 117.158L30.3424 116.949L30.9142 111.818H36.5122V113.136H32.1919L31.8687 115.984H31.9284C32.1272 115.792 32.3907 115.631 32.7188 115.502C33.0503 115.373 33.4049 115.308 33.7828 115.308C34.4026 115.308 34.9544 115.456 35.4383 115.751C35.9255 116.046 36.3083 116.448 36.5867 116.959C36.8685 117.466 37.0077 118.049 37.0044 118.709C37.0077 119.368 36.8585 119.957 36.5569 120.474C36.2586 120.991 35.8443 121.398 35.314 121.697C34.787 121.992 34.1821 122.139 33.4994 122.139Z" fill="white"/>
<path d="M123.769 122L128.213 113.21V113.136H123.073V111.818H129.804V113.18L125.375 122H123.769Z" fill="#39BB0B"/>
<path d="M173.497 122.139C172.784 122.139 172.155 122.017 171.608 121.771C171.064 121.526 170.638 121.188 170.33 120.757C170.022 120.326 169.869 119.836 169.873 119.286C169.869 118.855 169.957 118.459 170.136 118.097C170.318 117.733 170.565 117.429 170.877 117.188C171.188 116.942 171.536 116.786 171.921 116.72V116.661C171.414 116.538 171.008 116.266 170.703 115.845C170.398 115.424 170.247 114.94 170.25 114.393C170.247 113.873 170.385 113.409 170.663 113.001C170.945 112.59 171.331 112.267 171.821 112.032C172.312 111.797 172.87 111.679 173.497 111.679C174.117 111.679 174.67 111.798 175.157 112.037C175.648 112.272 176.034 112.595 176.316 113.006C176.598 113.414 176.74 113.876 176.743 114.393C176.74 114.94 176.584 115.424 176.276 115.845C175.968 116.266 175.567 116.538 175.073 116.661V116.72C175.454 116.786 175.797 116.942 176.102 117.188C176.41 117.429 176.656 117.733 176.838 118.097C177.023 118.459 177.118 118.855 177.121 119.286C177.118 119.836 176.962 120.326 176.654 120.757C176.346 121.188 175.918 121.526 175.371 121.771C174.828 122.017 174.203 122.139 173.497 122.139ZM173.497 120.881C173.918 120.881 174.282 120.812 174.591 120.673C174.899 120.53 175.138 120.333 175.307 120.081C175.476 119.826 175.562 119.527 175.565 119.186C175.562 118.831 175.469 118.518 175.287 118.246C175.108 117.975 174.864 117.761 174.556 117.605C174.248 117.449 173.895 117.371 173.497 117.371C173.096 117.371 172.74 117.449 172.428 117.605C172.116 117.761 171.871 117.975 171.692 118.246C171.513 118.518 171.425 118.831 171.429 119.186C171.425 119.527 171.507 119.826 171.672 120.081C171.841 120.333 172.082 120.53 172.393 120.673C172.705 120.812 173.073 120.881 173.497 120.881ZM173.497 116.143C173.835 116.143 174.135 116.076 174.397 115.94C174.659 115.804 174.864 115.615 175.013 115.373C175.166 115.131 175.244 114.848 175.247 114.523C175.244 114.205 175.167 113.926 175.018 113.688C174.872 113.449 174.669 113.265 174.407 113.136C174.145 113.003 173.842 112.937 173.497 112.937C173.146 112.937 172.837 113.003 172.572 113.136C172.31 113.265 172.107 113.449 171.961 113.688C171.815 113.926 171.744 114.205 171.747 114.523C171.744 114.848 171.816 115.131 171.966 115.373C172.115 115.615 172.32 115.804 172.582 115.94C172.847 116.076 173.152 116.143 173.497 116.143Z" fill="#39BB0B"/>
<path d="M219.415 111.679C219.869 111.682 220.316 111.765 220.757 111.928C221.198 112.09 221.596 112.355 221.95 112.723C222.308 113.091 222.593 113.588 222.805 114.214C223.021 114.838 223.13 115.613 223.134 116.541C223.134 117.433 223.044 118.227 222.865 118.923C222.686 119.615 222.429 120.2 222.095 120.678C221.763 121.155 221.36 121.518 220.886 121.766C220.412 122.015 219.879 122.139 219.286 122.139C218.679 122.139 218.14 122.02 217.67 121.781C217.199 121.543 216.816 121.213 216.521 120.792C216.226 120.368 216.042 119.88 215.97 119.33H217.486C217.585 119.768 217.787 120.122 218.092 120.394C218.401 120.663 218.798 120.797 219.286 120.797C220.031 120.797 220.613 120.472 221.031 119.822C221.448 119.17 221.659 118.258 221.662 117.088H221.582C221.41 117.373 221.195 117.618 220.936 117.824C220.681 118.029 220.394 118.188 220.076 118.301C219.758 118.414 219.418 118.47 219.057 118.47C218.47 118.47 217.937 118.326 217.456 118.038C216.975 117.749 216.593 117.353 216.308 116.849C216.023 116.346 215.88 115.771 215.88 115.124C215.88 114.481 216.026 113.898 216.318 113.374C216.613 112.851 217.024 112.436 217.551 112.131C218.081 111.823 218.702 111.672 219.415 111.679ZM219.42 112.972C219.032 112.972 218.682 113.068 218.371 113.26C218.063 113.449 217.819 113.706 217.64 114.031C217.461 114.352 217.372 114.71 217.372 115.104C217.372 115.499 217.458 115.857 217.63 116.178C217.806 116.496 218.044 116.75 218.346 116.939C218.651 117.125 218.999 117.217 219.39 117.217C219.682 117.217 219.953 117.161 220.205 117.048C220.457 116.936 220.678 116.78 220.867 116.581C221.055 116.379 221.203 116.15 221.309 115.895C221.415 115.64 221.468 115.371 221.468 115.089C221.468 114.715 221.379 114.367 221.2 114.045C221.024 113.724 220.782 113.465 220.474 113.27C220.166 113.071 219.814 112.972 219.42 112.972Z" fill="#39BB0B"/>
<path d="M262.515 111.818V122H260.974V113.359H260.914L258.478 114.95V113.479L261.019 111.818H262.515ZM268.814 122.169C268.029 122.166 267.358 121.959 266.801 121.548C266.244 121.137 265.818 120.538 265.523 119.753C265.228 118.967 265.081 118.021 265.081 116.914C265.081 115.81 265.228 114.867 265.523 114.085C265.821 113.303 266.249 112.706 266.806 112.295C267.366 111.884 268.035 111.679 268.814 111.679C269.593 111.679 270.261 111.886 270.818 112.3C271.375 112.711 271.8 113.308 272.095 114.09C272.394 114.869 272.543 115.81 272.543 116.914C272.543 118.024 272.395 118.972 272.1 119.758C271.805 120.54 271.38 121.138 270.823 121.553C270.266 121.964 269.596 122.169 268.814 122.169ZM268.814 120.842C269.504 120.842 270.042 120.505 270.43 119.832C270.821 119.16 271.017 118.187 271.017 116.914C271.017 116.069 270.927 115.355 270.748 114.771C270.572 114.185 270.319 113.741 269.987 113.439C269.659 113.134 269.268 112.982 268.814 112.982C268.128 112.982 267.59 113.32 267.198 113.996C266.807 114.672 266.61 115.645 266.607 116.914C266.607 117.763 266.695 118.48 266.87 119.067C267.049 119.65 267.303 120.093 267.631 120.394C267.959 120.692 268.353 120.842 268.814 120.842Z" fill="#39BB0B"/>
<path d="M311.725 111.818V122H310.184V113.359H310.124L307.688 114.95V113.479L310.229 111.818H311.725ZM318.342 111.818V122H316.801V113.359H316.741L314.305 114.95V113.479L316.846 111.818H318.342Z" fill="white"/>
<path opacity="0.2" d="M13 149C13 146.239 15.2386 144 18 144H329C331.761 144 334 146.239 334 149V178C334 180.761 331.761 183 329 183H18C15.2386 183 13 180.761 13 178V149Z" fill="#39BB0B"/>
<rect x="16" y="146" width="35" height="35" rx="5" fill="#39BB0B"/>
<rect x="296" y="146" width="35" height="35" rx="5" fill="#39BB0B"/>
<path d="M30.7408 158.818V169H29.1996V160.359H29.1399L26.7038 161.95V160.479L29.2443 158.818H30.7408ZM33.495 169V167.886L36.9403 164.317C37.3082 163.929 37.6115 163.589 37.8501 163.298C38.0921 163.003 38.2727 162.723 38.392 162.457C38.5114 162.192 38.571 161.911 38.571 161.612C38.571 161.274 38.4915 160.982 38.3324 160.737C38.1733 160.489 37.9562 160.298 37.6811 160.165C37.406 160.03 37.0961 159.962 36.7514 159.962C36.3868 159.962 36.0687 160.036 35.7969 160.185C35.5251 160.335 35.3163 160.545 35.1705 160.817C35.0246 161.089 34.9517 161.407 34.9517 161.771H33.4851C33.4851 161.152 33.6276 160.61 33.9126 160.146C34.1977 159.682 34.5888 159.322 35.0859 159.067C35.5831 158.808 36.1482 158.679 36.7812 158.679C37.4209 158.679 37.9844 158.807 38.4716 159.062C38.9621 159.314 39.3449 159.658 39.62 160.096C39.8951 160.53 40.0327 161.021 40.0327 161.567C40.0327 161.945 39.9614 162.315 39.8189 162.676C39.6797 163.037 39.4361 163.44 39.0881 163.884C38.7401 164.325 38.2562 164.86 37.6364 165.49L35.6129 167.608V167.683H40.1967V169H33.495Z" fill="white"/>
<path d="M76.522 158.818V169H74.9808V160.359H74.9212L72.4851 161.95V160.479L75.0256 158.818H76.522ZM82.821 169.139C82.1383 169.139 81.5284 169.022 80.9915 168.786C80.4579 168.551 80.0353 168.224 79.7237 167.807C79.4155 167.386 79.2498 166.899 79.2266 166.345H80.7876C80.8075 166.647 80.9086 166.909 81.0909 167.131C81.2765 167.349 81.5185 167.518 81.8168 167.638C82.1151 167.757 82.4465 167.817 82.8111 167.817C83.2121 167.817 83.5668 167.747 83.875 167.608C84.1866 167.469 84.4302 167.275 84.6058 167.026C84.7815 166.774 84.8693 166.484 84.8693 166.156C84.8693 165.815 84.7815 165.515 84.6058 165.256C84.4335 164.995 84.1799 164.789 83.8452 164.64C83.5137 164.491 83.1127 164.416 82.642 164.416H81.782V163.163H82.642C83.0199 163.163 83.3513 163.095 83.6364 162.96C83.9247 162.824 84.1501 162.635 84.3125 162.393C84.4749 162.147 84.5561 161.861 84.5561 161.533C84.5561 161.218 84.4848 160.944 84.3423 160.712C84.2031 160.477 84.0043 160.293 83.7457 160.161C83.4905 160.028 83.1889 159.962 82.8409 159.962C82.5095 159.962 82.1996 160.023 81.9112 160.146C81.6262 160.265 81.3942 160.437 81.2152 160.663C81.0362 160.885 80.9401 161.152 80.9268 161.463H79.4403C79.4569 160.913 79.6193 160.429 79.9276 160.011C80.2391 159.594 80.6501 159.267 81.1605 159.032C81.6709 158.797 82.2377 158.679 82.8608 158.679C83.5137 158.679 84.0772 158.807 84.5511 159.062C85.0284 159.314 85.3963 159.65 85.6548 160.071C85.9167 160.492 86.0459 160.953 86.0426 161.453C86.0459 162.023 85.8868 162.507 85.5653 162.905C85.2472 163.303 84.8229 163.569 84.2926 163.705V163.785C84.9688 163.888 85.4924 164.156 85.8636 164.59C86.2382 165.024 86.4238 165.563 86.4205 166.206C86.4238 166.766 86.268 167.268 85.9531 167.712C85.6416 168.156 85.2157 168.506 84.6754 168.761C84.1352 169.013 83.517 169.139 82.821 169.139Z" fill="#39BB0B"/>
<path d="M123.454 158.818V169H121.912V160.359H121.853L119.417 161.95V160.479L121.957 158.818H123.454ZM125.994 167.011V165.768L130.394 158.818H131.373V160.648H130.752L127.605 165.629V165.709H133.635V167.011H125.994ZM130.822 169V166.634L130.831 166.067V158.818H132.288V169H130.822Z" fill="#39BB0B"/>
<path d="M170.693 158.818V169H169.152V160.359H169.092L166.656 161.95V160.479L169.196 158.818H170.693ZM176.808 169.139C176.185 169.139 175.625 169.02 175.128 168.781C174.634 168.539 174.239 168.208 173.944 167.787C173.649 167.366 173.492 166.885 173.472 166.345H174.964C175 166.783 175.194 167.142 175.545 167.424C175.897 167.706 176.317 167.847 176.808 167.847C177.199 167.847 177.545 167.757 177.847 167.578C178.152 167.396 178.391 167.146 178.563 166.827C178.739 166.509 178.826 166.146 178.826 165.739C178.826 165.324 178.737 164.955 178.558 164.63C178.379 164.305 178.132 164.05 177.817 163.864C177.506 163.679 177.148 163.584 176.743 163.581C176.435 163.581 176.125 163.634 175.814 163.74C175.502 163.846 175.25 163.985 175.058 164.158L173.651 163.949L174.223 158.818H179.821V160.136H175.5L175.177 162.984H175.237C175.436 162.792 175.699 162.631 176.027 162.502C176.359 162.373 176.714 162.308 177.091 162.308C177.711 162.308 178.263 162.456 178.747 162.751C179.234 163.046 179.617 163.448 179.895 163.959C180.177 164.466 180.316 165.049 180.313 165.709C180.316 166.368 180.167 166.957 179.866 167.474C179.567 167.991 179.153 168.398 178.623 168.697C178.096 168.992 177.491 169.139 176.808 169.139Z" fill="#39BB0B"/>
<path d="M216.584 158.818V169H215.042V160.359H214.983L212.547 161.95V160.479L215.087 158.818H216.584ZM222.892 169.139C222.438 169.133 221.991 169.05 221.55 168.891C221.113 168.732 220.715 168.466 220.357 168.095C219.999 167.724 219.712 167.225 219.497 166.599C219.285 165.972 219.179 165.19 219.179 164.252C219.179 163.364 219.267 162.575 219.442 161.886C219.621 161.196 219.878 160.615 220.213 160.141C220.548 159.663 220.952 159.3 221.426 159.052C221.9 158.803 222.432 158.679 223.022 158.679C223.628 158.679 224.167 158.798 224.638 159.037C225.108 159.276 225.489 159.605 225.781 160.026C226.076 160.447 226.263 160.926 226.343 161.463H224.826C224.724 161.039 224.52 160.692 224.215 160.424C223.91 160.156 223.512 160.021 223.022 160.021C222.276 160.021 221.694 160.346 221.277 160.996C220.862 161.645 220.654 162.549 220.65 163.705H220.725C220.901 163.417 221.116 163.172 221.371 162.969C221.63 162.764 221.918 162.607 222.236 162.497C222.558 162.384 222.896 162.328 223.25 162.328C223.84 162.328 224.374 162.472 224.851 162.761C225.332 163.046 225.715 163.44 226 163.944C226.285 164.448 226.427 165.024 226.427 165.674C226.427 166.324 226.28 166.912 225.985 167.439C225.693 167.966 225.282 168.384 224.752 168.692C224.222 168.997 223.602 169.146 222.892 169.139ZM222.888 167.847C223.279 167.847 223.628 167.75 223.937 167.558C224.245 167.366 224.488 167.107 224.667 166.783C224.846 166.458 224.936 166.095 224.936 165.694C224.936 165.303 224.848 164.946 224.672 164.625C224.5 164.304 224.261 164.048 223.956 163.859C223.655 163.67 223.31 163.576 222.922 163.576C222.627 163.576 222.354 163.632 222.102 163.745C221.853 163.858 221.635 164.013 221.446 164.212C221.257 164.411 221.108 164.64 220.998 164.898C220.892 165.154 220.839 165.424 220.839 165.709C220.839 166.09 220.927 166.443 221.103 166.768C221.282 167.093 221.525 167.354 221.834 167.553C222.145 167.749 222.496 167.847 222.888 167.847Z" fill="#39BB0B"/>
<path d="M262.98 158.818V169H261.439V160.359H261.379L258.943 161.95V160.479L261.484 158.818H262.98ZM266.077 169L270.522 160.21V160.136H265.381V158.818H272.113V160.18L267.683 169H266.077Z" fill="#39BB0B"/>
<path d="M310.611 158.818V169H309.07V160.359H309.01L306.574 161.95V160.479L309.114 158.818H310.611ZM316.805 169.139C316.093 169.139 315.463 169.017 314.916 168.771C314.373 168.526 313.947 168.188 313.639 167.757C313.33 167.326 313.178 166.836 313.181 166.286C313.178 165.855 313.266 165.459 313.445 165.097C313.627 164.733 313.874 164.429 314.185 164.188C314.497 163.942 314.845 163.786 315.229 163.72V163.661C314.722 163.538 314.316 163.266 314.011 162.845C313.707 162.424 313.556 161.94 313.559 161.393C313.556 160.873 313.693 160.409 313.972 160.001C314.253 159.59 314.64 159.267 315.13 159.032C315.621 158.797 316.179 158.679 316.805 158.679C317.425 158.679 317.979 158.798 318.466 159.037C318.957 159.272 319.343 159.595 319.624 160.006C319.906 160.414 320.049 160.876 320.052 161.393C320.049 161.94 319.893 162.424 319.585 162.845C319.276 163.266 318.875 163.538 318.381 163.661V163.72C318.763 163.786 319.106 163.942 319.411 164.188C319.719 164.429 319.964 164.733 320.146 165.097C320.332 165.459 320.426 165.855 320.43 166.286C320.426 166.836 320.271 167.326 319.962 167.757C319.654 168.188 319.227 168.526 318.68 168.771C318.136 169.017 317.511 169.139 316.805 169.139ZM316.805 167.881C317.226 167.881 317.591 167.812 317.899 167.673C318.207 167.53 318.446 167.333 318.615 167.081C318.784 166.826 318.87 166.527 318.874 166.186C318.87 165.831 318.778 165.518 318.595 165.246C318.416 164.975 318.173 164.761 317.864 164.605C317.556 164.449 317.203 164.371 316.805 164.371C316.404 164.371 316.048 164.449 315.737 164.605C315.425 164.761 315.18 164.975 315.001 165.246C314.822 165.518 314.734 165.831 314.737 166.186C314.734 166.527 314.815 166.826 314.981 167.081C315.15 167.333 315.39 167.53 315.702 167.673C316.013 167.812 316.381 167.881 316.805 167.881ZM316.805 163.143C317.144 163.143 317.444 163.076 317.705 162.94C317.967 162.804 318.173 162.615 318.322 162.373C318.474 162.131 318.552 161.848 318.555 161.523C318.552 161.205 318.476 160.926 318.327 160.688C318.181 160.449 317.977 160.265 317.715 160.136C317.453 160.003 317.15 159.937 316.805 159.937C316.454 159.937 316.146 160.003 315.881 160.136C315.619 160.265 315.415 160.449 315.269 160.688C315.123 160.926 315.052 161.205 315.055 161.523C315.052 161.848 315.125 162.131 315.274 162.373C315.423 162.615 315.629 162.804 315.891 162.94C316.156 163.076 316.461 163.143 316.805 163.143Z" fill="white"/>
<path d="M310.611 158.818V169H309.07V160.359H309.01L306.574 161.95V160.479L309.114 158.818H310.611ZM316.805 169.139C316.093 169.139 315.463 169.017 314.916 168.771C314.373 168.526 313.947 168.188 313.639 167.757C313.33 167.326 313.178 166.836 313.181 166.286C313.178 165.855 313.266 165.459 313.445 165.097C313.627 164.733 313.874 164.429 314.185 164.188C314.497 163.942 314.845 163.786 315.229 163.72V163.661C314.722 163.538 314.316 163.266 314.011 162.845C313.707 162.424 313.556 161.94 313.559 161.393C313.556 160.873 313.693 160.409 313.972 160.001C314.253 159.59 314.64 159.267 315.13 159.032C315.621 158.797 316.179 158.679 316.805 158.679C317.425 158.679 317.979 158.798 318.466 159.037C318.957 159.272 319.343 159.595 319.624 160.006C319.906 160.414 320.049 160.876 320.052 161.393C320.049 161.94 319.893 162.424 319.585 162.845C319.276 163.266 318.875 163.538 318.381 163.661V163.72C318.763 163.786 319.106 163.942 319.411 164.188C319.719 164.429 319.964 164.733 320.146 165.097C320.332 165.459 320.426 165.855 320.43 166.286C320.426 166.836 320.271 167.326 319.962 167.757C319.654 168.188 319.227 168.526 318.68 168.771C318.136 169.017 317.511 169.139 316.805 169.139ZM316.805 167.881C317.226 167.881 317.591 167.812 317.899 167.673C318.207 167.53 318.446 167.333 318.615 167.081C318.784 166.826 318.87 166.527 318.874 166.186C318.87 165.831 318.778 165.518 318.595 165.246C318.416 164.975 318.173 164.761 317.864 164.605C317.556 164.449 317.203 164.371 316.805 164.371C316.404 164.371 316.048 164.449 315.737 164.605C315.425 164.761 315.18 164.975 315.001 165.246C314.822 165.518 314.734 165.831 314.737 166.186C314.734 166.527 314.815 166.826 314.981 167.081C315.15 167.333 315.39 167.53 315.702 167.673C316.013 167.812 316.381 167.881 316.805 167.881ZM316.805 163.143C317.144 163.143 317.444 163.076 317.705 162.94C317.967 162.804 318.173 162.615 318.322 162.373C318.474 162.131 318.552 161.848 318.555 161.523C318.552 161.205 318.476 160.926 318.327 160.688C318.181 160.449 317.977 160.265 317.715 160.136C317.453 160.003 317.15 159.937 316.805 159.937C316.454 159.937 316.146 160.003 315.881 160.136C315.619 160.265 315.415 160.449 315.269 160.688C315.123 160.926 315.052 161.205 315.055 161.523C315.052 161.848 315.125 162.131 315.274 162.373C315.423 162.615 315.629 162.804 315.891 162.94C316.156 163.076 316.461 163.143 316.805 163.143Z" fill="white"/>
<path opacity="0.2" d="M13 196C13 193.239 15.2386 191 18 191H329C331.761 191 334 193.239 334 196V225C334 227.761 331.761 230 329 230H18C15.2386 230 13 227.761 13 225V196Z" fill="#FFC226"/>
<rect x="296" y="193" width="35" height="35" rx="5" fill="#FFB800"/>
<rect x="16" y="193" width="35" height="35" rx="5" fill="#FFB800"/>
<path d="M30.5835 205.818V216H29.0423V207.359H28.9827L26.5466 208.95V207.479L29.0871 205.818H30.5835ZM36.7235 205.679C37.1775 205.682 37.625 205.765 38.0658 205.928C38.5066 206.09 38.9043 206.355 39.259 206.723C39.6169 207.091 39.902 207.588 40.1141 208.214C40.3295 208.838 40.4389 209.613 40.4422 210.541C40.4422 211.433 40.3527 212.227 40.1737 212.923C39.9948 213.615 39.7379 214.2 39.4031 214.678C39.0717 215.155 38.669 215.518 38.195 215.766C37.7211 216.015 37.1875 216.139 36.5942 216.139C35.9877 216.139 35.4491 216.02 34.9784 215.781C34.5078 215.543 34.125 215.213 33.83 214.792C33.535 214.368 33.3511 213.88 33.2781 213.33H34.7945C34.8939 213.768 35.0961 214.122 35.401 214.394C35.7093 214.663 36.107 214.797 36.5942 214.797C37.3399 214.797 37.9216 214.472 38.3392 213.822C38.7568 213.17 38.9673 212.258 38.9706 211.088H38.8911C38.7187 211.373 38.5033 211.618 38.2448 211.824C37.9896 212.029 37.7029 212.188 37.3847 212.301C37.0665 212.414 36.7268 212.47 36.3655 212.47C35.7789 212.47 35.2452 212.326 34.7646 212.038C34.2841 211.749 33.9012 211.353 33.6162 210.849C33.3312 210.346 33.1887 209.771 33.1887 209.124C33.1887 208.481 33.3345 207.898 33.6262 207.374C33.9211 206.851 34.3321 206.436 34.8591 206.131C35.3894 205.823 36.0109 205.672 36.7235 205.679ZM36.7284 206.972C36.3406 206.972 35.991 207.068 35.6794 207.26C35.3712 207.449 35.1276 207.706 34.9486 208.031C34.7696 208.352 34.6801 208.71 34.6801 209.104C34.6801 209.499 34.7663 209.857 34.9387 210.178C35.1143 210.496 35.353 210.75 35.6546 210.939C35.9595 211.125 36.3075 211.217 36.6986 211.217C36.9903 211.217 37.262 211.161 37.5139 211.048C37.7658 210.936 37.9862 210.78 38.1752 210.581C38.3641 210.379 38.5116 210.15 38.6176 209.895C38.7237 209.64 38.7767 209.371 38.7767 209.089C38.7767 208.715 38.6872 208.367 38.5083 208.045C38.3326 207.724 38.0906 207.465 37.7824 207.27C37.4742 207.071 37.1228 206.972 36.7284 206.972Z" fill="white"/>
<path d="M71.6679 216V214.886L75.1132 211.317C75.4811 210.929 75.7844 210.589 76.023 210.298C76.2649 210.003 76.4456 209.723 76.5649 209.457C76.6842 209.192 76.7439 208.911 76.7439 208.612C76.7439 208.274 76.6643 207.982 76.5052 207.737C76.3461 207.489 76.1291 207.298 75.854 207.165C75.5789 207.03 75.269 206.962 74.9243 206.962C74.5597 206.962 74.2415 207.036 73.9697 207.185C73.6979 207.335 73.4891 207.545 73.3433 207.817C73.1975 208.089 73.1246 208.407 73.1246 208.771H71.6579C71.6579 208.152 71.8005 207.61 72.0855 207.146C72.3705 206.682 72.7616 206.322 73.2588 206.067C73.7559 205.808 74.3211 205.679 74.9541 205.679C75.5938 205.679 76.1572 205.807 76.6444 206.062C77.135 206.314 77.5178 206.658 77.7929 207.096C78.068 207.53 78.2055 208.021 78.2055 208.567C78.2055 208.945 78.1343 209.315 77.9917 209.676C77.8525 210.037 77.6089 210.44 77.2609 210.884C76.9129 211.325 76.429 211.86 75.8092 212.49L73.7858 214.608V214.683H78.3696V216H71.6679ZM83.7986 216.169C83.0131 216.166 82.3419 215.959 81.7851 215.548C81.2282 215.137 80.8023 214.538 80.5074 213.753C80.2124 212.967 80.0649 212.021 80.0649 210.914C80.0649 209.81 80.2124 208.867 80.5074 208.085C80.8057 207.303 81.2332 206.706 81.79 206.295C82.3502 205.884 83.0197 205.679 83.7986 205.679C84.5774 205.679 85.2453 205.886 85.8021 206.3C86.3589 206.711 86.7848 207.308 87.0798 208.09C87.3781 208.869 87.5273 209.81 87.5273 210.914C87.5273 212.024 87.3798 212.972 87.0848 213.758C86.7898 214.54 86.3639 215.138 85.8071 215.553C85.2503 215.964 84.5808 216.169 83.7986 216.169ZM83.7986 214.842C84.488 214.842 85.0265 214.505 85.4143 213.832C85.8054 213.16 86.001 212.187 86.001 210.914C86.001 210.069 85.9115 209.355 85.7325 208.771C85.5568 208.185 85.3033 207.741 84.9719 207.439C84.6437 207.134 84.2526 206.982 83.7986 206.982C83.1125 206.982 82.5739 207.32 82.1828 207.996C81.7917 208.672 81.5945 209.645 81.5912 210.914C81.5912 211.763 81.679 212.48 81.8547 213.067C82.0336 213.65 82.2872 214.093 82.6153 214.394C82.9434 214.692 83.3379 214.842 83.7986 214.842Z" fill="#FFBA08"/>
<path d="M119.878 216V214.886L123.323 211.317C123.691 210.929 123.994 210.589 124.233 210.298C124.475 210.003 124.656 209.723 124.775 209.457C124.894 209.192 124.954 208.911 124.954 208.612C124.954 208.274 124.874 207.982 124.715 207.737C124.556 207.489 124.339 207.298 124.064 207.165C123.789 207.03 123.479 206.962 123.134 206.962C122.77 206.962 122.451 207.036 122.18 207.185C121.908 207.335 121.699 207.545 121.553 207.817C121.407 208.089 121.335 208.407 121.335 208.771H119.868C119.868 208.152 120.01 207.61 120.295 207.146C120.58 206.682 120.972 206.322 121.469 206.067C121.966 205.808 122.531 205.679 123.164 205.679C123.804 205.679 124.367 205.807 124.854 206.062C125.345 206.314 125.728 206.658 126.003 207.096C126.278 207.53 126.415 208.021 126.415 208.567C126.415 208.945 126.344 209.315 126.202 209.676C126.063 210.037 125.819 210.44 125.471 210.884C125.123 211.325 124.639 211.86 124.019 212.49L121.996 214.608V214.683H126.58V216H119.878ZM132.327 205.818V216H130.786V207.359H130.726L128.29 208.95V207.479L130.83 205.818H132.327Z" fill="#FFBA08"/>
<path d="M165.893 216V214.886L169.339 211.317C169.707 210.929 170.01 210.589 170.249 210.298C170.491 210.003 170.671 209.723 170.79 209.457C170.91 209.192 170.969 208.911 170.969 208.612C170.969 208.274 170.89 207.982 170.731 207.737C170.572 207.489 170.355 207.298 170.08 207.165C169.804 207.03 169.495 206.962 169.15 206.962C168.785 206.962 168.467 207.036 168.195 207.185C167.924 207.335 167.715 207.545 167.569 207.817C167.423 208.089 167.35 208.407 167.35 208.771H165.884C165.884 208.152 166.026 207.61 166.311 207.146C166.596 206.682 166.987 206.322 167.484 206.067C167.982 205.808 168.547 205.679 169.18 205.679C169.819 205.679 170.383 205.807 170.87 206.062C171.361 206.314 171.743 206.658 172.018 207.096C172.294 207.53 172.431 208.021 172.431 208.567C172.431 208.945 172.36 209.315 172.217 209.676C172.078 210.037 171.835 210.44 171.487 210.884C171.138 211.325 170.655 211.86 170.035 212.49L168.011 214.608V214.683H172.595V216H165.893ZM174.479 216V214.886L177.925 211.317C178.293 210.929 178.596 210.589 178.835 210.298C179.076 210.003 179.257 209.723 179.376 209.457C179.496 209.192 179.555 208.911 179.555 208.612C179.555 208.274 179.476 207.982 179.317 207.737C179.158 207.489 178.941 207.298 178.665 207.165C178.39 207.03 178.08 206.962 177.736 206.962C177.371 206.962 177.053 207.036 176.781 207.185C176.509 207.335 176.301 207.545 176.155 207.817C176.009 208.089 175.936 208.407 175.936 208.771H174.469C174.469 208.152 174.612 207.61 174.897 207.146C175.182 206.682 175.573 206.322 176.07 206.067C176.567 205.808 177.133 205.679 177.766 205.679C178.405 205.679 178.969 205.807 179.456 206.062C179.946 206.314 180.329 206.658 180.604 207.096C180.879 207.53 181.017 208.021 181.017 208.567C181.017 208.945 180.946 209.315 180.803 209.676C180.664 210.037 180.42 210.44 180.072 210.884C179.724 211.325 179.241 211.86 178.621 212.49L176.597 214.608V214.683H181.181V216H174.479Z" fill="#FFBA08"/>
<path d="M211.675 216V214.886L215.12 211.317C215.488 210.929 215.791 210.589 216.03 210.298C216.272 210.003 216.452 209.723 216.572 209.457C216.691 209.192 216.751 208.911 216.751 208.612C216.751 208.274 216.671 207.982 216.512 207.737C216.353 207.489 216.136 207.298 215.861 207.165C215.586 207.03 215.276 206.962 214.931 206.962C214.567 206.962 214.248 207.036 213.977 207.185C213.705 207.335 213.496 207.545 213.35 207.817C213.204 208.089 213.131 208.407 213.131 208.771H211.665C211.665 208.152 211.807 207.61 212.092 207.146C212.377 206.682 212.768 206.322 213.266 206.067C213.763 205.808 214.328 205.679 214.961 205.679C215.601 205.679 216.164 205.807 216.651 206.062C217.142 206.314 217.525 206.658 217.8 207.096C218.075 207.53 218.212 208.021 218.212 208.567C218.212 208.945 218.141 209.315 217.999 209.676C217.859 210.037 217.616 210.44 217.268 210.884C216.92 211.325 216.436 211.86 215.816 212.49L213.793 214.608V214.683H218.376V216H211.675ZM223.805 216.139C223.123 216.139 222.513 216.022 221.976 215.786C221.442 215.551 221.02 215.224 220.708 214.807C220.4 214.386 220.234 213.899 220.211 213.345H221.772C221.792 213.647 221.893 213.909 222.075 214.131C222.261 214.349 222.503 214.518 222.801 214.638C223.099 214.757 223.431 214.817 223.795 214.817C224.196 214.817 224.551 214.747 224.859 214.608C225.171 214.469 225.415 214.275 225.59 214.026C225.766 213.774 225.854 213.484 225.854 213.156C225.854 212.815 225.766 212.515 225.59 212.256C225.418 211.995 225.164 211.789 224.83 211.64C224.498 211.491 224.097 211.416 223.626 211.416H222.766V210.163H223.626C224.004 210.163 224.336 210.095 224.621 209.96C224.909 209.824 225.134 209.635 225.297 209.393C225.459 209.147 225.54 208.861 225.54 208.533C225.54 208.218 225.469 207.944 225.327 207.712C225.188 207.477 224.989 207.293 224.73 207.161C224.475 207.028 224.173 206.962 223.825 206.962C223.494 206.962 223.184 207.023 222.896 207.146C222.611 207.265 222.379 207.437 222.2 207.663C222.021 207.885 221.924 208.152 221.911 208.463H220.425C220.441 207.913 220.604 207.429 220.912 207.011C221.223 206.594 221.634 206.267 222.145 206.032C222.655 205.797 223.222 205.679 223.845 205.679C224.498 205.679 225.062 205.807 225.536 206.062C226.013 206.314 226.381 206.65 226.639 207.071C226.901 207.492 227.03 207.953 227.027 208.453C227.03 209.023 226.871 209.507 226.55 209.905C226.232 210.303 225.807 210.569 225.277 210.705V210.785C225.953 210.888 226.477 211.156 226.848 211.59C227.223 212.024 227.408 212.563 227.405 213.206C227.408 213.766 227.252 214.268 226.938 214.712C226.626 215.156 226.2 215.506 225.66 215.761C225.12 216.013 224.501 216.139 223.805 216.139Z" fill="#FFBA08"/>
<path d="M257.716 216V214.886L261.161 211.317C261.529 210.929 261.832 210.589 262.071 210.298C262.313 210.003 262.493 209.723 262.613 209.457C262.732 209.192 262.792 208.911 262.792 208.612C262.792 208.274 262.712 207.982 262.553 207.737C262.394 207.489 262.177 207.298 261.902 207.165C261.627 207.03 261.317 206.962 260.972 206.962C260.608 206.962 260.289 207.036 260.018 207.185C259.746 207.335 259.537 207.545 259.391 207.817C259.245 208.089 259.172 208.407 259.172 208.771H257.706C257.706 208.152 257.848 207.61 258.133 207.146C258.418 206.682 258.809 206.322 259.307 206.067C259.804 205.808 260.369 205.679 261.002 205.679C261.642 205.679 262.205 205.807 262.692 206.062C263.183 206.314 263.566 206.658 263.841 207.096C264.116 207.53 264.253 208.021 264.253 208.567C264.253 208.945 264.182 209.315 264.04 209.676C263.9 210.037 263.657 210.44 263.309 210.884C262.961 211.325 262.477 211.86 261.857 212.49L259.834 214.608V214.683H264.417V216H257.716ZM265.869 214.011V212.768L270.269 205.818H271.248V207.648H270.627L267.48 212.629V212.709H273.51V214.011H265.869ZM270.697 216V213.634L270.706 213.067V205.818H272.163V216H270.697Z" fill="#FFBA08"/>
<path d="M305.846 216V214.886L309.291 211.317C309.659 210.929 309.962 210.589 310.201 210.298C310.443 210.003 310.623 209.723 310.743 209.457C310.862 209.192 310.922 208.911 310.922 208.612C310.922 208.274 310.842 207.982 310.683 207.737C310.524 207.489 310.307 207.298 310.032 207.165C309.757 207.03 309.447 206.962 309.102 206.962C308.737 206.962 308.419 207.036 308.147 207.185C307.876 207.335 307.667 207.545 307.521 207.817C307.375 208.089 307.302 208.407 307.302 208.771H305.836C305.836 208.152 305.978 207.61 306.263 207.146C306.548 206.682 306.939 206.322 307.437 206.067C307.934 205.808 308.499 205.679 309.132 205.679C309.772 205.679 310.335 205.807 310.822 206.062C311.313 206.314 311.696 206.658 311.971 207.096C312.246 207.53 312.383 208.021 312.383 208.567C312.383 208.945 312.312 209.315 312.169 209.676C312.03 210.037 311.787 210.44 311.439 210.884C311.091 211.325 310.607 211.86 309.987 212.49L307.964 214.608V214.683H312.547V216H305.846ZM317.792 216.139C317.169 216.139 316.609 216.02 316.112 215.781C315.618 215.539 315.224 215.208 314.929 214.787C314.634 214.366 314.476 213.885 314.456 213.345H315.948C315.984 213.783 316.178 214.142 316.53 214.424C316.881 214.706 317.302 214.847 317.792 214.847C318.183 214.847 318.53 214.757 318.831 214.578C319.136 214.396 319.375 214.146 319.547 213.827C319.723 213.509 319.811 213.146 319.811 212.739C319.811 212.324 319.721 211.955 319.542 211.63C319.363 211.305 319.116 211.05 318.802 210.864C318.49 210.679 318.132 210.584 317.728 210.581C317.419 210.581 317.11 210.634 316.798 210.74C316.486 210.846 316.235 210.985 316.042 211.158L314.635 210.949L315.207 205.818H320.805V207.136H316.485L316.162 209.984H316.221C316.42 209.792 316.684 209.631 317.012 209.502C317.343 209.373 317.698 209.308 318.076 209.308C318.696 209.308 319.247 209.456 319.731 209.751C320.218 210.046 320.601 210.448 320.88 210.959C321.161 211.466 321.301 212.049 321.297 212.709C321.301 213.368 321.151 213.957 320.85 214.474C320.552 214.991 320.137 215.398 319.607 215.697C319.08 215.992 318.475 216.139 317.792 216.139Z" fill="white"/>
<path d="M72.1327 263V261.886L75.578 258.317C75.9459 257.929 76.2492 257.589 76.4878 257.298C76.7298 257.003 76.9104 256.723 77.0297 256.457C77.1491 256.192 77.2087 255.911 77.2087 255.612C77.2087 255.274 77.1292 254.982 76.9701 254.737C76.811 254.489 76.5939 254.298 76.3188 254.165C76.0437 254.03 75.7338 253.962 75.3891 253.962C75.0245 253.962 74.7064 254.036 74.4346 254.185C74.1628 254.335 73.954 254.545 73.8081 254.817C73.6623 255.089 73.5894 255.407 73.5894 255.771H72.1228C72.1228 255.152 72.2653 254.61 72.5503 254.146C72.8354 253.682 73.2265 253.322 73.7236 253.067C74.2208 252.808 74.7859 252.679 75.4189 252.679C76.0586 252.679 76.6221 252.807 77.1093 253.062C77.5998 253.314 77.9826 253.658 78.2577 254.096C78.5328 254.53 78.6704 255.021 78.6704 255.567C78.6704 255.945 78.5991 256.315 78.4566 256.676C78.3174 257.037 78.0738 257.44 77.7258 257.884C77.3778 258.325 76.8939 258.86 76.2741 259.49L74.2506 261.608V261.683H78.8344V263H72.1327ZM81.0617 263L85.5063 254.21V254.136H80.3657V252.818H87.0972V254.18L82.6675 263H81.0617Z" fill="#3C8E20"/>
<path d="M118.764 263V261.886L122.209 258.317C122.577 257.929 122.88 257.589 123.119 257.298C123.361 257.003 123.541 256.723 123.661 256.457C123.78 256.192 123.84 255.911 123.84 255.612C123.84 255.274 123.76 254.982 123.601 254.737C123.442 254.489 123.225 254.298 122.95 254.165C122.675 254.03 122.365 253.962 122.02 253.962C121.655 253.962 121.337 254.036 121.065 254.185C120.794 254.335 120.585 254.545 120.439 254.817C120.293 255.089 120.22 255.407 120.22 255.771H118.754C118.754 255.152 118.896 254.61 119.181 254.146C119.466 253.682 119.857 253.322 120.354 253.067C120.852 252.808 121.417 252.679 122.05 252.679C122.689 252.679 123.253 252.807 123.74 253.062C124.231 253.314 124.613 253.658 124.889 254.096C125.164 254.53 125.301 255.021 125.301 255.567C125.301 255.945 125.23 256.315 125.087 256.676C124.948 257.037 124.705 257.44 124.357 257.884C124.009 258.325 123.525 258.86 122.905 259.49L120.881 261.608V261.683H125.465V263H118.764ZM130.79 263.139C130.077 263.139 129.448 263.017 128.901 262.771C128.357 262.526 127.931 262.188 127.623 261.757C127.315 261.326 127.162 260.836 127.166 260.286C127.162 259.855 127.25 259.459 127.429 259.097C127.611 258.733 127.858 258.429 128.17 258.188C128.481 257.942 128.829 257.786 129.214 257.72V257.661C128.707 257.538 128.301 257.266 127.996 256.845C127.691 256.424 127.54 255.94 127.543 255.393C127.54 254.873 127.678 254.409 127.956 254.001C128.238 253.59 128.624 253.267 129.114 253.032C129.605 252.797 130.163 252.679 130.79 252.679C131.41 252.679 131.963 252.798 132.45 253.037C132.941 253.272 133.327 253.595 133.609 254.006C133.89 254.414 134.033 254.876 134.036 255.393C134.033 255.94 133.877 256.424 133.569 256.845C133.261 257.266 132.86 257.538 132.366 257.661V257.72C132.747 257.786 133.09 257.942 133.395 258.188C133.703 258.429 133.948 258.733 134.131 259.097C134.316 259.459 134.411 259.855 134.414 260.286C134.411 260.836 134.255 261.326 133.947 261.757C133.639 262.188 133.211 262.526 132.664 262.771C132.121 263.017 131.496 263.139 130.79 263.139ZM130.79 261.881C131.211 261.881 131.575 261.812 131.884 261.673C132.192 261.53 132.43 261.333 132.6 261.081C132.769 260.826 132.855 260.527 132.858 260.186C132.855 259.831 132.762 259.518 132.58 259.246C132.401 258.975 132.157 258.761 131.849 258.605C131.541 258.449 131.188 258.371 130.79 258.371C130.389 258.371 130.033 258.449 129.721 258.605C129.409 258.761 129.164 258.975 128.985 259.246C128.806 259.518 128.718 259.831 128.722 260.186C128.718 260.527 128.8 260.826 128.965 261.081C129.134 261.333 129.375 261.53 129.686 261.673C129.998 261.812 130.366 261.881 130.79 261.881ZM130.79 257.143C131.128 257.143 131.428 257.076 131.69 256.94C131.952 256.804 132.157 256.615 132.306 256.373C132.459 256.131 132.537 255.848 132.54 255.523C132.537 255.205 132.46 254.926 132.311 254.688C132.165 254.449 131.962 254.265 131.7 254.136C131.438 254.003 131.135 253.937 130.79 253.937C130.439 253.937 130.13 254.003 129.865 254.136C129.603 254.265 129.399 254.449 129.254 254.688C129.108 254.926 129.037 255.205 129.04 255.523C129.037 255.848 129.109 256.131 129.259 256.373C129.408 256.615 129.613 256.804 129.875 256.94C130.14 257.076 130.445 257.143 130.79 257.143Z" fill="#3C8E20"/>
<path d="M165.736 263V261.886L169.182 258.317C169.549 257.929 169.853 257.589 170.091 257.298C170.333 257.003 170.514 256.723 170.633 256.457C170.753 256.192 170.812 255.911 170.812 255.612C170.812 255.274 170.733 254.982 170.574 254.737C170.415 254.489 170.197 254.298 169.922 254.165C169.647 254.03 169.337 253.962 168.993 253.962C168.628 253.962 168.31 254.036 168.038 254.185C167.766 254.335 167.557 254.545 167.412 254.817C167.266 255.089 167.193 255.407 167.193 255.771H165.726C165.726 255.152 165.869 254.61 166.154 254.146C166.439 253.682 166.83 253.322 167.327 253.067C167.824 252.808 168.389 252.679 169.022 252.679C169.662 252.679 170.226 252.807 170.713 253.062C171.203 253.314 171.586 253.658 171.861 254.096C172.136 254.53 172.274 255.021 172.274 255.567C172.274 255.945 172.203 256.315 172.06 256.676C171.921 257.037 171.677 257.44 171.329 257.884C170.981 258.325 170.497 258.86 169.878 259.49L167.854 261.608V261.683H172.438V263H165.736ZM177.708 252.679C178.162 252.682 178.609 252.765 179.05 252.928C179.491 253.09 179.889 253.355 180.243 253.723C180.601 254.091 180.886 254.588 181.098 255.214C181.314 255.838 181.423 256.613 181.427 257.541C181.427 258.433 181.337 259.227 181.158 259.923C180.979 260.615 180.722 261.2 180.388 261.678C180.056 262.155 179.653 262.518 179.179 262.766C178.705 263.015 178.172 263.139 177.579 263.139C176.972 263.139 176.433 263.02 175.963 262.781C175.492 262.543 175.109 262.213 174.814 261.792C174.519 261.368 174.335 260.88 174.263 260.33H175.779C175.878 260.768 176.08 261.122 176.385 261.394C176.694 261.663 177.091 261.797 177.579 261.797C178.324 261.797 178.906 261.472 179.324 260.822C179.741 260.17 179.952 259.258 179.955 258.088H179.875C179.703 258.373 179.488 258.618 179.229 258.824C178.974 259.029 178.687 259.188 178.369 259.301C178.051 259.414 177.711 259.47 177.35 259.47C176.763 259.47 176.23 259.326 175.749 259.038C175.268 258.749 174.886 258.353 174.601 257.849C174.316 257.346 174.173 256.771 174.173 256.124C174.173 255.481 174.319 254.898 174.611 254.374C174.906 253.851 175.316 253.436 175.843 253.131C176.374 252.823 176.995 252.672 177.708 252.679ZM177.713 253.972C177.325 253.972 176.975 254.068 176.664 254.26C176.356 254.449 176.112 254.706 175.933 255.031C175.754 255.352 175.665 255.71 175.665 256.104C175.665 256.499 175.751 256.857 175.923 257.178C176.099 257.496 176.337 257.75 176.639 257.939C176.944 258.125 177.292 258.217 177.683 258.217C177.975 258.217 178.246 258.161 178.498 258.048C178.75 257.936 178.971 257.78 179.16 257.581C179.348 257.379 179.496 257.15 179.602 256.895C179.708 256.64 179.761 256.371 179.761 256.089C179.761 255.715 179.672 255.367 179.493 255.045C179.317 254.724 179.075 254.465 178.767 254.27C178.459 254.071 178.107 253.972 177.713 253.972Z" fill="#3C8E20"/>
<path d="M214.994 263.139C214.311 263.139 213.701 263.022 213.164 262.786C212.631 262.551 212.208 262.224 211.897 261.807C211.588 261.386 211.423 260.899 211.399 260.345H212.96C212.98 260.647 213.081 260.909 213.264 261.131C213.449 261.349 213.691 261.518 213.99 261.638C214.288 261.757 214.619 261.817 214.984 261.817C215.385 261.817 215.74 261.747 216.048 261.608C216.359 261.469 216.603 261.275 216.779 261.026C216.954 260.774 217.042 260.484 217.042 260.156C217.042 259.815 216.954 259.515 216.779 259.256C216.606 258.995 216.353 258.789 216.018 258.64C215.687 258.491 215.286 258.416 214.815 258.416H213.955V257.163H214.815C215.193 257.163 215.524 257.095 215.809 256.96C216.098 256.824 216.323 256.635 216.485 256.393C216.648 256.147 216.729 255.861 216.729 255.533C216.729 255.218 216.658 254.944 216.515 254.712C216.376 254.477 216.177 254.293 215.919 254.161C215.663 254.028 215.362 253.962 215.014 253.962C214.682 253.962 214.372 254.023 214.084 254.146C213.799 254.265 213.567 254.437 213.388 254.663C213.209 254.885 213.113 255.152 213.1 255.463H211.613C211.63 254.913 211.792 254.429 212.1 254.011C212.412 253.594 212.823 253.267 213.333 253.032C213.844 252.797 214.411 252.679 215.034 252.679C215.687 252.679 216.25 252.807 216.724 253.062C217.201 253.314 217.569 253.65 217.828 254.071C218.09 254.492 218.219 254.953 218.215 255.453C218.219 256.023 218.06 256.507 217.738 256.905C217.42 257.303 216.996 257.569 216.465 257.705V257.785C217.142 257.888 217.665 258.156 218.036 258.59C218.411 259.024 218.597 259.563 218.593 260.206C218.597 260.766 218.441 261.268 218.126 261.712C217.814 262.156 217.389 262.506 216.848 262.761C216.308 263.013 215.69 263.139 214.994 263.139ZM224.017 263.169C223.232 263.166 222.561 262.959 222.004 262.548C221.447 262.137 221.021 261.538 220.726 260.753C220.431 259.967 220.284 259.021 220.284 257.914C220.284 256.81 220.431 255.867 220.726 255.085C221.024 254.303 221.452 253.706 222.009 253.295C222.569 252.884 223.238 252.679 224.017 252.679C224.796 252.679 225.464 252.886 226.021 253.3C226.578 253.711 227.004 254.308 227.299 255.09C227.597 255.869 227.746 256.81 227.746 257.914C227.746 259.024 227.599 259.972 227.304 260.758C227.009 261.54 226.583 262.138 226.026 262.553C225.469 262.964 224.8 263.169 224.017 263.169ZM224.017 261.842C224.707 261.842 225.245 261.505 225.633 260.832C226.024 260.16 226.22 259.187 226.22 257.914C226.22 257.069 226.13 256.355 225.951 255.771C225.776 255.185 225.522 254.741 225.191 254.439C224.862 254.134 224.471 253.982 224.017 253.982C223.331 253.982 222.793 254.32 222.402 254.996C222.01 255.672 221.813 256.645 221.81 257.914C221.81 258.763 221.898 259.48 222.073 260.067C222.252 260.65 222.506 261.093 222.834 261.394C223.162 261.692 223.557 261.842 224.017 261.842Z" fill="#3C8E20"/>
<path d="M262.204 263.139C261.521 263.139 260.911 263.022 260.374 262.786C259.841 262.551 259.418 262.224 259.107 261.807C258.798 261.386 258.633 260.899 258.609 260.345H260.17C260.19 260.647 260.291 260.909 260.474 261.131C260.659 261.349 260.901 261.518 261.2 261.638C261.498 261.757 261.829 261.817 262.194 261.817C262.595 261.817 262.95 261.747 263.258 261.608C263.569 261.469 263.813 261.275 263.989 261.026C264.164 260.774 264.252 260.484 264.252 260.156C264.252 259.815 264.164 259.515 263.989 259.256C263.816 258.995 263.563 258.789 263.228 258.64C262.897 258.491 262.496 258.416 262.025 258.416H261.165V257.163H262.025C262.403 257.163 262.734 257.095 263.019 256.96C263.308 256.824 263.533 256.635 263.695 256.393C263.858 256.147 263.939 255.861 263.939 255.533C263.939 255.218 263.868 254.944 263.725 254.712C263.586 254.477 263.387 254.293 263.129 254.161C262.873 254.028 262.572 253.962 262.224 253.962C261.892 253.962 261.582 254.023 261.294 254.146C261.009 254.265 260.777 254.437 260.598 254.663C260.419 254.885 260.323 255.152 260.31 255.463H258.823C258.84 254.913 259.002 254.429 259.31 254.011C259.622 253.594 260.033 253.267 260.543 253.032C261.054 252.797 261.621 252.679 262.244 252.679C262.897 252.679 263.46 252.807 263.934 253.062C264.411 253.314 264.779 253.65 265.038 254.071C265.299 254.492 265.429 254.953 265.425 255.453C265.429 256.023 265.27 256.507 264.948 256.905C264.63 257.303 264.206 257.569 263.675 257.705V257.785C264.352 257.888 264.875 258.156 265.246 258.59C265.621 259.024 265.807 259.563 265.803 260.206C265.807 260.766 265.651 261.268 265.336 261.712C265.024 262.156 264.598 262.506 264.058 262.761C263.518 263.013 262.9 263.139 262.204 263.139ZM271.545 252.818V263H270.004V254.359H269.945L267.509 255.95V254.479L270.049 252.818H271.545Z" fill="#3C8E20"/>
<rect x="16" y="240" width="35" height="35" rx="5" fill="#65C145"/>
<path opacity="0.2" d="M13 243C13 240.239 15.2386 238 18 238H329C331.761 238 334 240.239 334 243V272C334 274.761 331.761 277 329 277H18C15.2386 277 13 274.761 13 272V243Z" fill="#39BB0B"/>
<path d="M25.7362 263V261.886L29.1816 258.317C29.5494 257.929 29.8527 257.589 30.0914 257.298C30.3333 257.003 30.5139 256.723 30.6333 256.457C30.7526 256.192 30.8122 255.911 30.8122 255.612C30.8122 255.274 30.7327 254.982 30.5736 254.737C30.4145 254.489 30.1974 254.298 29.9223 254.165C29.6472 254.03 29.3373 253.962 28.9926 253.962C28.628 253.962 28.3099 254.036 28.0381 254.185C27.7663 254.335 27.5575 254.545 27.4117 254.817C27.2658 255.089 27.1929 255.407 27.1929 255.771H25.7263C25.7263 255.152 25.8688 254.61 26.1539 254.146C26.4389 253.682 26.83 253.322 27.3271 253.067C27.8243 252.808 28.3894 252.679 29.0225 252.679C29.6621 252.679 30.2256 252.807 30.7128 253.062C31.2033 253.314 31.5861 253.658 31.8612 254.096C32.1363 254.53 32.2739 255.021 32.2739 255.567C32.2739 255.945 32.2026 256.315 32.0601 256.676C31.9209 257.037 31.6773 257.44 31.3293 257.884C30.9813 258.325 30.4974 258.86 29.8776 259.49L27.8541 261.608V261.683H32.4379V263H25.7362ZM37.8769 263.139C37.4228 263.133 36.9753 263.05 36.5345 262.891C36.097 262.732 35.6993 262.466 35.3414 262.095C34.9834 261.724 34.6967 261.225 34.4813 260.599C34.2691 259.972 34.1631 259.19 34.1631 258.252C34.1631 257.364 34.2509 256.575 34.4266 255.886C34.6056 255.196 34.8624 254.615 35.1972 254.141C35.5319 253.663 35.9363 253.3 36.4102 253.052C36.8842 252.803 37.4162 252.679 38.0061 252.679C38.6127 252.679 39.1512 252.798 39.6219 253.037C40.0925 253.276 40.4737 253.605 40.7654 254.026C41.0603 254.447 41.2476 254.926 41.3271 255.463H39.8108C39.7081 255.039 39.5042 254.692 39.1993 254.424C38.8944 254.156 38.4967 254.021 38.0061 254.021C37.2604 254.021 36.6787 254.346 36.2611 254.996C35.8468 255.645 35.638 256.549 35.6347 257.705H35.7093C35.8849 257.417 36.1003 257.172 36.3556 256.969C36.6141 256.764 36.9024 256.607 37.2206 256.497C37.5421 256.384 37.8802 256.328 38.2348 256.328C38.8248 256.328 39.3584 256.472 39.8357 256.761C40.3163 257.046 40.6991 257.44 40.9841 257.944C41.2691 258.448 41.4117 259.024 41.4117 259.674C41.4117 260.324 41.2642 260.912 40.9692 261.439C40.6775 261.966 40.2665 262.384 39.7362 262.692C39.2059 262.997 38.5861 263.146 37.8769 263.139ZM37.8719 261.847C38.263 261.847 38.6127 261.75 38.9209 261.558C39.2291 261.366 39.4727 261.107 39.6517 260.783C39.8307 260.458 39.9202 260.095 39.9202 259.694C39.9202 259.303 39.8324 258.946 39.6567 258.625C39.4843 258.304 39.2457 258.048 38.9408 257.859C38.6392 257.67 38.2945 257.576 37.9067 257.576C37.6117 257.576 37.3383 257.632 37.0864 257.745C36.8378 257.858 36.6191 258.013 36.4301 258.212C36.2412 258.411 36.0921 258.64 35.9827 258.898C35.8766 259.154 35.8236 259.424 35.8236 259.709C35.8236 260.09 35.9114 260.443 36.0871 260.768C36.2661 261.093 36.5097 261.354 36.8179 261.553C37.1295 261.749 37.4808 261.847 37.8719 261.847Z" fill="white"/>
<rect x="37" y="298" width="16" height="16" rx="2" fill="#E2251A" fill-opacity="0.8"/>
<path d="M66.6523 302.434V307.977C66.6523 308.582 66.5293 309.121 66.2832 309.594C66.041 310.066 65.6738 310.439 65.1816 310.713C64.6895 310.982 64.0723 311.117 63.3301 311.117C62.2715 311.117 61.4648 310.83 60.9102 310.256C60.3594 309.682 60.084 308.914 60.084 307.953V302.434H61.0859V307.982C61.0859 308.709 61.2773 309.27 61.6602 309.664C62.0469 310.059 62.623 310.256 63.3887 310.256C63.9121 310.256 64.3398 310.162 64.6719 309.975C65.0078 309.783 65.2559 309.518 65.416 309.178C65.5801 308.834 65.6621 308.438 65.6621 307.988V302.434H66.6523ZM71.0645 311.117C70.252 311.117 69.6074 310.84 69.1309 310.285C68.6582 309.73 68.4219 308.906 68.4219 307.812C68.4219 306.707 68.6641 305.873 69.1484 305.311C69.6328 304.744 70.2773 304.461 71.082 304.461C71.4219 304.461 71.7188 304.506 71.9727 304.596C72.2266 304.686 72.4453 304.807 72.6289 304.959C72.8125 305.107 72.9668 305.277 73.0918 305.469H73.1621C73.1465 305.348 73.1309 305.182 73.1152 304.971C73.0996 304.76 73.0918 304.588 73.0918 304.455V301.883H74.0645V311H73.2793L73.1328 310.086H73.0918C72.9707 310.277 72.8164 310.451 72.6289 310.607C72.4453 310.764 72.2246 310.889 71.9668 310.982C71.7129 311.072 71.4121 311.117 71.0645 311.117ZM71.2168 310.309C71.9043 310.309 72.3906 310.113 72.6758 309.723C72.9609 309.332 73.1035 308.752 73.1035 307.982V307.807C73.1035 306.99 72.9668 306.363 72.6934 305.926C72.4238 305.488 71.9316 305.27 71.2168 305.27C70.6191 305.27 70.1719 305.5 69.875 305.961C69.5781 306.418 69.4297 307.043 69.4297 307.836C69.4297 308.625 69.5762 309.234 69.8691 309.664C70.166 310.094 70.6152 310.309 71.2168 310.309ZM80.2812 309.242C80.2812 309.652 80.1777 309.998 79.9707 310.279C79.7676 310.557 79.4746 310.766 79.0918 310.906C78.7129 311.047 78.2598 311.117 77.7324 311.117C77.2832 311.117 76.8945 311.082 76.5664 311.012C76.2383 310.941 75.9512 310.842 75.7051 310.713V309.816C75.9668 309.945 76.2793 310.062 76.6426 310.168C77.0059 310.273 77.377 310.326 77.7559 310.326C78.3105 310.326 78.7129 310.236 78.9629 310.057C79.2129 309.877 79.3379 309.633 79.3379 309.324C79.3379 309.148 79.2871 308.994 79.1855 308.861C79.0879 308.725 78.9219 308.594 78.6875 308.469C78.4531 308.34 78.1289 308.199 77.7148 308.047C77.3047 307.891 76.9492 307.736 76.6484 307.584C76.3516 307.428 76.1211 307.238 75.957 307.016C75.7969 306.793 75.7168 306.504 75.7168 306.148C75.7168 305.605 75.9355 305.189 76.373 304.9C76.8145 304.607 77.3926 304.461 78.1074 304.461C78.4941 304.461 78.8555 304.5 79.1914 304.578C79.5312 304.652 79.8477 304.754 80.1406 304.883L79.8125 305.662C79.5469 305.549 79.2637 305.453 78.9629 305.375C78.6621 305.297 78.3555 305.258 78.043 305.258C77.5938 305.258 77.248 305.332 77.0059 305.48C76.7676 305.629 76.6484 305.832 76.6484 306.09C76.6484 306.289 76.7031 306.453 76.8125 306.582C76.9258 306.711 77.1055 306.832 77.3516 306.945C77.5977 307.059 77.9219 307.191 78.3242 307.344C78.7266 307.492 79.0742 307.646 79.3672 307.807C79.6602 307.963 79.8848 308.154 80.041 308.381C80.2012 308.604 80.2812 308.891 80.2812 309.242ZM87.3828 307.777C87.3828 308.305 87.3145 308.775 87.1777 309.189C87.041 309.604 86.8438 309.953 86.5859 310.238C86.3281 310.523 86.0156 310.742 85.6484 310.895C85.2852 311.043 84.873 311.117 84.4121 311.117C83.9824 311.117 83.5879 311.043 83.2285 310.895C82.873 310.742 82.5645 310.523 82.3027 310.238C82.0449 309.953 81.8438 309.604 81.6992 309.189C81.5586 308.775 81.4883 308.305 81.4883 307.777C81.4883 307.074 81.6074 306.477 81.8457 305.984C82.084 305.488 82.4238 305.111 82.8652 304.854C83.3105 304.592 83.8398 304.461 84.4531 304.461C85.0391 304.461 85.5508 304.592 85.9883 304.854C86.4297 305.115 86.7715 305.494 87.0137 305.99C87.2598 306.482 87.3828 307.078 87.3828 307.777ZM82.4961 307.777C82.4961 308.293 82.5645 308.74 82.7012 309.119C82.8379 309.498 83.0488 309.791 83.334 309.998C83.6191 310.205 83.9863 310.309 84.4355 310.309C84.8809 310.309 85.2461 310.205 85.5312 309.998C85.8203 309.791 86.0332 309.498 86.1699 309.119C86.3066 308.74 86.375 308.293 86.375 307.777C86.375 307.266 86.3066 306.824 86.1699 306.453C86.0332 306.078 85.8223 305.789 85.5371 305.586C85.252 305.383 84.8828 305.281 84.4297 305.281C83.7617 305.281 83.2715 305.502 82.959 305.943C82.6504 306.385 82.4961 306.996 82.4961 307.777ZM90.043 311H89.0645V301.883H90.043V311ZM93.8926 313.883C93.0488 313.883 92.3984 313.725 91.9414 313.408C91.4844 313.096 91.2559 312.656 91.2559 312.09C91.2559 311.688 91.3828 311.344 91.6367 311.059C91.8945 310.773 92.25 310.584 92.7031 310.49C92.5352 310.412 92.3906 310.295 92.2695 310.139C92.1523 309.982 92.0938 309.803 92.0938 309.6C92.0938 309.365 92.1582 309.16 92.2871 308.984C92.4199 308.805 92.6211 308.633 92.8906 308.469C92.5547 308.332 92.2812 308.102 92.0703 307.777C91.8633 307.449 91.7598 307.068 91.7598 306.635C91.7598 306.174 91.8555 305.781 92.0469 305.457C92.2383 305.129 92.5156 304.879 92.8789 304.707C93.2422 304.535 93.6816 304.449 94.1973 304.449C94.3105 304.449 94.4238 304.455 94.5371 304.467C94.6543 304.475 94.7656 304.488 94.8711 304.508C94.9766 304.523 95.0684 304.543 95.1465 304.566H97.3496V305.193L96.166 305.34C96.2832 305.492 96.3809 305.676 96.459 305.891C96.5371 306.105 96.5762 306.344 96.5762 306.605C96.5762 307.246 96.3594 307.756 95.9258 308.135C95.4922 308.51 94.8965 308.697 94.1387 308.697C93.959 308.697 93.7754 308.682 93.5879 308.65C93.3965 308.756 93.25 308.873 93.1484 309.002C93.0508 309.131 93.002 309.279 93.002 309.447C93.002 309.572 93.0391 309.672 93.1133 309.746C93.1914 309.82 93.3027 309.875 93.4473 309.91C93.5918 309.941 93.7656 309.957 93.9688 309.957H95.0996C95.7988 309.957 96.334 310.104 96.7051 310.396C97.0801 310.689 97.2676 311.117 97.2676 311.68C97.2676 312.391 96.9785 312.936 96.4004 313.314C95.8223 313.693 94.9863 313.883 93.8926 313.883ZM93.9219 313.121C94.4531 313.121 94.8926 313.066 95.2402 312.957C95.5918 312.852 95.8535 312.697 96.0254 312.494C96.2012 312.295 96.2891 312.057 96.2891 311.779C96.2891 311.521 96.2305 311.326 96.1133 311.193C95.9961 311.064 95.8242 310.979 95.5977 310.936C95.3711 310.889 95.0938 310.865 94.7656 310.865H93.6523C93.3633 310.865 93.1113 310.91 92.8965 311C92.6816 311.09 92.5156 311.223 92.3984 311.398C92.2852 311.574 92.2285 311.793 92.2285 312.055C92.2285 312.402 92.375 312.666 92.668 312.846C92.9609 313.029 93.3789 313.121 93.9219 313.121ZM94.1738 307.988C94.6387 307.988 94.9883 307.871 95.2227 307.637C95.457 307.402 95.5742 307.061 95.5742 306.611C95.5742 306.131 95.4551 305.771 95.2168 305.533C94.9785 305.291 94.627 305.17 94.1621 305.17C93.7168 305.17 93.373 305.295 93.1309 305.545C92.8926 305.791 92.7734 306.152 92.7734 306.629C92.7734 307.066 92.8945 307.402 93.1367 307.637C93.3789 307.871 93.7246 307.988 94.1738 307.988ZM100.689 310.32C100.85 310.32 101.014 310.307 101.182 310.279C101.35 310.252 101.486 310.219 101.592 310.18V310.936C101.479 310.986 101.32 311.029 101.117 311.064C100.918 311.1 100.723 311.117 100.531 311.117C100.191 311.117 99.8828 311.059 99.6055 310.941C99.3281 310.82 99.1055 310.617 98.9375 310.332C98.7734 310.047 98.6914 309.652 98.6914 309.148V305.34H97.7773V304.865L98.6973 304.484L99.084 303.09H99.6699V304.578H101.551V305.34H99.6699V309.119C99.6699 309.521 99.7617 309.822 99.9453 310.021C100.133 310.221 100.381 310.32 100.689 310.32Z" fill="black"/>
<rect x="134" y="298" width="16" height="16" rx="2" fill="#FFBA08" fill-opacity="0.8"/>
<path d="M160.213 311H159.264V304.93C159.264 304.699 159.264 304.502 159.264 304.338C159.268 304.17 159.271 304.018 159.275 303.881C159.283 303.74 159.293 303.598 159.305 303.453C159.184 303.578 159.07 303.686 158.965 303.775C158.859 303.861 158.729 303.969 158.572 304.098L157.594 304.883L157.084 304.221L159.404 302.434H160.213V311ZM170.027 304.461C170.828 304.461 171.467 304.736 171.943 305.287C172.42 305.838 172.658 306.666 172.658 307.771C172.658 308.502 172.549 309.115 172.33 309.611C172.111 310.107 171.803 310.482 171.404 310.736C171.01 310.99 170.543 311.117 170.004 311.117C169.664 311.117 169.365 311.072 169.107 310.982C168.85 310.893 168.629 310.771 168.445 310.619C168.262 310.467 168.109 310.301 167.988 310.121H167.918C167.93 310.273 167.943 310.457 167.959 310.672C167.979 310.887 167.988 311.074 167.988 311.234V313.871H167.01V304.578H167.812L167.941 305.527H167.988C168.113 305.332 168.266 305.154 168.445 304.994C168.625 304.83 168.844 304.701 169.102 304.607C169.363 304.51 169.672 304.461 170.027 304.461ZM169.857 305.281C169.412 305.281 169.053 305.367 168.779 305.539C168.51 305.711 168.312 305.969 168.188 306.312C168.062 306.652 167.996 307.08 167.988 307.596V307.783C167.988 308.326 168.047 308.785 168.164 309.16C168.285 309.535 168.482 309.82 168.756 310.016C169.033 310.211 169.404 310.309 169.869 310.309C170.268 310.309 170.6 310.201 170.865 309.986C171.131 309.771 171.328 309.473 171.457 309.09C171.59 308.703 171.656 308.26 171.656 307.76C171.656 307.002 171.508 306.4 171.211 305.955C170.918 305.506 170.467 305.281 169.857 305.281ZM175.336 311H174.357V301.883H175.336V311ZM179.795 304.473C180.561 304.473 181.129 304.645 181.5 304.988C181.871 305.332 182.057 305.881 182.057 306.635V311H181.348L181.16 310.051H181.113C180.934 310.285 180.746 310.482 180.551 310.643C180.355 310.799 180.129 310.918 179.871 311C179.617 311.078 179.305 311.117 178.934 311.117C178.543 311.117 178.195 311.049 177.891 310.912C177.59 310.775 177.352 310.568 177.176 310.291C177.004 310.014 176.918 309.662 176.918 309.236C176.918 308.596 177.172 308.104 177.68 307.76C178.188 307.416 178.961 307.229 180 307.197L181.107 307.15V306.758C181.107 306.203 180.988 305.814 180.75 305.592C180.512 305.369 180.176 305.258 179.742 305.258C179.406 305.258 179.086 305.307 178.781 305.404C178.477 305.502 178.188 305.617 177.914 305.75L177.615 305.012C177.904 304.863 178.236 304.736 178.611 304.631C178.986 304.525 179.381 304.473 179.795 304.473ZM181.096 307.836L180.117 307.877C179.316 307.908 178.752 308.039 178.424 308.27C178.096 308.5 177.932 308.826 177.932 309.248C177.932 309.615 178.043 309.887 178.266 310.062C178.488 310.238 178.783 310.326 179.15 310.326C179.721 310.326 180.188 310.168 180.551 309.852C180.914 309.535 181.096 309.061 181.096 308.428V307.836ZM186.346 311.117C185.533 311.117 184.889 310.84 184.412 310.285C183.939 309.73 183.703 308.906 183.703 307.812C183.703 306.707 183.945 305.873 184.43 305.311C184.914 304.744 185.559 304.461 186.363 304.461C186.703 304.461 187 304.506 187.254 304.596C187.508 304.686 187.727 304.807 187.91 304.959C188.094 305.107 188.248 305.277 188.373 305.469H188.443C188.428 305.348 188.412 305.182 188.396 304.971C188.381 304.76 188.373 304.588 188.373 304.455V301.883H189.346V311H188.561L188.414 310.086H188.373C188.252 310.277 188.098 310.451 187.91 310.607C187.727 310.764 187.506 310.889 187.248 310.982C186.994 311.072 186.693 311.117 186.346 311.117ZM186.498 310.309C187.186 310.309 187.672 310.113 187.957 309.723C188.242 309.332 188.385 308.752 188.385 307.982V307.807C188.385 306.99 188.248 306.363 187.975 305.926C187.705 305.488 187.213 305.27 186.498 305.27C185.9 305.27 185.453 305.5 185.156 305.961C184.859 306.418 184.711 307.043 184.711 307.836C184.711 308.625 184.857 309.234 185.15 309.664C185.447 310.094 185.896 310.309 186.498 310.309ZM195.562 309.242C195.562 309.652 195.459 309.998 195.252 310.279C195.049 310.557 194.756 310.766 194.373 310.906C193.994 311.047 193.541 311.117 193.014 311.117C192.564 311.117 192.176 311.082 191.848 311.012C191.52 310.941 191.232 310.842 190.986 310.713V309.816C191.248 309.945 191.561 310.062 191.924 310.168C192.287 310.273 192.658 310.326 193.037 310.326C193.592 310.326 193.994 310.236 194.244 310.057C194.494 309.877 194.619 309.633 194.619 309.324C194.619 309.148 194.568 308.994 194.467 308.861C194.369 308.725 194.203 308.594 193.969 308.469C193.734 308.34 193.41 308.199 192.996 308.047C192.586 307.891 192.23 307.736 191.93 307.584C191.633 307.428 191.402 307.238 191.238 307.016C191.078 306.793 190.998 306.504 190.998 306.148C190.998 305.605 191.217 305.189 191.654 304.9C192.096 304.607 192.674 304.461 193.389 304.461C193.775 304.461 194.137 304.5 194.473 304.578C194.812 304.652 195.129 304.754 195.422 304.883L195.094 305.662C194.828 305.549 194.545 305.453 194.244 305.375C193.943 305.297 193.637 305.258 193.324 305.258C192.875 305.258 192.529 305.332 192.287 305.48C192.049 305.629 191.93 305.832 191.93 306.09C191.93 306.289 191.984 306.453 192.094 306.582C192.207 306.711 192.387 306.832 192.633 306.945C192.879 307.059 193.203 307.191 193.605 307.344C194.008 307.492 194.355 307.646 194.648 307.807C194.941 307.963 195.166 308.154 195.322 308.381C195.482 308.604 195.562 308.891 195.562 309.242ZM202.318 310.32C202.479 310.32 202.643 310.307 202.811 310.279C202.979 310.252 203.115 310.219 203.221 310.18V310.936C203.107 310.986 202.949 311.029 202.746 311.064C202.547 311.1 202.352 311.117 202.16 311.117C201.82 311.117 201.512 311.059 201.234 310.941C200.957 310.82 200.734 310.617 200.566 310.332C200.402 310.047 200.32 309.652 200.32 309.148V305.34H199.406V304.865L200.326 304.484L200.713 303.09H201.299V304.578H203.18V305.34H201.299V309.119C201.299 309.521 201.391 309.822 201.574 310.021C201.762 310.221 202.01 310.32 202.318 310.32ZM205.494 304.578V311H204.521V304.578H205.494ZM205.02 302.176C205.18 302.176 205.316 302.229 205.43 302.334C205.547 302.436 205.605 302.596 205.605 302.814C205.605 303.029 205.547 303.189 205.43 303.295C205.316 303.4 205.18 303.453 205.02 303.453C204.852 303.453 204.711 303.4 204.598 303.295C204.488 303.189 204.434 303.029 204.434 302.814C204.434 302.596 204.488 302.436 204.598 302.334C204.711 302.229 204.852 302.176 205.02 302.176ZM208.535 311H207.557V301.883H208.535V311ZM211.564 301.883V304.162C211.564 304.424 211.557 304.678 211.541 304.924C211.529 305.17 211.52 305.361 211.512 305.498H211.564C211.74 305.209 211.994 304.965 212.326 304.766C212.658 304.566 213.082 304.467 213.598 304.467C214.402 304.467 215.043 304.746 215.52 305.305C216 305.859 216.24 306.686 216.24 307.783C216.24 308.506 216.131 309.115 215.912 309.611C215.693 310.107 215.385 310.482 214.986 310.736C214.588 310.99 214.117 311.117 213.574 311.117C213.066 311.117 212.648 311.023 212.32 310.836C211.996 310.645 211.746 310.412 211.57 310.139H211.494L211.295 311H210.592V301.883H211.564ZM213.439 305.281C212.975 305.281 212.605 305.373 212.332 305.557C212.059 305.736 211.861 306.01 211.74 306.377C211.623 306.74 211.564 307.201 211.564 307.76V307.812C211.564 308.621 211.699 309.24 211.969 309.67C212.238 310.096 212.729 310.309 213.439 310.309C214.037 310.309 214.484 310.09 214.781 309.652C215.082 309.215 215.232 308.59 215.232 307.777C215.232 306.949 215.084 306.326 214.787 305.908C214.494 305.49 214.045 305.281 213.439 305.281ZM220.342 304.473C221.107 304.473 221.676 304.645 222.047 304.988C222.418 305.332 222.604 305.881 222.604 306.635V311H221.895L221.707 310.051H221.66C221.48 310.285 221.293 310.482 221.098 310.643C220.902 310.799 220.676 310.918 220.418 311C220.164 311.078 219.852 311.117 219.48 311.117C219.09 311.117 218.742 311.049 218.438 310.912C218.137 310.775 217.898 310.568 217.723 310.291C217.551 310.014 217.465 309.662 217.465 309.236C217.465 308.596 217.719 308.104 218.227 307.76C218.734 307.416 219.508 307.229 220.547 307.197L221.654 307.15V306.758C221.654 306.203 221.535 305.814 221.297 305.592C221.059 305.369 220.723 305.258 220.289 305.258C219.953 305.258 219.633 305.307 219.328 305.404C219.023 305.502 218.734 305.617 218.461 305.75L218.162 305.012C218.451 304.863 218.783 304.736 219.158 304.631C219.533 304.525 219.928 304.473 220.342 304.473ZM221.643 307.836L220.664 307.877C219.863 307.908 219.299 308.039 218.971 308.27C218.643 308.5 218.479 308.826 218.479 309.248C218.479 309.615 218.59 309.887 218.812 310.062C219.035 310.238 219.33 310.326 219.697 310.326C220.268 310.326 220.734 310.168 221.098 309.852C221.461 309.535 221.643 309.061 221.643 308.428V307.836ZM226.4 313.883C225.557 313.883 224.906 313.725 224.449 313.408C223.992 313.096 223.764 312.656 223.764 312.09C223.764 311.688 223.891 311.344 224.145 311.059C224.402 310.773 224.758 310.584 225.211 310.49C225.043 310.412 224.898 310.295 224.777 310.139C224.66 309.982 224.602 309.803 224.602 309.6C224.602 309.365 224.666 309.16 224.795 308.984C224.928 308.805 225.129 308.633 225.398 308.469C225.062 308.332 224.789 308.102 224.578 307.777C224.371 307.449 224.268 307.068 224.268 306.635C224.268 306.174 224.363 305.781 224.555 305.457C224.746 305.129 225.023 304.879 225.387 304.707C225.75 304.535 226.189 304.449 226.705 304.449C226.818 304.449 226.932 304.455 227.045 304.467C227.162 304.475 227.273 304.488 227.379 304.508C227.484 304.523 227.576 304.543 227.654 304.566H229.857V305.193L228.674 305.34C228.791 305.492 228.889 305.676 228.967 305.891C229.045 306.105 229.084 306.344 229.084 306.605C229.084 307.246 228.867 307.756 228.434 308.135C228 308.51 227.404 308.697 226.646 308.697C226.467 308.697 226.283 308.682 226.096 308.65C225.904 308.756 225.758 308.873 225.656 309.002C225.559 309.131 225.51 309.279 225.51 309.447C225.51 309.572 225.547 309.672 225.621 309.746C225.699 309.82 225.811 309.875 225.955 309.91C226.1 309.941 226.273 309.957 226.477 309.957H227.607C228.307 309.957 228.842 310.104 229.213 310.396C229.588 310.689 229.775 311.117 229.775 311.68C229.775 312.391 229.486 312.936 228.908 313.314C228.33 313.693 227.494 313.883 226.4 313.883ZM226.43 313.121C226.961 313.121 227.4 313.066 227.748 312.957C228.1 312.852 228.361 312.697 228.533 312.494C228.709 312.295 228.797 312.057 228.797 311.779C228.797 311.521 228.738 311.326 228.621 311.193C228.504 311.064 228.332 310.979 228.105 310.936C227.879 310.889 227.602 310.865 227.273 310.865H226.16C225.871 310.865 225.619 310.91 225.404 311C225.189 311.09 225.023 311.223 224.906 311.398C224.793 311.574 224.736 311.793 224.736 312.055C224.736 312.402 224.883 312.666 225.176 312.846C225.469 313.029 225.887 313.121 226.43 313.121ZM226.682 307.988C227.146 307.988 227.496 307.871 227.73 307.637C227.965 307.402 228.082 307.061 228.082 306.611C228.082 306.131 227.963 305.771 227.725 305.533C227.486 305.291 227.135 305.17 226.67 305.17C226.225 305.17 225.881 305.295 225.639 305.545C225.4 305.791 225.281 306.152 225.281 306.629C225.281 307.066 225.402 307.402 225.645 307.637C225.887 307.871 226.232 307.988 226.682 307.988ZM233.596 304.461C234.143 304.461 234.611 304.582 235.002 304.824C235.393 305.066 235.691 305.406 235.898 305.844C236.105 306.277 236.209 306.785 236.209 307.367V307.971H231.773C231.785 308.725 231.973 309.299 232.336 309.693C232.699 310.088 233.211 310.285 233.871 310.285C234.277 310.285 234.637 310.248 234.949 310.174C235.262 310.1 235.586 309.99 235.922 309.846V310.701C235.598 310.846 235.275 310.951 234.955 311.018C234.639 311.084 234.264 311.117 233.83 311.117C233.213 311.117 232.674 310.992 232.213 310.742C231.756 310.488 231.4 310.117 231.146 309.629C230.893 309.141 230.766 308.543 230.766 307.836C230.766 307.145 230.881 306.547 231.111 306.043C231.346 305.535 231.674 305.145 232.096 304.871C232.521 304.598 233.021 304.461 233.596 304.461ZM233.584 305.258C233.064 305.258 232.65 305.428 232.342 305.768C232.033 306.107 231.85 306.582 231.791 307.191H235.189C235.186 306.809 235.125 306.473 235.008 306.184C234.895 305.891 234.721 305.664 234.486 305.504C234.252 305.34 233.951 305.258 233.584 305.258Z" fill="black"/>
<rect x="269" y="298" width="16" height="16" rx="2" fill="#5CC039" fill-opacity="0.8"/>
<path d="M292.172 311V302.434H293.168V310.109H296.971V311H292.172ZM300.768 304.461C301.314 304.461 301.783 304.582 302.174 304.824C302.564 305.066 302.863 305.406 303.07 305.844C303.277 306.277 303.381 306.785 303.381 307.367V307.971H298.945C298.957 308.725 299.145 309.299 299.508 309.693C299.871 310.088 300.383 310.285 301.043 310.285C301.449 310.285 301.809 310.248 302.121 310.174C302.434 310.1 302.758 309.99 303.094 309.846V310.701C302.77 310.846 302.447 310.951 302.127 311.018C301.811 311.084 301.436 311.117 301.002 311.117C300.385 311.117 299.846 310.992 299.385 310.742C298.928 310.488 298.572 310.117 298.318 309.629C298.064 309.141 297.938 308.543 297.938 307.836C297.938 307.145 298.053 306.547 298.283 306.043C298.518 305.535 298.846 305.145 299.268 304.871C299.693 304.598 300.193 304.461 300.768 304.461ZM300.756 305.258C300.236 305.258 299.822 305.428 299.514 305.768C299.205 306.107 299.021 306.582 298.963 307.191H302.361C302.357 306.809 302.297 306.473 302.18 306.184C302.066 305.891 301.893 305.664 301.658 305.504C301.424 305.34 301.123 305.258 300.756 305.258ZM307.318 311.117C306.506 311.117 305.861 310.84 305.385 310.285C304.912 309.73 304.676 308.906 304.676 307.812C304.676 306.707 304.918 305.873 305.402 305.311C305.887 304.744 306.531 304.461 307.336 304.461C307.676 304.461 307.973 304.506 308.227 304.596C308.48 304.686 308.699 304.807 308.883 304.959C309.066 305.107 309.221 305.277 309.346 305.469H309.416C309.4 305.348 309.385 305.182 309.369 304.971C309.354 304.76 309.346 304.588 309.346 304.455V301.883H310.318V311H309.533L309.387 310.086H309.346C309.225 310.277 309.07 310.451 308.883 310.607C308.699 310.764 308.479 310.889 308.221 310.982C307.967 311.072 307.666 311.117 307.318 311.117ZM307.471 310.309C308.158 310.309 308.645 310.113 308.93 309.723C309.215 309.332 309.357 308.752 309.357 307.982V307.807C309.357 306.99 309.221 306.363 308.947 305.926C308.678 305.488 308.186 305.27 307.471 305.27C306.873 305.27 306.426 305.5 306.129 305.961C305.832 306.418 305.684 307.043 305.684 307.836C305.684 308.625 305.83 309.234 306.123 309.664C306.42 310.094 306.869 310.309 307.471 310.309ZM313.354 304.578V311H312.381V304.578H313.354ZM312.879 302.176C313.039 302.176 313.176 302.229 313.289 302.334C313.406 302.436 313.465 302.596 313.465 302.814C313.465 303.029 313.406 303.189 313.289 303.295C313.176 303.4 313.039 303.453 312.879 303.453C312.711 303.453 312.57 303.4 312.457 303.295C312.348 303.189 312.293 303.029 312.293 302.814C312.293 302.596 312.348 302.436 312.457 302.334C312.57 302.229 312.711 302.176 312.879 302.176ZM317.209 313.883C316.365 313.883 315.715 313.725 315.258 313.408C314.801 313.096 314.572 312.656 314.572 312.09C314.572 311.688 314.699 311.344 314.953 311.059C315.211 310.773 315.566 310.584 316.02 310.49C315.852 310.412 315.707 310.295 315.586 310.139C315.469 309.982 315.41 309.803 315.41 309.6C315.41 309.365 315.475 309.16 315.604 308.984C315.736 308.805 315.938 308.633 316.207 308.469C315.871 308.332 315.598 308.102 315.387 307.777C315.18 307.449 315.076 307.068 315.076 306.635C315.076 306.174 315.172 305.781 315.363 305.457C315.555 305.129 315.832 304.879 316.195 304.707C316.559 304.535 316.998 304.449 317.514 304.449C317.627 304.449 317.74 304.455 317.854 304.467C317.971 304.475 318.082 304.488 318.188 304.508C318.293 304.523 318.385 304.543 318.463 304.566H320.666V305.193L319.482 305.34C319.6 305.492 319.697 305.676 319.775 305.891C319.854 306.105 319.893 306.344 319.893 306.605C319.893 307.246 319.676 307.756 319.242 308.135C318.809 308.51 318.213 308.697 317.455 308.697C317.275 308.697 317.092 308.682 316.904 308.65C316.713 308.756 316.566 308.873 316.465 309.002C316.367 309.131 316.318 309.279 316.318 309.447C316.318 309.572 316.355 309.672 316.43 309.746C316.508 309.82 316.619 309.875 316.764 309.91C316.908 309.941 317.082 309.957 317.285 309.957H318.416C319.115 309.957 319.65 310.104 320.021 310.396C320.396 310.689 320.584 311.117 320.584 311.68C320.584 312.391 320.295 312.936 319.717 313.314C319.139 313.693 318.303 313.883 317.209 313.883ZM317.238 313.121C317.77 313.121 318.209 313.066 318.557 312.957C318.908 312.852 319.17 312.697 319.342 312.494C319.518 312.295 319.605 312.057 319.605 311.779C319.605 311.521 319.547 311.326 319.43 311.193C319.312 311.064 319.141 310.979 318.914 310.936C318.688 310.889 318.41 310.865 318.082 310.865H316.969C316.68 310.865 316.428 310.91 316.213 311C315.998 311.09 315.832 311.223 315.715 311.398C315.602 311.574 315.545 311.793 315.545 312.055C315.545 312.402 315.691 312.666 315.984 312.846C316.277 313.029 316.695 313.121 317.238 313.121ZM317.49 307.988C317.955 307.988 318.305 307.871 318.539 307.637C318.773 307.402 318.891 307.061 318.891 306.611C318.891 306.131 318.771 305.771 318.533 305.533C318.295 305.291 317.943 305.17 317.479 305.17C317.033 305.17 316.689 305.295 316.447 305.545C316.209 305.791 316.09 306.152 316.09 306.629C316.09 307.066 316.211 307.402 316.453 307.637C316.695 307.871 317.041 307.988 317.49 307.988ZM324.006 310.32C324.166 310.32 324.33 310.307 324.498 310.279C324.666 310.252 324.803 310.219 324.908 310.18V310.936C324.795 310.986 324.637 311.029 324.434 311.064C324.234 311.1 324.039 311.117 323.848 311.117C323.508 311.117 323.199 311.059 322.922 310.941C322.645 310.82 322.422 310.617 322.254 310.332C322.09 310.047 322.008 309.652 322.008 309.148V305.34H321.094V304.865L322.014 304.484L322.4 303.09H322.986V304.578H324.867V305.34H322.986V309.119C322.986 309.521 323.078 309.822 323.262 310.021C323.449 310.221 323.697 310.32 324.006 310.32Z" fill="black"/>
<path fill-rule="evenodd" clip-rule="evenodd" d="M16.4902 22.3721C16.4536 22.4169 16.4336 22.4729 16.4336 22.5308C16.4336 22.5886 16.4536 22.6447 16.4902 22.6895L19.2439 26.0556C19.4457 26.3023 19.5221 26.6337 19.3772 26.9172C19.2765 27.114 19.13 27.3434 18.925 27.5445C18.7174 27.748 18.4795 27.8929 18.2767 27.9914C17.9911 28.1306 17.6607 28.0529 17.4218 27.8435C15.7391 26.3722 14.0234 24.3849 13.189 23.1061C12.9564 22.7494 12.9318 22.3009 13.1524 21.9364C13.9271 20.6568 15.7326 18.6818 17.421 17.217C17.661 17.0089 17.9911 16.931 18.2767 17.0701C18.4795 17.1689 18.7171 17.3135 18.925 17.5174C19.1298 17.7182 19.2765 17.9476 19.3772 18.1444C19.5221 18.4279 19.4457 18.7593 19.2439 19.006L16.4902 22.3721Z" fill="#2C88F4"/>
<path d="M24.594 24.38H27.542C27.63 25.1573 27.8427 25.766 28.18 26.206C28.5173 26.646 29.0233 26.866 29.698 26.866C30.3873 26.866 30.9227 26.6167 31.304 26.118C31.6853 25.6047 31.876 24.8933 31.876 23.984V14.04H34.824V23.764C34.824 25.48 34.362 26.8367 33.438 27.834C32.5287 28.8313 31.282 29.33 29.698 29.33C28.1727 29.33 26.9627 28.8827 26.068 27.988C25.188 27.0933 24.6967 25.8907 24.594 24.38ZM47.9502 17.208V29H45.1342V17.208H47.9502ZM45.1342 24.05H46.0362C45.9775 25.238 45.7502 26.228 45.3542 27.02C44.9728 27.7973 44.4668 28.3767 43.8362 28.758C43.2202 29.1393 42.5088 29.33 41.7022 29.33C40.9395 29.33 40.2575 29.176 39.6562 28.868C39.0695 28.5453 38.6148 28.0687 38.2922 27.438C37.9695 26.8073 37.8082 26.0227 37.8082 25.084V17.208H40.6242V24.512C40.6242 25.04 40.6975 25.4947 40.8442 25.876C40.9908 26.2427 41.2108 26.5213 41.5042 26.712C41.8122 26.9027 42.2008 26.998 42.6702 26.998C43.0515 26.998 43.3888 26.9247 43.6822 26.778C43.9902 26.6167 44.2468 26.3967 44.4522 26.118C44.6722 25.8393 44.8408 25.524 44.9582 25.172C45.0755 24.82 45.1342 24.446 45.1342 24.05ZM50.8984 29V17.208H53.7144V29H50.8984ZM53.7144 22.158H52.8124C52.8857 20.97 53.1131 19.9873 53.4944 19.21C53.8757 18.4327 54.3817 17.8533 55.0124 17.472C55.6577 17.076 56.3911 16.878 57.2124 16.878C58.0044 16.878 58.6937 17.0393 59.2804 17.362C59.8817 17.67 60.3437 18.1393 60.6664 18.77C61.0037 19.4007 61.1724 20.1927 61.1724 21.146V29H58.3564V21.718C58.3564 21.1753 58.2757 20.7207 58.1144 20.354C57.9677 19.9727 57.7404 19.6867 57.4324 19.496C57.1244 19.3053 56.7284 19.21 56.2444 19.21C55.8631 19.21 55.5111 19.2907 55.1884 19.452C54.8804 19.5987 54.6164 19.8113 54.3964 20.09C54.1764 20.354 54.0077 20.6693 53.8904 21.036C53.7731 21.388 53.7144 21.762 53.7144 22.158ZM64.1175 29V17.208H66.9335V29H64.1175ZM64.1175 15.888V13.16H66.9335V15.888H64.1175Z" fill="black"/>
<path fill-rule="evenodd" clip-rule="evenodd" d="M74.9622 22.6894C74.9988 22.6446 75.0188 22.5886 75.0188 22.5307C75.0188 22.4729 74.9988 22.4168 74.9622 22.372L72.2085 19.006C72.0067 18.7593 71.9303 18.4278 72.0752 18.1443C72.1759 17.9475 72.3223 17.7181 72.5274 17.5171C72.735 17.3135 72.9729 17.1686 73.1757 17.0701C73.4613 16.9309 73.7917 17.0087 74.0306 17.218C75.7133 18.6893 77.429 20.6766 78.2633 21.9554C78.496 22.3121 78.5206 22.7606 78.2999 23.1251C77.5253 24.4047 75.7198 26.3797 74.0313 27.8445C73.7914 28.0526 73.4613 28.1305 73.1757 27.9914C72.9729 27.8926 72.7352 27.748 72.5274 27.5442C72.3226 27.3434 72.1759 27.114 72.0752 26.9172C71.9303 26.6336 72.0067 26.3022 72.2085 26.0555L74.9622 22.6894Z" fill="#2C88F4"/>
</svg>
