<svg width="74" height="34" viewBox="0 0 74 34" fill="none" xmlns="http://www.w3.org/2000/svg">
<g clip-path="url(#clip0_461_1049)">
<path d="M29.6144 8.13779C36.8133 6.3646 45.6221 3.86684 50.8089 3.16594C51.0878 3.12771 51.3559 3.09676 51.613 3.06945C60.018 2.19196 68.3415 7.77187 71.116 8.80775C73.8923 9.84362 73.3363 11.1981 73.3363 11.1981C73.3363 11.1981 70.7194 9.60514 68.184 11.3583C65.6467 13.1115 66.4399 13.7942 66.4399 13.7942C71.0146 14.2675 72.4018 13.8142 72.7423 13.2498C72.8057 13.1424 73.0085 12.7383 73.1896 12.771C73.3653 12.802 73.5265 13.2389 73.4486 13.6066C73.4341 13.6722 73.4124 13.7359 73.3816 13.7942C71.5416 16.0097 69.0732 16.1772 65.4982 16.5086C63.5151 16.6924 61.1898 16.9273 58.4442 17.59C56.2529 18.1179 53.7935 18.9189 51.0226 20.1842C51.0081 20.1915 50.9937 20.1969 50.9792 20.2042C49.8129 20.7395 48.5578 21.1473 47.2448 21.4476H47.2412C44.7691 22.012 42.0834 22.1959 39.3614 22.1249H39.3542C37.2841 22.0703 35.1942 21.87 33.1568 21.5769C29.6633 21.0763 26.331 20.3044 23.5439 19.5434C19.0217 18.3072 15.9375 17.0948 15.9375 17.0948C9.70758 25.9625 3.6696 26.6762 1.29715 26.556C0.619824 26.5214 0.241321 26.4195 0.241321 26.4195C-0.155295 24.9849 1.50904 23.7907 2.09944 23.392C2.68984 22.9933 3.72937 22.9132 3.72937 21.7171C3.72937 20.521 6.02756 19.7254 7.05804 18.2909C8.08851 16.8563 7.85127 16.139 7.85127 15.3416C7.85127 14.5442 9.75466 13.907 10.2292 13.1115C10.7055 12.3141 9.27836 12.6327 8.40726 11.9955C7.53434 11.3583 7.69371 9.76352 7.61403 9.28472C7.53434 8.80775 6.58355 8.48915 5.71063 8.32895C4.83952 8.17056 4.83953 7.69176 4.83953 6.57578C4.83953 5.4598 4.0463 5.70011 2.69889 4.50403C1.34967 3.30794 2.69889 1.23619 2.69889 1.23619C2.7333 1.22526 2.76952 1.21434 2.80393 1.20706C8.55757 -0.400466 14.5358 9.0517 18.6341 9.92373C19.5415 10.1167 21.2384 9.93465 23.4243 9.52321C24.7663 9.27198 26.293 8.93518 27.9356 8.54559C27.9501 8.54195 27.9664 8.53831 27.9809 8.53467C28.0388 8.5201 28.095 8.50736 28.1529 8.4928C28.1439 8.55469 28.1403 8.62023 28.1403 8.69305C28.0895 8.65482 28.0388 8.61841 27.9845 8.58018" stroke="white" stroke-miterlimit="10"/>
<path d="M50.8086 3.16562C49.2855 2.32636 46.8787 1.39789 43.3653 1.06291C41.8168 0.913632 40.0547 0.880863 38.0571 1.02104C38.0571 1.02104 34.647 1.79295 35.2826 3.62621C35.9165 5.45948 33.5386 3.22752 31.7149 5.93828C30.1592 8.2467 28.3174 7.13982 28.1526 8.49247C28.1435 8.55437 28.1399 8.61991 28.1399 8.69273" stroke="white" stroke-miterlimit="10"/>
<path d="M23.4242 9.52268C24.0037 8.35937 21.3651 7.84052 24.1033 7.61113C25.8293 7.46731 27.0807 7.96067 27.9355 8.54506C27.9518 8.55598 27.9681 8.56873 27.9844 8.57783C28.0387 8.61788 28.0894 8.65429 28.1401 8.69252" stroke="white" stroke-miterlimit="10"/>
<path d="M23.5438 19.543C23.245 22.079 22.0135 26.5939 17.1273 28.4908C10.5207 31.0578 29.0837 28.9787 33.1567 21.5765" stroke="white" stroke-miterlimit="10"/>
<path d="M58.4258 17.4824C58.4312 17.5188 58.4385 17.5534 58.4439 17.5898C60.101 27.5681 47.3205 31.4531 47.8783 31.12C48.4814 30.7577 52.6305 27.3843 50.968 24.9047C50.0298 23.5047 50.4645 21.5895 51.0223 20.1841C51.0313 20.1604 51.0404 20.1386 51.0495 20.1167" stroke="white" stroke-miterlimit="10"/>
<path d="M32.9753 21.7652C35.0127 22.0583 37.1026 22.2585 39.1726 22.3132C38.1965 23.7004 36.9251 25.8814 36.5992 28.2026C36.0522 32.1076 32.3251 33.0634 32.3251 33.0634C32.3251 33.0634 45.7648 33.6605 47.0633 21.6359C48.3763 21.3355 49.6313 20.9277 50.7976 20.3925C50.8121 20.3852 50.8266 20.3798 50.8411 20.3725C50.2833 21.7779 49.8487 23.6931 50.7868 25.0931C52.4493 27.5726 48.3002 30.9461 47.6971 31.3084C47.1393 31.6415 59.9198 27.7565 58.2627 17.7782C61.0082 17.1156 63.3336 16.8807 65.3167 16.6968C68.8916 16.3655 71.3601 16.198 73.2001 13.9824C73.2309 13.9242 73.2526 13.8605 73.2671 13.7949C71.9487 14.6305 68.696 15.8467 60.9267 15.894C49.05 15.9686 27.8519 21.3738 18.0379 16.7788C18.0379 16.7788 16.1436 16.7442 15.756 17.283C15.756 17.283 18.8402 18.4955 23.3623 19.7317C23.0635 22.2676 21.832 26.7825 16.9458 28.6795C10.3392 31.2465 28.9023 29.1674 32.9753 21.7652Z" fill="#F05C1C" stroke="#F05C1C" stroke-miterlimit="10"/>
<path d="M0.241081 26.4195C0.241081 26.4195 0.619584 26.5214 1.29691 26.556C3.00833 24.8575 4.29235 22.58 5.96031 22.5399C8.48851 22.4799 9.13505 19.2302 9.60592 17.4825C10.075 15.7348 15.2491 14.4441 11.2503 11.1343C8.19151 8.602 4.40826 3.47358 2.80369 1.20703C2.76928 1.21431 2.73306 1.22524 2.69865 1.23616C2.69865 1.23616 1.34943 3.30792 2.69865 4.504C4.04606 5.70009 4.83929 5.45978 4.83929 6.57576C4.83929 7.69174 4.83928 8.17054 5.71039 8.32892C6.58331 8.48913 7.5341 8.80772 7.61379 9.2847C7.69347 9.7635 7.5341 11.3583 8.40702 11.9955C9.27812 12.6326 10.7052 12.314 10.2289 13.1114C9.75442 13.907 7.85103 14.546 7.85103 15.3416C7.85103 16.1371 8.08827 16.8563 7.0578 18.2908C6.02732 19.7254 3.72913 20.5228 3.72913 21.7171C3.72913 22.9113 2.6896 22.9932 2.0992 23.3919C1.5088 23.7906 -0.155535 24.9849 0.241081 26.4195Z" fill="white" stroke="white" stroke-miterlimit="10"/>
<path d="M28.1526 8.49247C28.6307 8.37778 29.1179 8.25945 29.6141 8.13747C31.5917 6.60095 35.3424 6.37703 36.3294 4.15052C37.1534 2.29177 40.7374 1.44158 43.3652 1.06291C41.8168 0.913632 40.0547 0.880863 38.0571 1.02104C38.0571 1.02104 34.6469 1.79295 35.2826 3.62621C35.9165 5.45948 33.5386 3.22752 31.7149 5.93828C30.1592 8.2467 28.3174 7.13982 28.1526 8.49247Z" fill="white" stroke="white" stroke-miterlimit="10"/>
<path d="M27.9808 8.53406C27.9808 8.54862 27.9826 8.56319 27.9844 8.57775C28.0387 8.6178 28.0894 8.65421 28.1402 8.69245C28.1402 8.61962 28.1438 8.55409 28.1528 8.49219C28.0949 8.50675 28.0387 8.5195 27.9808 8.53406Z" fill="white" stroke="white" stroke-miterlimit="10"/>
</g>
<defs>
<clipPath id="clip0_461_1049">
<rect width="73.6492" height="32.5" fill="white" transform="matrix(-1 0 0 1 73.6494 0.75)"/>
</clipPath>
</defs>
</svg>
